G04 #@! TF.GenerationSoftware,KiCad,Pcbnew,(5.1.5-0-10_14)*
G04 #@! TF.CreationDate,2020-02-19T17:33:04+11:00*
G04 #@! TF.ProjectId,HX Internal FDD Adapter,48582049-6e74-4657-926e-616c20464444,rev?*
G04 #@! TF.SameCoordinates,Original*
G04 #@! TF.FileFunction,Copper,L1,Top*
G04 #@! TF.FilePolarity,Positive*
%FSLAX46Y46*%
G04 Gerber Fmt 4.6, Leading zero omitted, Abs format (unit mm)*
G04 Created by KiCad (PCBNEW (5.1.5-0-10_14)) date 2020-02-19 17:33:04*
%MOMM*%
%LPD*%
G04 APERTURE LIST*
%ADD10C,1.524000*%
%ADD11R,1.524000X1.524000*%
%ADD12O,2.200000X1.740000*%
%ADD13C,0.100000*%
%ADD14C,0.250000*%
%ADD15C,0.254000*%
G04 APERTURE END LIST*
D10*
X52197000Y-38608000D03*
X52197000Y-36068000D03*
X54737000Y-38608000D03*
X54737000Y-36068000D03*
X57277000Y-38608000D03*
X57277000Y-36068000D03*
X59817000Y-38608000D03*
X59817000Y-36068000D03*
X64897000Y-38608000D03*
X64897000Y-36068000D03*
X67437000Y-38608000D03*
X67437000Y-36068000D03*
D11*
X92837000Y-36068000D03*
D10*
X90297000Y-36068000D03*
X87757000Y-36068000D03*
X85217000Y-36068000D03*
X82677000Y-36068000D03*
X80137000Y-36068000D03*
X77597000Y-36068000D03*
X75057000Y-36068000D03*
X72517000Y-36068000D03*
X69977000Y-36068000D03*
X69977000Y-38608000D03*
X72517000Y-38608000D03*
X75057000Y-38608000D03*
X77597000Y-38608000D03*
X80137000Y-38608000D03*
X82677000Y-38608000D03*
X85217000Y-38608000D03*
X87757000Y-38608000D03*
X90297000Y-38608000D03*
X92837000Y-38608000D03*
X62357000Y-36068000D03*
X62357000Y-38608000D03*
X62357000Y-43942000D03*
X62357000Y-46482000D03*
X92837000Y-43942000D03*
X90297000Y-43942000D03*
X87757000Y-43942000D03*
X85217000Y-43942000D03*
X82677000Y-43942000D03*
X80137000Y-43942000D03*
X77597000Y-43942000D03*
X75057000Y-43942000D03*
X72517000Y-43942000D03*
X69977000Y-43942000D03*
X69977000Y-46482000D03*
X72517000Y-46482000D03*
X75057000Y-46482000D03*
X77597000Y-46482000D03*
X80137000Y-46482000D03*
X82677000Y-46482000D03*
X85217000Y-46482000D03*
X87757000Y-46482000D03*
X90297000Y-46482000D03*
X92837000Y-46482000D03*
X67437000Y-46482000D03*
X67437000Y-43942000D03*
X64897000Y-46482000D03*
X64897000Y-43942000D03*
X59817000Y-46482000D03*
X59817000Y-43942000D03*
X57277000Y-46482000D03*
X57277000Y-43942000D03*
X54737000Y-46482000D03*
X54737000Y-43942000D03*
D11*
X52197000Y-46482000D03*
D10*
X52197000Y-43942000D03*
D12*
X42164000Y-37846000D03*
X42164000Y-40386000D03*
X42164000Y-42926000D03*
G04 #@! TA.AperFunction,ComponentPad*
D13*
G36*
X43038505Y-44597204D02*
G01*
X43062773Y-44600804D01*
X43086572Y-44606765D01*
X43109671Y-44615030D01*
X43131850Y-44625520D01*
X43152893Y-44638132D01*
X43172599Y-44652747D01*
X43190777Y-44669223D01*
X43207253Y-44687401D01*
X43221868Y-44707107D01*
X43234480Y-44728150D01*
X43244970Y-44750329D01*
X43253235Y-44773428D01*
X43259196Y-44797227D01*
X43262796Y-44821495D01*
X43264000Y-44845999D01*
X43264000Y-46086001D01*
X43262796Y-46110505D01*
X43259196Y-46134773D01*
X43253235Y-46158572D01*
X43244970Y-46181671D01*
X43234480Y-46203850D01*
X43221868Y-46224893D01*
X43207253Y-46244599D01*
X43190777Y-46262777D01*
X43172599Y-46279253D01*
X43152893Y-46293868D01*
X43131850Y-46306480D01*
X43109671Y-46316970D01*
X43086572Y-46325235D01*
X43062773Y-46331196D01*
X43038505Y-46334796D01*
X43014001Y-46336000D01*
X41313999Y-46336000D01*
X41289495Y-46334796D01*
X41265227Y-46331196D01*
X41241428Y-46325235D01*
X41218329Y-46316970D01*
X41196150Y-46306480D01*
X41175107Y-46293868D01*
X41155401Y-46279253D01*
X41137223Y-46262777D01*
X41120747Y-46244599D01*
X41106132Y-46224893D01*
X41093520Y-46203850D01*
X41083030Y-46181671D01*
X41074765Y-46158572D01*
X41068804Y-46134773D01*
X41065204Y-46110505D01*
X41064000Y-46086001D01*
X41064000Y-44845999D01*
X41065204Y-44821495D01*
X41068804Y-44797227D01*
X41074765Y-44773428D01*
X41083030Y-44750329D01*
X41093520Y-44728150D01*
X41106132Y-44707107D01*
X41120747Y-44687401D01*
X41137223Y-44669223D01*
X41155401Y-44652747D01*
X41175107Y-44638132D01*
X41196150Y-44625520D01*
X41218329Y-44615030D01*
X41241428Y-44606765D01*
X41265227Y-44600804D01*
X41289495Y-44597204D01*
X41313999Y-44596000D01*
X43014001Y-44596000D01*
X43038505Y-44597204D01*
G37*
G04 #@! TD.AperFunction*
D14*
X92075001Y-43180001D02*
X92837000Y-43942000D01*
X91567000Y-42672000D02*
X92075001Y-43180001D01*
X91567000Y-36224400D02*
X91567000Y-42672000D01*
X91723400Y-36068000D02*
X91567000Y-36224400D01*
X92837000Y-36068000D02*
X91723400Y-36068000D01*
X89535001Y-43180001D02*
X90297000Y-43942000D01*
X89027000Y-42672000D02*
X89535001Y-43180001D01*
X89027000Y-37338000D02*
X89027000Y-42672000D01*
X90297000Y-36068000D02*
X89027000Y-37338000D01*
X86995001Y-43180001D02*
X87757000Y-43942000D01*
X86487000Y-42672000D02*
X86995001Y-43180001D01*
X86487000Y-37338000D02*
X86487000Y-42672000D01*
X87757000Y-36068000D02*
X86487000Y-37338000D01*
X84455001Y-43180001D02*
X85217000Y-43942000D01*
X83947000Y-42672000D02*
X84455001Y-43180001D01*
X83947000Y-37338000D02*
X83947000Y-42672000D01*
X85217000Y-36068000D02*
X83947000Y-37338000D01*
X81915001Y-43180001D02*
X82677000Y-43942000D01*
X81407000Y-37338000D02*
X81407000Y-42672000D01*
X81407000Y-42672000D02*
X81915001Y-43180001D01*
X82677000Y-36068000D02*
X81407000Y-37338000D01*
X79375001Y-43180001D02*
X80137000Y-43942000D01*
X78867000Y-42672000D02*
X79375001Y-43180001D01*
X78867000Y-37338000D02*
X78867000Y-42672000D01*
X80137000Y-36068000D02*
X78867000Y-37338000D01*
X76327000Y-42672000D02*
X76835001Y-43180001D01*
X76327000Y-37338000D02*
X76327000Y-42672000D01*
X76835001Y-43180001D02*
X77597000Y-43942000D01*
X77597000Y-36068000D02*
X76327000Y-37338000D01*
X74295001Y-43180001D02*
X75057000Y-43942000D01*
X73787000Y-37338000D02*
X73787000Y-42672000D01*
X73787000Y-42672000D02*
X74295001Y-43180001D01*
X75057000Y-36068000D02*
X73787000Y-37338000D01*
X71247000Y-42672000D02*
X71755001Y-43180001D01*
X71247000Y-37338000D02*
X71247000Y-42672000D01*
X71755001Y-43180001D02*
X72517000Y-43942000D01*
X72517000Y-36068000D02*
X71247000Y-37338000D01*
X69215001Y-43180001D02*
X69977000Y-43942000D01*
X68707000Y-42672000D02*
X69215001Y-43180001D01*
X68707000Y-37338000D02*
X68707000Y-42672000D01*
X69977000Y-36068000D02*
X68707000Y-37338000D01*
X64135001Y-43180001D02*
X64897000Y-43942000D01*
X63627000Y-42672000D02*
X64135001Y-43180001D01*
X63627000Y-37338000D02*
X63627000Y-42672000D01*
X64897000Y-36068000D02*
X63627000Y-37338000D01*
X61087000Y-37338000D02*
X61087000Y-42672000D01*
X61595001Y-43180001D02*
X62357000Y-43942000D01*
X61087000Y-42672000D02*
X61595001Y-43180001D01*
X62357000Y-36068000D02*
X61087000Y-37338000D01*
X59055001Y-43180001D02*
X59817000Y-43942000D01*
X58628399Y-42753399D02*
X59055001Y-43180001D01*
X58628399Y-37256601D02*
X58628399Y-42753399D01*
X59817000Y-36068000D02*
X58628399Y-37256601D01*
D15*
G36*
X97892001Y-49124000D02*
G01*
X38760000Y-49124000D01*
X38760000Y-47244000D01*
X50796928Y-47244000D01*
X50809188Y-47368482D01*
X50845498Y-47488180D01*
X50904463Y-47598494D01*
X50983815Y-47695185D01*
X51080506Y-47774537D01*
X51190820Y-47833502D01*
X51310518Y-47869812D01*
X51435000Y-47882072D01*
X51911250Y-47879000D01*
X52070000Y-47720250D01*
X52070000Y-46609000D01*
X50958750Y-46609000D01*
X50800000Y-46767750D01*
X50796928Y-47244000D01*
X38760000Y-47244000D01*
X38760000Y-44845999D01*
X40425928Y-44845999D01*
X40425928Y-46086001D01*
X40442992Y-46259255D01*
X40493528Y-46425851D01*
X40575595Y-46579387D01*
X40686038Y-46713962D01*
X40820613Y-46824405D01*
X40974149Y-46906472D01*
X41140745Y-46957008D01*
X41313999Y-46974072D01*
X43014001Y-46974072D01*
X43187255Y-46957008D01*
X43353851Y-46906472D01*
X43507387Y-46824405D01*
X43641962Y-46713962D01*
X43752405Y-46579387D01*
X43834472Y-46425851D01*
X43885008Y-46259255D01*
X43902072Y-46086001D01*
X43902072Y-45720000D01*
X50796928Y-45720000D01*
X50800000Y-46196250D01*
X50958750Y-46355000D01*
X52070000Y-46355000D01*
X52070000Y-46335000D01*
X52324000Y-46335000D01*
X52324000Y-46355000D01*
X52344000Y-46355000D01*
X52344000Y-46609000D01*
X52324000Y-46609000D01*
X52324000Y-47720250D01*
X52482750Y-47879000D01*
X52959000Y-47882072D01*
X53083482Y-47869812D01*
X53203180Y-47833502D01*
X53313494Y-47774537D01*
X53410185Y-47695185D01*
X53489537Y-47598494D01*
X53548502Y-47488180D01*
X53560822Y-47447565D01*
X53951040Y-47447565D01*
X54018020Y-47687656D01*
X54267048Y-47804756D01*
X54534135Y-47871023D01*
X54809017Y-47883910D01*
X55081133Y-47842922D01*
X55340023Y-47749636D01*
X55455980Y-47687656D01*
X55522960Y-47447565D01*
X56491040Y-47447565D01*
X56558020Y-47687656D01*
X56807048Y-47804756D01*
X57074135Y-47871023D01*
X57349017Y-47883910D01*
X57621133Y-47842922D01*
X57880023Y-47749636D01*
X57995980Y-47687656D01*
X58062960Y-47447565D01*
X59031040Y-47447565D01*
X59098020Y-47687656D01*
X59347048Y-47804756D01*
X59614135Y-47871023D01*
X59889017Y-47883910D01*
X60161133Y-47842922D01*
X60420023Y-47749636D01*
X60535980Y-47687656D01*
X60602960Y-47447565D01*
X61571040Y-47447565D01*
X61638020Y-47687656D01*
X61887048Y-47804756D01*
X62154135Y-47871023D01*
X62429017Y-47883910D01*
X62701133Y-47842922D01*
X62960023Y-47749636D01*
X63075980Y-47687656D01*
X63142960Y-47447565D01*
X64111040Y-47447565D01*
X64178020Y-47687656D01*
X64427048Y-47804756D01*
X64694135Y-47871023D01*
X64969017Y-47883910D01*
X65241133Y-47842922D01*
X65500023Y-47749636D01*
X65615980Y-47687656D01*
X65682960Y-47447565D01*
X66651040Y-47447565D01*
X66718020Y-47687656D01*
X66967048Y-47804756D01*
X67234135Y-47871023D01*
X67509017Y-47883910D01*
X67781133Y-47842922D01*
X68040023Y-47749636D01*
X68155980Y-47687656D01*
X68222960Y-47447565D01*
X69191040Y-47447565D01*
X69258020Y-47687656D01*
X69507048Y-47804756D01*
X69774135Y-47871023D01*
X70049017Y-47883910D01*
X70321133Y-47842922D01*
X70580023Y-47749636D01*
X70695980Y-47687656D01*
X70762960Y-47447565D01*
X71731040Y-47447565D01*
X71798020Y-47687656D01*
X72047048Y-47804756D01*
X72314135Y-47871023D01*
X72589017Y-47883910D01*
X72861133Y-47842922D01*
X73120023Y-47749636D01*
X73235980Y-47687656D01*
X73302960Y-47447565D01*
X74271040Y-47447565D01*
X74338020Y-47687656D01*
X74587048Y-47804756D01*
X74854135Y-47871023D01*
X75129017Y-47883910D01*
X75401133Y-47842922D01*
X75660023Y-47749636D01*
X75775980Y-47687656D01*
X75842960Y-47447565D01*
X76811040Y-47447565D01*
X76878020Y-47687656D01*
X77127048Y-47804756D01*
X77394135Y-47871023D01*
X77669017Y-47883910D01*
X77941133Y-47842922D01*
X78200023Y-47749636D01*
X78315980Y-47687656D01*
X78382960Y-47447565D01*
X79351040Y-47447565D01*
X79418020Y-47687656D01*
X79667048Y-47804756D01*
X79934135Y-47871023D01*
X80209017Y-47883910D01*
X80481133Y-47842922D01*
X80740023Y-47749636D01*
X80855980Y-47687656D01*
X80922960Y-47447565D01*
X81891040Y-47447565D01*
X81958020Y-47687656D01*
X82207048Y-47804756D01*
X82474135Y-47871023D01*
X82749017Y-47883910D01*
X83021133Y-47842922D01*
X83280023Y-47749636D01*
X83395980Y-47687656D01*
X83462960Y-47447565D01*
X84431040Y-47447565D01*
X84498020Y-47687656D01*
X84747048Y-47804756D01*
X85014135Y-47871023D01*
X85289017Y-47883910D01*
X85561133Y-47842922D01*
X85820023Y-47749636D01*
X85935980Y-47687656D01*
X86002960Y-47447565D01*
X86971040Y-47447565D01*
X87038020Y-47687656D01*
X87287048Y-47804756D01*
X87554135Y-47871023D01*
X87829017Y-47883910D01*
X88101133Y-47842922D01*
X88360023Y-47749636D01*
X88475980Y-47687656D01*
X88542960Y-47447565D01*
X89511040Y-47447565D01*
X89578020Y-47687656D01*
X89827048Y-47804756D01*
X90094135Y-47871023D01*
X90369017Y-47883910D01*
X90641133Y-47842922D01*
X90900023Y-47749636D01*
X91015980Y-47687656D01*
X91082960Y-47447565D01*
X92051040Y-47447565D01*
X92118020Y-47687656D01*
X92367048Y-47804756D01*
X92634135Y-47871023D01*
X92909017Y-47883910D01*
X93181133Y-47842922D01*
X93440023Y-47749636D01*
X93555980Y-47687656D01*
X93622960Y-47447565D01*
X92837000Y-46661605D01*
X92051040Y-47447565D01*
X91082960Y-47447565D01*
X90297000Y-46661605D01*
X89511040Y-47447565D01*
X88542960Y-47447565D01*
X87757000Y-46661605D01*
X86971040Y-47447565D01*
X86002960Y-47447565D01*
X85217000Y-46661605D01*
X84431040Y-47447565D01*
X83462960Y-47447565D01*
X82677000Y-46661605D01*
X81891040Y-47447565D01*
X80922960Y-47447565D01*
X80137000Y-46661605D01*
X79351040Y-47447565D01*
X78382960Y-47447565D01*
X77597000Y-46661605D01*
X76811040Y-47447565D01*
X75842960Y-47447565D01*
X75057000Y-46661605D01*
X74271040Y-47447565D01*
X73302960Y-47447565D01*
X72517000Y-46661605D01*
X71731040Y-47447565D01*
X70762960Y-47447565D01*
X69977000Y-46661605D01*
X69191040Y-47447565D01*
X68222960Y-47447565D01*
X67437000Y-46661605D01*
X66651040Y-47447565D01*
X65682960Y-47447565D01*
X64897000Y-46661605D01*
X64111040Y-47447565D01*
X63142960Y-47447565D01*
X62357000Y-46661605D01*
X61571040Y-47447565D01*
X60602960Y-47447565D01*
X59817000Y-46661605D01*
X59031040Y-47447565D01*
X58062960Y-47447565D01*
X57277000Y-46661605D01*
X56491040Y-47447565D01*
X55522960Y-47447565D01*
X54737000Y-46661605D01*
X53951040Y-47447565D01*
X53560822Y-47447565D01*
X53584812Y-47368482D01*
X53597072Y-47244000D01*
X53596912Y-47219272D01*
X53771435Y-47267960D01*
X54557395Y-46482000D01*
X54916605Y-46482000D01*
X55702565Y-47267960D01*
X55942656Y-47200980D01*
X56004079Y-47070356D01*
X56009364Y-47085023D01*
X56071344Y-47200980D01*
X56311435Y-47267960D01*
X57097395Y-46482000D01*
X57456605Y-46482000D01*
X58242565Y-47267960D01*
X58482656Y-47200980D01*
X58544079Y-47070356D01*
X58549364Y-47085023D01*
X58611344Y-47200980D01*
X58851435Y-47267960D01*
X59637395Y-46482000D01*
X59996605Y-46482000D01*
X60782565Y-47267960D01*
X61022656Y-47200980D01*
X61084079Y-47070356D01*
X61089364Y-47085023D01*
X61151344Y-47200980D01*
X61391435Y-47267960D01*
X62177395Y-46482000D01*
X62536605Y-46482000D01*
X63322565Y-47267960D01*
X63562656Y-47200980D01*
X63624079Y-47070356D01*
X63629364Y-47085023D01*
X63691344Y-47200980D01*
X63931435Y-47267960D01*
X64717395Y-46482000D01*
X65076605Y-46482000D01*
X65862565Y-47267960D01*
X66102656Y-47200980D01*
X66164079Y-47070356D01*
X66169364Y-47085023D01*
X66231344Y-47200980D01*
X66471435Y-47267960D01*
X67257395Y-46482000D01*
X67616605Y-46482000D01*
X68402565Y-47267960D01*
X68642656Y-47200980D01*
X68704079Y-47070356D01*
X68709364Y-47085023D01*
X68771344Y-47200980D01*
X69011435Y-47267960D01*
X69797395Y-46482000D01*
X70156605Y-46482000D01*
X70942565Y-47267960D01*
X71182656Y-47200980D01*
X71244079Y-47070356D01*
X71249364Y-47085023D01*
X71311344Y-47200980D01*
X71551435Y-47267960D01*
X72337395Y-46482000D01*
X72696605Y-46482000D01*
X73482565Y-47267960D01*
X73722656Y-47200980D01*
X73784079Y-47070356D01*
X73789364Y-47085023D01*
X73851344Y-47200980D01*
X74091435Y-47267960D01*
X74877395Y-46482000D01*
X75236605Y-46482000D01*
X76022565Y-47267960D01*
X76262656Y-47200980D01*
X76324079Y-47070356D01*
X76329364Y-47085023D01*
X76391344Y-47200980D01*
X76631435Y-47267960D01*
X77417395Y-46482000D01*
X77776605Y-46482000D01*
X78562565Y-47267960D01*
X78802656Y-47200980D01*
X78864079Y-47070356D01*
X78869364Y-47085023D01*
X78931344Y-47200980D01*
X79171435Y-47267960D01*
X79957395Y-46482000D01*
X80316605Y-46482000D01*
X81102565Y-47267960D01*
X81342656Y-47200980D01*
X81404079Y-47070356D01*
X81409364Y-47085023D01*
X81471344Y-47200980D01*
X81711435Y-47267960D01*
X82497395Y-46482000D01*
X82856605Y-46482000D01*
X83642565Y-47267960D01*
X83882656Y-47200980D01*
X83944079Y-47070356D01*
X83949364Y-47085023D01*
X84011344Y-47200980D01*
X84251435Y-47267960D01*
X85037395Y-46482000D01*
X85396605Y-46482000D01*
X86182565Y-47267960D01*
X86422656Y-47200980D01*
X86484079Y-47070356D01*
X86489364Y-47085023D01*
X86551344Y-47200980D01*
X86791435Y-47267960D01*
X87577395Y-46482000D01*
X87936605Y-46482000D01*
X88722565Y-47267960D01*
X88962656Y-47200980D01*
X89024079Y-47070356D01*
X89029364Y-47085023D01*
X89091344Y-47200980D01*
X89331435Y-47267960D01*
X90117395Y-46482000D01*
X90476605Y-46482000D01*
X91262565Y-47267960D01*
X91502656Y-47200980D01*
X91564079Y-47070356D01*
X91569364Y-47085023D01*
X91631344Y-47200980D01*
X91871435Y-47267960D01*
X92657395Y-46482000D01*
X93016605Y-46482000D01*
X93802565Y-47267960D01*
X94042656Y-47200980D01*
X94159756Y-46951952D01*
X94226023Y-46684865D01*
X94238910Y-46409983D01*
X94197922Y-46137867D01*
X94104636Y-45878977D01*
X94042656Y-45763020D01*
X93802565Y-45696040D01*
X93016605Y-46482000D01*
X92657395Y-46482000D01*
X91871435Y-45696040D01*
X91631344Y-45763020D01*
X91569921Y-45893644D01*
X91564636Y-45878977D01*
X91502656Y-45763020D01*
X91262565Y-45696040D01*
X90476605Y-46482000D01*
X90117395Y-46482000D01*
X89331435Y-45696040D01*
X89091344Y-45763020D01*
X89029921Y-45893644D01*
X89024636Y-45878977D01*
X88962656Y-45763020D01*
X88722565Y-45696040D01*
X87936605Y-46482000D01*
X87577395Y-46482000D01*
X86791435Y-45696040D01*
X86551344Y-45763020D01*
X86489921Y-45893644D01*
X86484636Y-45878977D01*
X86422656Y-45763020D01*
X86182565Y-45696040D01*
X85396605Y-46482000D01*
X85037395Y-46482000D01*
X84251435Y-45696040D01*
X84011344Y-45763020D01*
X83949921Y-45893644D01*
X83944636Y-45878977D01*
X83882656Y-45763020D01*
X83642565Y-45696040D01*
X82856605Y-46482000D01*
X82497395Y-46482000D01*
X81711435Y-45696040D01*
X81471344Y-45763020D01*
X81409921Y-45893644D01*
X81404636Y-45878977D01*
X81342656Y-45763020D01*
X81102565Y-45696040D01*
X80316605Y-46482000D01*
X79957395Y-46482000D01*
X79171435Y-45696040D01*
X78931344Y-45763020D01*
X78869921Y-45893644D01*
X78864636Y-45878977D01*
X78802656Y-45763020D01*
X78562565Y-45696040D01*
X77776605Y-46482000D01*
X77417395Y-46482000D01*
X76631435Y-45696040D01*
X76391344Y-45763020D01*
X76329921Y-45893644D01*
X76324636Y-45878977D01*
X76262656Y-45763020D01*
X76022565Y-45696040D01*
X75236605Y-46482000D01*
X74877395Y-46482000D01*
X74091435Y-45696040D01*
X73851344Y-45763020D01*
X73789921Y-45893644D01*
X73784636Y-45878977D01*
X73722656Y-45763020D01*
X73482565Y-45696040D01*
X72696605Y-46482000D01*
X72337395Y-46482000D01*
X71551435Y-45696040D01*
X71311344Y-45763020D01*
X71249921Y-45893644D01*
X71244636Y-45878977D01*
X71182656Y-45763020D01*
X70942565Y-45696040D01*
X70156605Y-46482000D01*
X69797395Y-46482000D01*
X69011435Y-45696040D01*
X68771344Y-45763020D01*
X68709921Y-45893644D01*
X68704636Y-45878977D01*
X68642656Y-45763020D01*
X68402565Y-45696040D01*
X67616605Y-46482000D01*
X67257395Y-46482000D01*
X66471435Y-45696040D01*
X66231344Y-45763020D01*
X66169921Y-45893644D01*
X66164636Y-45878977D01*
X66102656Y-45763020D01*
X65862565Y-45696040D01*
X65076605Y-46482000D01*
X64717395Y-46482000D01*
X63931435Y-45696040D01*
X63691344Y-45763020D01*
X63629921Y-45893644D01*
X63624636Y-45878977D01*
X63562656Y-45763020D01*
X63322565Y-45696040D01*
X62536605Y-46482000D01*
X62177395Y-46482000D01*
X61391435Y-45696040D01*
X61151344Y-45763020D01*
X61089921Y-45893644D01*
X61084636Y-45878977D01*
X61022656Y-45763020D01*
X60782565Y-45696040D01*
X59996605Y-46482000D01*
X59637395Y-46482000D01*
X58851435Y-45696040D01*
X58611344Y-45763020D01*
X58549921Y-45893644D01*
X58544636Y-45878977D01*
X58482656Y-45763020D01*
X58242565Y-45696040D01*
X57456605Y-46482000D01*
X57097395Y-46482000D01*
X56311435Y-45696040D01*
X56071344Y-45763020D01*
X56009921Y-45893644D01*
X56004636Y-45878977D01*
X55942656Y-45763020D01*
X55702565Y-45696040D01*
X54916605Y-46482000D01*
X54557395Y-46482000D01*
X53771435Y-45696040D01*
X53596912Y-45744728D01*
X53597072Y-45720000D01*
X53584812Y-45595518D01*
X53548502Y-45475820D01*
X53489537Y-45365506D01*
X53410185Y-45268815D01*
X53313494Y-45189463D01*
X53203180Y-45130498D01*
X53083482Y-45094188D01*
X52999535Y-45085920D01*
X53087535Y-45027120D01*
X53282120Y-44832535D01*
X53435005Y-44603727D01*
X53467000Y-44526485D01*
X53498995Y-44603727D01*
X53651880Y-44832535D01*
X53846465Y-45027120D01*
X54075273Y-45180005D01*
X54146943Y-45209692D01*
X54133977Y-45214364D01*
X54018020Y-45276344D01*
X53951040Y-45516435D01*
X54737000Y-46302395D01*
X55522960Y-45516435D01*
X55455980Y-45276344D01*
X55320240Y-45212515D01*
X55398727Y-45180005D01*
X55627535Y-45027120D01*
X55822120Y-44832535D01*
X55975005Y-44603727D01*
X56007000Y-44526485D01*
X56038995Y-44603727D01*
X56191880Y-44832535D01*
X56386465Y-45027120D01*
X56615273Y-45180005D01*
X56686943Y-45209692D01*
X56673977Y-45214364D01*
X56558020Y-45276344D01*
X56491040Y-45516435D01*
X57277000Y-46302395D01*
X58062960Y-45516435D01*
X57995980Y-45276344D01*
X57860240Y-45212515D01*
X57938727Y-45180005D01*
X58167535Y-45027120D01*
X58362120Y-44832535D01*
X58515005Y-44603727D01*
X58547000Y-44526485D01*
X58578995Y-44603727D01*
X58731880Y-44832535D01*
X58926465Y-45027120D01*
X59155273Y-45180005D01*
X59226943Y-45209692D01*
X59213977Y-45214364D01*
X59098020Y-45276344D01*
X59031040Y-45516435D01*
X59817000Y-46302395D01*
X60602960Y-45516435D01*
X60535980Y-45276344D01*
X60400240Y-45212515D01*
X60478727Y-45180005D01*
X60707535Y-45027120D01*
X60902120Y-44832535D01*
X61055005Y-44603727D01*
X61087000Y-44526485D01*
X61118995Y-44603727D01*
X61271880Y-44832535D01*
X61466465Y-45027120D01*
X61695273Y-45180005D01*
X61766943Y-45209692D01*
X61753977Y-45214364D01*
X61638020Y-45276344D01*
X61571040Y-45516435D01*
X62357000Y-46302395D01*
X63142960Y-45516435D01*
X63075980Y-45276344D01*
X62940240Y-45212515D01*
X63018727Y-45180005D01*
X63247535Y-45027120D01*
X63442120Y-44832535D01*
X63595005Y-44603727D01*
X63627000Y-44526485D01*
X63658995Y-44603727D01*
X63811880Y-44832535D01*
X64006465Y-45027120D01*
X64235273Y-45180005D01*
X64306943Y-45209692D01*
X64293977Y-45214364D01*
X64178020Y-45276344D01*
X64111040Y-45516435D01*
X64897000Y-46302395D01*
X65682960Y-45516435D01*
X65615980Y-45276344D01*
X65480240Y-45212515D01*
X65558727Y-45180005D01*
X65787535Y-45027120D01*
X65982120Y-44832535D01*
X66135005Y-44603727D01*
X66167000Y-44526485D01*
X66198995Y-44603727D01*
X66351880Y-44832535D01*
X66546465Y-45027120D01*
X66775273Y-45180005D01*
X66846943Y-45209692D01*
X66833977Y-45214364D01*
X66718020Y-45276344D01*
X66651040Y-45516435D01*
X67437000Y-46302395D01*
X68222960Y-45516435D01*
X68155980Y-45276344D01*
X68020240Y-45212515D01*
X68098727Y-45180005D01*
X68327535Y-45027120D01*
X68522120Y-44832535D01*
X68675005Y-44603727D01*
X68707000Y-44526485D01*
X68738995Y-44603727D01*
X68891880Y-44832535D01*
X69086465Y-45027120D01*
X69315273Y-45180005D01*
X69386943Y-45209692D01*
X69373977Y-45214364D01*
X69258020Y-45276344D01*
X69191040Y-45516435D01*
X69977000Y-46302395D01*
X70762960Y-45516435D01*
X70695980Y-45276344D01*
X70560240Y-45212515D01*
X70638727Y-45180005D01*
X70867535Y-45027120D01*
X71062120Y-44832535D01*
X71215005Y-44603727D01*
X71247000Y-44526485D01*
X71278995Y-44603727D01*
X71431880Y-44832535D01*
X71626465Y-45027120D01*
X71855273Y-45180005D01*
X71926943Y-45209692D01*
X71913977Y-45214364D01*
X71798020Y-45276344D01*
X71731040Y-45516435D01*
X72517000Y-46302395D01*
X73302960Y-45516435D01*
X73235980Y-45276344D01*
X73100240Y-45212515D01*
X73178727Y-45180005D01*
X73407535Y-45027120D01*
X73602120Y-44832535D01*
X73755005Y-44603727D01*
X73787000Y-44526485D01*
X73818995Y-44603727D01*
X73971880Y-44832535D01*
X74166465Y-45027120D01*
X74395273Y-45180005D01*
X74466943Y-45209692D01*
X74453977Y-45214364D01*
X74338020Y-45276344D01*
X74271040Y-45516435D01*
X75057000Y-46302395D01*
X75842960Y-45516435D01*
X75775980Y-45276344D01*
X75640240Y-45212515D01*
X75718727Y-45180005D01*
X75947535Y-45027120D01*
X76142120Y-44832535D01*
X76295005Y-44603727D01*
X76327000Y-44526485D01*
X76358995Y-44603727D01*
X76511880Y-44832535D01*
X76706465Y-45027120D01*
X76935273Y-45180005D01*
X77006943Y-45209692D01*
X76993977Y-45214364D01*
X76878020Y-45276344D01*
X76811040Y-45516435D01*
X77597000Y-46302395D01*
X78382960Y-45516435D01*
X78315980Y-45276344D01*
X78180240Y-45212515D01*
X78258727Y-45180005D01*
X78487535Y-45027120D01*
X78682120Y-44832535D01*
X78835005Y-44603727D01*
X78867000Y-44526485D01*
X78898995Y-44603727D01*
X79051880Y-44832535D01*
X79246465Y-45027120D01*
X79475273Y-45180005D01*
X79546943Y-45209692D01*
X79533977Y-45214364D01*
X79418020Y-45276344D01*
X79351040Y-45516435D01*
X80137000Y-46302395D01*
X80922960Y-45516435D01*
X80855980Y-45276344D01*
X80720240Y-45212515D01*
X80798727Y-45180005D01*
X81027535Y-45027120D01*
X81222120Y-44832535D01*
X81375005Y-44603727D01*
X81407000Y-44526485D01*
X81438995Y-44603727D01*
X81591880Y-44832535D01*
X81786465Y-45027120D01*
X82015273Y-45180005D01*
X82086943Y-45209692D01*
X82073977Y-45214364D01*
X81958020Y-45276344D01*
X81891040Y-45516435D01*
X82677000Y-46302395D01*
X83462960Y-45516435D01*
X83395980Y-45276344D01*
X83260240Y-45212515D01*
X83338727Y-45180005D01*
X83567535Y-45027120D01*
X83762120Y-44832535D01*
X83915005Y-44603727D01*
X83947000Y-44526485D01*
X83978995Y-44603727D01*
X84131880Y-44832535D01*
X84326465Y-45027120D01*
X84555273Y-45180005D01*
X84626943Y-45209692D01*
X84613977Y-45214364D01*
X84498020Y-45276344D01*
X84431040Y-45516435D01*
X85217000Y-46302395D01*
X86002960Y-45516435D01*
X85935980Y-45276344D01*
X85800240Y-45212515D01*
X85878727Y-45180005D01*
X86107535Y-45027120D01*
X86302120Y-44832535D01*
X86455005Y-44603727D01*
X86487000Y-44526485D01*
X86518995Y-44603727D01*
X86671880Y-44832535D01*
X86866465Y-45027120D01*
X87095273Y-45180005D01*
X87166943Y-45209692D01*
X87153977Y-45214364D01*
X87038020Y-45276344D01*
X86971040Y-45516435D01*
X87757000Y-46302395D01*
X88542960Y-45516435D01*
X88475980Y-45276344D01*
X88340240Y-45212515D01*
X88418727Y-45180005D01*
X88647535Y-45027120D01*
X88842120Y-44832535D01*
X88995005Y-44603727D01*
X89027000Y-44526485D01*
X89058995Y-44603727D01*
X89211880Y-44832535D01*
X89406465Y-45027120D01*
X89635273Y-45180005D01*
X89706943Y-45209692D01*
X89693977Y-45214364D01*
X89578020Y-45276344D01*
X89511040Y-45516435D01*
X90297000Y-46302395D01*
X91082960Y-45516435D01*
X91015980Y-45276344D01*
X90880240Y-45212515D01*
X90958727Y-45180005D01*
X91187535Y-45027120D01*
X91382120Y-44832535D01*
X91535005Y-44603727D01*
X91567000Y-44526485D01*
X91598995Y-44603727D01*
X91751880Y-44832535D01*
X91946465Y-45027120D01*
X92175273Y-45180005D01*
X92246943Y-45209692D01*
X92233977Y-45214364D01*
X92118020Y-45276344D01*
X92051040Y-45516435D01*
X92837000Y-46302395D01*
X93622960Y-45516435D01*
X93555980Y-45276344D01*
X93420240Y-45212515D01*
X93498727Y-45180005D01*
X93727535Y-45027120D01*
X93922120Y-44832535D01*
X94075005Y-44603727D01*
X94180314Y-44349490D01*
X94234000Y-44079592D01*
X94234000Y-43804408D01*
X94180314Y-43534510D01*
X94075005Y-43280273D01*
X93922120Y-43051465D01*
X93727535Y-42856880D01*
X93498727Y-42703995D01*
X93244490Y-42598686D01*
X92974592Y-42545000D01*
X92699408Y-42545000D01*
X92545429Y-42575628D01*
X92327000Y-42357199D01*
X92327000Y-39908853D01*
X92429510Y-39951314D01*
X92699408Y-40005000D01*
X92974592Y-40005000D01*
X93244490Y-39951314D01*
X93498727Y-39846005D01*
X93727535Y-39693120D01*
X93922120Y-39498535D01*
X94075005Y-39269727D01*
X94180314Y-39015490D01*
X94234000Y-38745592D01*
X94234000Y-38470408D01*
X94180314Y-38200510D01*
X94075005Y-37946273D01*
X93922120Y-37717465D01*
X93727535Y-37522880D01*
X93639535Y-37464080D01*
X93723482Y-37455812D01*
X93843180Y-37419502D01*
X93953494Y-37360537D01*
X94050185Y-37281185D01*
X94129537Y-37184494D01*
X94188502Y-37074180D01*
X94224812Y-36954482D01*
X94237072Y-36830000D01*
X94237072Y-35306000D01*
X94224812Y-35181518D01*
X94188502Y-35061820D01*
X94129537Y-34951506D01*
X94050185Y-34854815D01*
X93953494Y-34775463D01*
X93843180Y-34716498D01*
X93723482Y-34680188D01*
X93599000Y-34667928D01*
X92075000Y-34667928D01*
X91950518Y-34680188D01*
X91830820Y-34716498D01*
X91720506Y-34775463D01*
X91623815Y-34854815D01*
X91544463Y-34951506D01*
X91485498Y-35061820D01*
X91449188Y-35181518D01*
X91440920Y-35265465D01*
X91382120Y-35177465D01*
X91187535Y-34982880D01*
X90958727Y-34829995D01*
X90704490Y-34724686D01*
X90434592Y-34671000D01*
X90159408Y-34671000D01*
X89889510Y-34724686D01*
X89635273Y-34829995D01*
X89406465Y-34982880D01*
X89211880Y-35177465D01*
X89058995Y-35406273D01*
X89027000Y-35483515D01*
X88995005Y-35406273D01*
X88842120Y-35177465D01*
X88647535Y-34982880D01*
X88418727Y-34829995D01*
X88164490Y-34724686D01*
X87894592Y-34671000D01*
X87619408Y-34671000D01*
X87349510Y-34724686D01*
X87095273Y-34829995D01*
X86866465Y-34982880D01*
X86671880Y-35177465D01*
X86518995Y-35406273D01*
X86487000Y-35483515D01*
X86455005Y-35406273D01*
X86302120Y-35177465D01*
X86107535Y-34982880D01*
X85878727Y-34829995D01*
X85624490Y-34724686D01*
X85354592Y-34671000D01*
X85079408Y-34671000D01*
X84809510Y-34724686D01*
X84555273Y-34829995D01*
X84326465Y-34982880D01*
X84131880Y-35177465D01*
X83978995Y-35406273D01*
X83947000Y-35483515D01*
X83915005Y-35406273D01*
X83762120Y-35177465D01*
X83567535Y-34982880D01*
X83338727Y-34829995D01*
X83084490Y-34724686D01*
X82814592Y-34671000D01*
X82539408Y-34671000D01*
X82269510Y-34724686D01*
X82015273Y-34829995D01*
X81786465Y-34982880D01*
X81591880Y-35177465D01*
X81438995Y-35406273D01*
X81407000Y-35483515D01*
X81375005Y-35406273D01*
X81222120Y-35177465D01*
X81027535Y-34982880D01*
X80798727Y-34829995D01*
X80544490Y-34724686D01*
X80274592Y-34671000D01*
X79999408Y-34671000D01*
X79729510Y-34724686D01*
X79475273Y-34829995D01*
X79246465Y-34982880D01*
X79051880Y-35177465D01*
X78898995Y-35406273D01*
X78867000Y-35483515D01*
X78835005Y-35406273D01*
X78682120Y-35177465D01*
X78487535Y-34982880D01*
X78258727Y-34829995D01*
X78004490Y-34724686D01*
X77734592Y-34671000D01*
X77459408Y-34671000D01*
X77189510Y-34724686D01*
X76935273Y-34829995D01*
X76706465Y-34982880D01*
X76511880Y-35177465D01*
X76358995Y-35406273D01*
X76327000Y-35483515D01*
X76295005Y-35406273D01*
X76142120Y-35177465D01*
X75947535Y-34982880D01*
X75718727Y-34829995D01*
X75464490Y-34724686D01*
X75194592Y-34671000D01*
X74919408Y-34671000D01*
X74649510Y-34724686D01*
X74395273Y-34829995D01*
X74166465Y-34982880D01*
X73971880Y-35177465D01*
X73818995Y-35406273D01*
X73787000Y-35483515D01*
X73755005Y-35406273D01*
X73602120Y-35177465D01*
X73407535Y-34982880D01*
X73178727Y-34829995D01*
X72924490Y-34724686D01*
X72654592Y-34671000D01*
X72379408Y-34671000D01*
X72109510Y-34724686D01*
X71855273Y-34829995D01*
X71626465Y-34982880D01*
X71431880Y-35177465D01*
X71278995Y-35406273D01*
X71247000Y-35483515D01*
X71215005Y-35406273D01*
X71062120Y-35177465D01*
X70867535Y-34982880D01*
X70638727Y-34829995D01*
X70384490Y-34724686D01*
X70114592Y-34671000D01*
X69839408Y-34671000D01*
X69569510Y-34724686D01*
X69315273Y-34829995D01*
X69086465Y-34982880D01*
X68891880Y-35177465D01*
X68738995Y-35406273D01*
X68707000Y-35483515D01*
X68675005Y-35406273D01*
X68522120Y-35177465D01*
X68327535Y-34982880D01*
X68098727Y-34829995D01*
X67844490Y-34724686D01*
X67574592Y-34671000D01*
X67299408Y-34671000D01*
X67029510Y-34724686D01*
X66775273Y-34829995D01*
X66546465Y-34982880D01*
X66351880Y-35177465D01*
X66198995Y-35406273D01*
X66167000Y-35483515D01*
X66135005Y-35406273D01*
X65982120Y-35177465D01*
X65787535Y-34982880D01*
X65558727Y-34829995D01*
X65304490Y-34724686D01*
X65034592Y-34671000D01*
X64759408Y-34671000D01*
X64489510Y-34724686D01*
X64235273Y-34829995D01*
X64006465Y-34982880D01*
X63811880Y-35177465D01*
X63658995Y-35406273D01*
X63627000Y-35483515D01*
X63595005Y-35406273D01*
X63442120Y-35177465D01*
X63247535Y-34982880D01*
X63018727Y-34829995D01*
X62764490Y-34724686D01*
X62494592Y-34671000D01*
X62219408Y-34671000D01*
X61949510Y-34724686D01*
X61695273Y-34829995D01*
X61466465Y-34982880D01*
X61271880Y-35177465D01*
X61118995Y-35406273D01*
X61087000Y-35483515D01*
X61055005Y-35406273D01*
X60902120Y-35177465D01*
X60707535Y-34982880D01*
X60478727Y-34829995D01*
X60224490Y-34724686D01*
X59954592Y-34671000D01*
X59679408Y-34671000D01*
X59409510Y-34724686D01*
X59155273Y-34829995D01*
X58926465Y-34982880D01*
X58731880Y-35177465D01*
X58578995Y-35406273D01*
X58547000Y-35483515D01*
X58515005Y-35406273D01*
X58362120Y-35177465D01*
X58167535Y-34982880D01*
X57938727Y-34829995D01*
X57684490Y-34724686D01*
X57414592Y-34671000D01*
X57139408Y-34671000D01*
X56869510Y-34724686D01*
X56615273Y-34829995D01*
X56386465Y-34982880D01*
X56191880Y-35177465D01*
X56038995Y-35406273D01*
X56007000Y-35483515D01*
X55975005Y-35406273D01*
X55822120Y-35177465D01*
X55627535Y-34982880D01*
X55398727Y-34829995D01*
X55144490Y-34724686D01*
X54874592Y-34671000D01*
X54599408Y-34671000D01*
X54329510Y-34724686D01*
X54075273Y-34829995D01*
X53846465Y-34982880D01*
X53651880Y-35177465D01*
X53498995Y-35406273D01*
X53467000Y-35483515D01*
X53435005Y-35406273D01*
X53282120Y-35177465D01*
X53087535Y-34982880D01*
X52858727Y-34829995D01*
X52604490Y-34724686D01*
X52334592Y-34671000D01*
X52059408Y-34671000D01*
X51789510Y-34724686D01*
X51535273Y-34829995D01*
X51306465Y-34982880D01*
X51111880Y-35177465D01*
X50958995Y-35406273D01*
X50853686Y-35660510D01*
X50800000Y-35930408D01*
X50800000Y-36205592D01*
X50853686Y-36475490D01*
X50958995Y-36729727D01*
X51111880Y-36958535D01*
X51306465Y-37153120D01*
X51535273Y-37306005D01*
X51612515Y-37338000D01*
X51535273Y-37369995D01*
X51306465Y-37522880D01*
X51111880Y-37717465D01*
X50958995Y-37946273D01*
X50853686Y-38200510D01*
X50800000Y-38470408D01*
X50800000Y-38745592D01*
X50853686Y-39015490D01*
X50958995Y-39269727D01*
X51111880Y-39498535D01*
X51306465Y-39693120D01*
X51535273Y-39846005D01*
X51789510Y-39951314D01*
X52059408Y-40005000D01*
X52334592Y-40005000D01*
X52604490Y-39951314D01*
X52858727Y-39846005D01*
X53087535Y-39693120D01*
X53282120Y-39498535D01*
X53435005Y-39269727D01*
X53467000Y-39192485D01*
X53498995Y-39269727D01*
X53651880Y-39498535D01*
X53846465Y-39693120D01*
X54075273Y-39846005D01*
X54329510Y-39951314D01*
X54599408Y-40005000D01*
X54874592Y-40005000D01*
X55144490Y-39951314D01*
X55398727Y-39846005D01*
X55627535Y-39693120D01*
X55822120Y-39498535D01*
X55975005Y-39269727D01*
X56007000Y-39192485D01*
X56038995Y-39269727D01*
X56191880Y-39498535D01*
X56386465Y-39693120D01*
X56615273Y-39846005D01*
X56869510Y-39951314D01*
X57139408Y-40005000D01*
X57414592Y-40005000D01*
X57684490Y-39951314D01*
X57868399Y-39875136D01*
X57868400Y-42674864D01*
X57684490Y-42598686D01*
X57414592Y-42545000D01*
X57139408Y-42545000D01*
X56869510Y-42598686D01*
X56615273Y-42703995D01*
X56386465Y-42856880D01*
X56191880Y-43051465D01*
X56038995Y-43280273D01*
X56007000Y-43357515D01*
X55975005Y-43280273D01*
X55822120Y-43051465D01*
X55627535Y-42856880D01*
X55398727Y-42703995D01*
X55144490Y-42598686D01*
X54874592Y-42545000D01*
X54599408Y-42545000D01*
X54329510Y-42598686D01*
X54075273Y-42703995D01*
X53846465Y-42856880D01*
X53651880Y-43051465D01*
X53498995Y-43280273D01*
X53467000Y-43357515D01*
X53435005Y-43280273D01*
X53282120Y-43051465D01*
X53087535Y-42856880D01*
X52858727Y-42703995D01*
X52604490Y-42598686D01*
X52334592Y-42545000D01*
X52059408Y-42545000D01*
X51789510Y-42598686D01*
X51535273Y-42703995D01*
X51306465Y-42856880D01*
X51111880Y-43051465D01*
X50958995Y-43280273D01*
X50853686Y-43534510D01*
X50800000Y-43804408D01*
X50800000Y-44079592D01*
X50853686Y-44349490D01*
X50958995Y-44603727D01*
X51111880Y-44832535D01*
X51306465Y-45027120D01*
X51394465Y-45085920D01*
X51310518Y-45094188D01*
X51190820Y-45130498D01*
X51080506Y-45189463D01*
X50983815Y-45268815D01*
X50904463Y-45365506D01*
X50845498Y-45475820D01*
X50809188Y-45595518D01*
X50796928Y-45720000D01*
X43902072Y-45720000D01*
X43902072Y-44845999D01*
X43885008Y-44672745D01*
X43834472Y-44506149D01*
X43752405Y-44352613D01*
X43641962Y-44218038D01*
X43507387Y-44107595D01*
X43398686Y-44049493D01*
X43554536Y-43896494D01*
X43721571Y-43651437D01*
X43837588Y-43378502D01*
X43855302Y-43286031D01*
X43734246Y-43053000D01*
X42291000Y-43053000D01*
X42291000Y-43073000D01*
X42037000Y-43073000D01*
X42037000Y-43053000D01*
X40593754Y-43053000D01*
X40472698Y-43286031D01*
X40490412Y-43378502D01*
X40606429Y-43651437D01*
X40773464Y-43896494D01*
X40929314Y-44049493D01*
X40820613Y-44107595D01*
X40686038Y-44218038D01*
X40575595Y-44352613D01*
X40493528Y-44506149D01*
X40442992Y-44672745D01*
X40425928Y-44845999D01*
X38760000Y-44845999D01*
X38760000Y-40746031D01*
X40472698Y-40746031D01*
X40490412Y-40838502D01*
X40606429Y-41111437D01*
X40773464Y-41356494D01*
X40985097Y-41564256D01*
X41125184Y-41656000D01*
X40985097Y-41747744D01*
X40773464Y-41955506D01*
X40606429Y-42200563D01*
X40490412Y-42473498D01*
X40472698Y-42565969D01*
X40593754Y-42799000D01*
X42037000Y-42799000D01*
X42037000Y-40513000D01*
X42291000Y-40513000D01*
X42291000Y-42799000D01*
X43734246Y-42799000D01*
X43855302Y-42565969D01*
X43837588Y-42473498D01*
X43721571Y-42200563D01*
X43554536Y-41955506D01*
X43342903Y-41747744D01*
X43202816Y-41656000D01*
X43342903Y-41564256D01*
X43554536Y-41356494D01*
X43721571Y-41111437D01*
X43837588Y-40838502D01*
X43855302Y-40746031D01*
X43734246Y-40513000D01*
X42291000Y-40513000D01*
X42037000Y-40513000D01*
X40593754Y-40513000D01*
X40472698Y-40746031D01*
X38760000Y-40746031D01*
X38760000Y-37846000D01*
X40421718Y-37846000D01*
X40450776Y-38141032D01*
X40536834Y-38424725D01*
X40676583Y-38686179D01*
X40864655Y-38915345D01*
X41093821Y-39103417D01*
X41121669Y-39118302D01*
X40985097Y-39207744D01*
X40773464Y-39415506D01*
X40606429Y-39660563D01*
X40490412Y-39933498D01*
X40472698Y-40025969D01*
X40593754Y-40259000D01*
X42037000Y-40259000D01*
X42037000Y-40239000D01*
X42291000Y-40239000D01*
X42291000Y-40259000D01*
X43734246Y-40259000D01*
X43855302Y-40025969D01*
X43837588Y-39933498D01*
X43721571Y-39660563D01*
X43554536Y-39415506D01*
X43342903Y-39207744D01*
X43206331Y-39118302D01*
X43234179Y-39103417D01*
X43463345Y-38915345D01*
X43651417Y-38686179D01*
X43791166Y-38424725D01*
X43877224Y-38141032D01*
X43906282Y-37846000D01*
X43877224Y-37550968D01*
X43791166Y-37267275D01*
X43651417Y-37005821D01*
X43463345Y-36776655D01*
X43234179Y-36588583D01*
X42972725Y-36448834D01*
X42689032Y-36362776D01*
X42467936Y-36341000D01*
X41860064Y-36341000D01*
X41638968Y-36362776D01*
X41355275Y-36448834D01*
X41093821Y-36588583D01*
X40864655Y-36776655D01*
X40676583Y-37005821D01*
X40536834Y-37267275D01*
X40450776Y-37550968D01*
X40421718Y-37846000D01*
X38760000Y-37846000D01*
X38760000Y-32918000D01*
X97892000Y-32918000D01*
X97892001Y-49124000D01*
G37*
X97892001Y-49124000D02*
X38760000Y-49124000D01*
X38760000Y-47244000D01*
X50796928Y-47244000D01*
X50809188Y-47368482D01*
X50845498Y-47488180D01*
X50904463Y-47598494D01*
X50983815Y-47695185D01*
X51080506Y-47774537D01*
X51190820Y-47833502D01*
X51310518Y-47869812D01*
X51435000Y-47882072D01*
X51911250Y-47879000D01*
X52070000Y-47720250D01*
X52070000Y-46609000D01*
X50958750Y-46609000D01*
X50800000Y-46767750D01*
X50796928Y-47244000D01*
X38760000Y-47244000D01*
X38760000Y-44845999D01*
X40425928Y-44845999D01*
X40425928Y-46086001D01*
X40442992Y-46259255D01*
X40493528Y-46425851D01*
X40575595Y-46579387D01*
X40686038Y-46713962D01*
X40820613Y-46824405D01*
X40974149Y-46906472D01*
X41140745Y-46957008D01*
X41313999Y-46974072D01*
X43014001Y-46974072D01*
X43187255Y-46957008D01*
X43353851Y-46906472D01*
X43507387Y-46824405D01*
X43641962Y-46713962D01*
X43752405Y-46579387D01*
X43834472Y-46425851D01*
X43885008Y-46259255D01*
X43902072Y-46086001D01*
X43902072Y-45720000D01*
X50796928Y-45720000D01*
X50800000Y-46196250D01*
X50958750Y-46355000D01*
X52070000Y-46355000D01*
X52070000Y-46335000D01*
X52324000Y-46335000D01*
X52324000Y-46355000D01*
X52344000Y-46355000D01*
X52344000Y-46609000D01*
X52324000Y-46609000D01*
X52324000Y-47720250D01*
X52482750Y-47879000D01*
X52959000Y-47882072D01*
X53083482Y-47869812D01*
X53203180Y-47833502D01*
X53313494Y-47774537D01*
X53410185Y-47695185D01*
X53489537Y-47598494D01*
X53548502Y-47488180D01*
X53560822Y-47447565D01*
X53951040Y-47447565D01*
X54018020Y-47687656D01*
X54267048Y-47804756D01*
X54534135Y-47871023D01*
X54809017Y-47883910D01*
X55081133Y-47842922D01*
X55340023Y-47749636D01*
X55455980Y-47687656D01*
X55522960Y-47447565D01*
X56491040Y-47447565D01*
X56558020Y-47687656D01*
X56807048Y-47804756D01*
X57074135Y-47871023D01*
X57349017Y-47883910D01*
X57621133Y-47842922D01*
X57880023Y-47749636D01*
X57995980Y-47687656D01*
X58062960Y-47447565D01*
X59031040Y-47447565D01*
X59098020Y-47687656D01*
X59347048Y-47804756D01*
X59614135Y-47871023D01*
X59889017Y-47883910D01*
X60161133Y-47842922D01*
X60420023Y-47749636D01*
X60535980Y-47687656D01*
X60602960Y-47447565D01*
X61571040Y-47447565D01*
X61638020Y-47687656D01*
X61887048Y-47804756D01*
X62154135Y-47871023D01*
X62429017Y-47883910D01*
X62701133Y-47842922D01*
X62960023Y-47749636D01*
X63075980Y-47687656D01*
X63142960Y-47447565D01*
X64111040Y-47447565D01*
X64178020Y-47687656D01*
X64427048Y-47804756D01*
X64694135Y-47871023D01*
X64969017Y-47883910D01*
X65241133Y-47842922D01*
X65500023Y-47749636D01*
X65615980Y-47687656D01*
X65682960Y-47447565D01*
X66651040Y-47447565D01*
X66718020Y-47687656D01*
X66967048Y-47804756D01*
X67234135Y-47871023D01*
X67509017Y-47883910D01*
X67781133Y-47842922D01*
X68040023Y-47749636D01*
X68155980Y-47687656D01*
X68222960Y-47447565D01*
X69191040Y-47447565D01*
X69258020Y-47687656D01*
X69507048Y-47804756D01*
X69774135Y-47871023D01*
X70049017Y-47883910D01*
X70321133Y-47842922D01*
X70580023Y-47749636D01*
X70695980Y-47687656D01*
X70762960Y-47447565D01*
X71731040Y-47447565D01*
X71798020Y-47687656D01*
X72047048Y-47804756D01*
X72314135Y-47871023D01*
X72589017Y-47883910D01*
X72861133Y-47842922D01*
X73120023Y-47749636D01*
X73235980Y-47687656D01*
X73302960Y-47447565D01*
X74271040Y-47447565D01*
X74338020Y-47687656D01*
X74587048Y-47804756D01*
X74854135Y-47871023D01*
X75129017Y-47883910D01*
X75401133Y-47842922D01*
X75660023Y-47749636D01*
X75775980Y-47687656D01*
X75842960Y-47447565D01*
X76811040Y-47447565D01*
X76878020Y-47687656D01*
X77127048Y-47804756D01*
X77394135Y-47871023D01*
X77669017Y-47883910D01*
X77941133Y-47842922D01*
X78200023Y-47749636D01*
X78315980Y-47687656D01*
X78382960Y-47447565D01*
X79351040Y-47447565D01*
X79418020Y-47687656D01*
X79667048Y-47804756D01*
X79934135Y-47871023D01*
X80209017Y-47883910D01*
X80481133Y-47842922D01*
X80740023Y-47749636D01*
X80855980Y-47687656D01*
X80922960Y-47447565D01*
X81891040Y-47447565D01*
X81958020Y-47687656D01*
X82207048Y-47804756D01*
X82474135Y-47871023D01*
X82749017Y-47883910D01*
X83021133Y-47842922D01*
X83280023Y-47749636D01*
X83395980Y-47687656D01*
X83462960Y-47447565D01*
X84431040Y-47447565D01*
X84498020Y-47687656D01*
X84747048Y-47804756D01*
X85014135Y-47871023D01*
X85289017Y-47883910D01*
X85561133Y-47842922D01*
X85820023Y-47749636D01*
X85935980Y-47687656D01*
X86002960Y-47447565D01*
X86971040Y-47447565D01*
X87038020Y-47687656D01*
X87287048Y-47804756D01*
X87554135Y-47871023D01*
X87829017Y-47883910D01*
X88101133Y-47842922D01*
X88360023Y-47749636D01*
X88475980Y-47687656D01*
X88542960Y-47447565D01*
X89511040Y-47447565D01*
X89578020Y-47687656D01*
X89827048Y-47804756D01*
X90094135Y-47871023D01*
X90369017Y-47883910D01*
X90641133Y-47842922D01*
X90900023Y-47749636D01*
X91015980Y-47687656D01*
X91082960Y-47447565D01*
X92051040Y-47447565D01*
X92118020Y-47687656D01*
X92367048Y-47804756D01*
X92634135Y-47871023D01*
X92909017Y-47883910D01*
X93181133Y-47842922D01*
X93440023Y-47749636D01*
X93555980Y-47687656D01*
X93622960Y-47447565D01*
X92837000Y-46661605D01*
X92051040Y-47447565D01*
X91082960Y-47447565D01*
X90297000Y-46661605D01*
X89511040Y-47447565D01*
X88542960Y-47447565D01*
X87757000Y-46661605D01*
X86971040Y-47447565D01*
X86002960Y-47447565D01*
X85217000Y-46661605D01*
X84431040Y-47447565D01*
X83462960Y-47447565D01*
X82677000Y-46661605D01*
X81891040Y-47447565D01*
X80922960Y-47447565D01*
X80137000Y-46661605D01*
X79351040Y-47447565D01*
X78382960Y-47447565D01*
X77597000Y-46661605D01*
X76811040Y-47447565D01*
X75842960Y-47447565D01*
X75057000Y-46661605D01*
X74271040Y-47447565D01*
X73302960Y-47447565D01*
X72517000Y-46661605D01*
X71731040Y-47447565D01*
X70762960Y-47447565D01*
X69977000Y-46661605D01*
X69191040Y-47447565D01*
X68222960Y-47447565D01*
X67437000Y-46661605D01*
X66651040Y-47447565D01*
X65682960Y-47447565D01*
X64897000Y-46661605D01*
X64111040Y-47447565D01*
X63142960Y-47447565D01*
X62357000Y-46661605D01*
X61571040Y-47447565D01*
X60602960Y-47447565D01*
X59817000Y-46661605D01*
X59031040Y-47447565D01*
X58062960Y-47447565D01*
X57277000Y-46661605D01*
X56491040Y-47447565D01*
X55522960Y-47447565D01*
X54737000Y-46661605D01*
X53951040Y-47447565D01*
X53560822Y-47447565D01*
X53584812Y-47368482D01*
X53597072Y-47244000D01*
X53596912Y-47219272D01*
X53771435Y-47267960D01*
X54557395Y-46482000D01*
X54916605Y-46482000D01*
X55702565Y-47267960D01*
X55942656Y-47200980D01*
X56004079Y-47070356D01*
X56009364Y-47085023D01*
X56071344Y-47200980D01*
X56311435Y-47267960D01*
X57097395Y-46482000D01*
X57456605Y-46482000D01*
X58242565Y-47267960D01*
X58482656Y-47200980D01*
X58544079Y-47070356D01*
X58549364Y-47085023D01*
X58611344Y-47200980D01*
X58851435Y-47267960D01*
X59637395Y-46482000D01*
X59996605Y-46482000D01*
X60782565Y-47267960D01*
X61022656Y-47200980D01*
X61084079Y-47070356D01*
X61089364Y-47085023D01*
X61151344Y-47200980D01*
X61391435Y-47267960D01*
X62177395Y-46482000D01*
X62536605Y-46482000D01*
X63322565Y-47267960D01*
X63562656Y-47200980D01*
X63624079Y-47070356D01*
X63629364Y-47085023D01*
X63691344Y-47200980D01*
X63931435Y-47267960D01*
X64717395Y-46482000D01*
X65076605Y-46482000D01*
X65862565Y-47267960D01*
X66102656Y-47200980D01*
X66164079Y-47070356D01*
X66169364Y-47085023D01*
X66231344Y-47200980D01*
X66471435Y-47267960D01*
X67257395Y-46482000D01*
X67616605Y-46482000D01*
X68402565Y-47267960D01*
X68642656Y-47200980D01*
X68704079Y-47070356D01*
X68709364Y-47085023D01*
X68771344Y-47200980D01*
X69011435Y-47267960D01*
X69797395Y-46482000D01*
X70156605Y-46482000D01*
X70942565Y-47267960D01*
X71182656Y-47200980D01*
X71244079Y-47070356D01*
X71249364Y-47085023D01*
X71311344Y-47200980D01*
X71551435Y-47267960D01*
X72337395Y-46482000D01*
X72696605Y-46482000D01*
X73482565Y-47267960D01*
X73722656Y-47200980D01*
X73784079Y-47070356D01*
X73789364Y-47085023D01*
X73851344Y-47200980D01*
X74091435Y-47267960D01*
X74877395Y-46482000D01*
X75236605Y-46482000D01*
X76022565Y-47267960D01*
X76262656Y-47200980D01*
X76324079Y-47070356D01*
X76329364Y-47085023D01*
X76391344Y-47200980D01*
X76631435Y-47267960D01*
X77417395Y-46482000D01*
X77776605Y-46482000D01*
X78562565Y-47267960D01*
X78802656Y-47200980D01*
X78864079Y-47070356D01*
X78869364Y-47085023D01*
X78931344Y-47200980D01*
X79171435Y-47267960D01*
X79957395Y-46482000D01*
X80316605Y-46482000D01*
X81102565Y-47267960D01*
X81342656Y-47200980D01*
X81404079Y-47070356D01*
X81409364Y-47085023D01*
X81471344Y-47200980D01*
X81711435Y-47267960D01*
X82497395Y-46482000D01*
X82856605Y-46482000D01*
X83642565Y-47267960D01*
X83882656Y-47200980D01*
X83944079Y-47070356D01*
X83949364Y-47085023D01*
X84011344Y-47200980D01*
X84251435Y-47267960D01*
X85037395Y-46482000D01*
X85396605Y-46482000D01*
X86182565Y-47267960D01*
X86422656Y-47200980D01*
X86484079Y-47070356D01*
X86489364Y-47085023D01*
X86551344Y-47200980D01*
X86791435Y-47267960D01*
X87577395Y-46482000D01*
X87936605Y-46482000D01*
X88722565Y-47267960D01*
X88962656Y-47200980D01*
X89024079Y-47070356D01*
X89029364Y-47085023D01*
X89091344Y-47200980D01*
X89331435Y-47267960D01*
X90117395Y-46482000D01*
X90476605Y-46482000D01*
X91262565Y-47267960D01*
X91502656Y-47200980D01*
X91564079Y-47070356D01*
X91569364Y-47085023D01*
X91631344Y-47200980D01*
X91871435Y-47267960D01*
X92657395Y-46482000D01*
X93016605Y-46482000D01*
X93802565Y-47267960D01*
X94042656Y-47200980D01*
X94159756Y-46951952D01*
X94226023Y-46684865D01*
X94238910Y-46409983D01*
X94197922Y-46137867D01*
X94104636Y-45878977D01*
X94042656Y-45763020D01*
X93802565Y-45696040D01*
X93016605Y-46482000D01*
X92657395Y-46482000D01*
X91871435Y-45696040D01*
X91631344Y-45763020D01*
X91569921Y-45893644D01*
X91564636Y-45878977D01*
X91502656Y-45763020D01*
X91262565Y-45696040D01*
X90476605Y-46482000D01*
X90117395Y-46482000D01*
X89331435Y-45696040D01*
X89091344Y-45763020D01*
X89029921Y-45893644D01*
X89024636Y-45878977D01*
X88962656Y-45763020D01*
X88722565Y-45696040D01*
X87936605Y-46482000D01*
X87577395Y-46482000D01*
X86791435Y-45696040D01*
X86551344Y-45763020D01*
X86489921Y-45893644D01*
X86484636Y-45878977D01*
X86422656Y-45763020D01*
X86182565Y-45696040D01*
X85396605Y-46482000D01*
X85037395Y-46482000D01*
X84251435Y-45696040D01*
X84011344Y-45763020D01*
X83949921Y-45893644D01*
X83944636Y-45878977D01*
X83882656Y-45763020D01*
X83642565Y-45696040D01*
X82856605Y-46482000D01*
X82497395Y-46482000D01*
X81711435Y-45696040D01*
X81471344Y-45763020D01*
X81409921Y-45893644D01*
X81404636Y-45878977D01*
X81342656Y-45763020D01*
X81102565Y-45696040D01*
X80316605Y-46482000D01*
X79957395Y-46482000D01*
X79171435Y-45696040D01*
X78931344Y-45763020D01*
X78869921Y-45893644D01*
X78864636Y-45878977D01*
X78802656Y-45763020D01*
X78562565Y-45696040D01*
X77776605Y-46482000D01*
X77417395Y-46482000D01*
X76631435Y-45696040D01*
X76391344Y-45763020D01*
X76329921Y-45893644D01*
X76324636Y-45878977D01*
X76262656Y-45763020D01*
X76022565Y-45696040D01*
X75236605Y-46482000D01*
X74877395Y-46482000D01*
X74091435Y-45696040D01*
X73851344Y-45763020D01*
X73789921Y-45893644D01*
X73784636Y-45878977D01*
X73722656Y-45763020D01*
X73482565Y-45696040D01*
X72696605Y-46482000D01*
X72337395Y-46482000D01*
X71551435Y-45696040D01*
X71311344Y-45763020D01*
X71249921Y-45893644D01*
X71244636Y-45878977D01*
X71182656Y-45763020D01*
X70942565Y-45696040D01*
X70156605Y-46482000D01*
X69797395Y-46482000D01*
X69011435Y-45696040D01*
X68771344Y-45763020D01*
X68709921Y-45893644D01*
X68704636Y-45878977D01*
X68642656Y-45763020D01*
X68402565Y-45696040D01*
X67616605Y-46482000D01*
X67257395Y-46482000D01*
X66471435Y-45696040D01*
X66231344Y-45763020D01*
X66169921Y-45893644D01*
X66164636Y-45878977D01*
X66102656Y-45763020D01*
X65862565Y-45696040D01*
X65076605Y-46482000D01*
X64717395Y-46482000D01*
X63931435Y-45696040D01*
X63691344Y-45763020D01*
X63629921Y-45893644D01*
X63624636Y-45878977D01*
X63562656Y-45763020D01*
X63322565Y-45696040D01*
X62536605Y-46482000D01*
X62177395Y-46482000D01*
X61391435Y-45696040D01*
X61151344Y-45763020D01*
X61089921Y-45893644D01*
X61084636Y-45878977D01*
X61022656Y-45763020D01*
X60782565Y-45696040D01*
X59996605Y-46482000D01*
X59637395Y-46482000D01*
X58851435Y-45696040D01*
X58611344Y-45763020D01*
X58549921Y-45893644D01*
X58544636Y-45878977D01*
X58482656Y-45763020D01*
X58242565Y-45696040D01*
X57456605Y-46482000D01*
X57097395Y-46482000D01*
X56311435Y-45696040D01*
X56071344Y-45763020D01*
X56009921Y-45893644D01*
X56004636Y-45878977D01*
X55942656Y-45763020D01*
X55702565Y-45696040D01*
X54916605Y-46482000D01*
X54557395Y-46482000D01*
X53771435Y-45696040D01*
X53596912Y-45744728D01*
X53597072Y-45720000D01*
X53584812Y-45595518D01*
X53548502Y-45475820D01*
X53489537Y-45365506D01*
X53410185Y-45268815D01*
X53313494Y-45189463D01*
X53203180Y-45130498D01*
X53083482Y-45094188D01*
X52999535Y-45085920D01*
X53087535Y-45027120D01*
X53282120Y-44832535D01*
X53435005Y-44603727D01*
X53467000Y-44526485D01*
X53498995Y-44603727D01*
X53651880Y-44832535D01*
X53846465Y-45027120D01*
X54075273Y-45180005D01*
X54146943Y-45209692D01*
X54133977Y-45214364D01*
X54018020Y-45276344D01*
X53951040Y-45516435D01*
X54737000Y-46302395D01*
X55522960Y-45516435D01*
X55455980Y-45276344D01*
X55320240Y-45212515D01*
X55398727Y-45180005D01*
X55627535Y-45027120D01*
X55822120Y-44832535D01*
X55975005Y-44603727D01*
X56007000Y-44526485D01*
X56038995Y-44603727D01*
X56191880Y-44832535D01*
X56386465Y-45027120D01*
X56615273Y-45180005D01*
X56686943Y-45209692D01*
X56673977Y-45214364D01*
X56558020Y-45276344D01*
X56491040Y-45516435D01*
X57277000Y-46302395D01*
X58062960Y-45516435D01*
X57995980Y-45276344D01*
X57860240Y-45212515D01*
X57938727Y-45180005D01*
X58167535Y-45027120D01*
X58362120Y-44832535D01*
X58515005Y-44603727D01*
X58547000Y-44526485D01*
X58578995Y-44603727D01*
X58731880Y-44832535D01*
X58926465Y-45027120D01*
X59155273Y-45180005D01*
X59226943Y-45209692D01*
X59213977Y-45214364D01*
X59098020Y-45276344D01*
X59031040Y-45516435D01*
X59817000Y-46302395D01*
X60602960Y-45516435D01*
X60535980Y-45276344D01*
X60400240Y-45212515D01*
X60478727Y-45180005D01*
X60707535Y-45027120D01*
X60902120Y-44832535D01*
X61055005Y-44603727D01*
X61087000Y-44526485D01*
X61118995Y-44603727D01*
X61271880Y-44832535D01*
X61466465Y-45027120D01*
X61695273Y-45180005D01*
X61766943Y-45209692D01*
X61753977Y-45214364D01*
X61638020Y-45276344D01*
X61571040Y-45516435D01*
X62357000Y-46302395D01*
X63142960Y-45516435D01*
X63075980Y-45276344D01*
X62940240Y-45212515D01*
X63018727Y-45180005D01*
X63247535Y-45027120D01*
X63442120Y-44832535D01*
X63595005Y-44603727D01*
X63627000Y-44526485D01*
X63658995Y-44603727D01*
X63811880Y-44832535D01*
X64006465Y-45027120D01*
X64235273Y-45180005D01*
X64306943Y-45209692D01*
X64293977Y-45214364D01*
X64178020Y-45276344D01*
X64111040Y-45516435D01*
X64897000Y-46302395D01*
X65682960Y-45516435D01*
X65615980Y-45276344D01*
X65480240Y-45212515D01*
X65558727Y-45180005D01*
X65787535Y-45027120D01*
X65982120Y-44832535D01*
X66135005Y-44603727D01*
X66167000Y-44526485D01*
X66198995Y-44603727D01*
X66351880Y-44832535D01*
X66546465Y-45027120D01*
X66775273Y-45180005D01*
X66846943Y-45209692D01*
X66833977Y-45214364D01*
X66718020Y-45276344D01*
X66651040Y-45516435D01*
X67437000Y-46302395D01*
X68222960Y-45516435D01*
X68155980Y-45276344D01*
X68020240Y-45212515D01*
X68098727Y-45180005D01*
X68327535Y-45027120D01*
X68522120Y-44832535D01*
X68675005Y-44603727D01*
X68707000Y-44526485D01*
X68738995Y-44603727D01*
X68891880Y-44832535D01*
X69086465Y-45027120D01*
X69315273Y-45180005D01*
X69386943Y-45209692D01*
X69373977Y-45214364D01*
X69258020Y-45276344D01*
X69191040Y-45516435D01*
X69977000Y-46302395D01*
X70762960Y-45516435D01*
X70695980Y-45276344D01*
X70560240Y-45212515D01*
X70638727Y-45180005D01*
X70867535Y-45027120D01*
X71062120Y-44832535D01*
X71215005Y-44603727D01*
X71247000Y-44526485D01*
X71278995Y-44603727D01*
X71431880Y-44832535D01*
X71626465Y-45027120D01*
X71855273Y-45180005D01*
X71926943Y-45209692D01*
X71913977Y-45214364D01*
X71798020Y-45276344D01*
X71731040Y-45516435D01*
X72517000Y-46302395D01*
X73302960Y-45516435D01*
X73235980Y-45276344D01*
X73100240Y-45212515D01*
X73178727Y-45180005D01*
X73407535Y-45027120D01*
X73602120Y-44832535D01*
X73755005Y-44603727D01*
X73787000Y-44526485D01*
X73818995Y-44603727D01*
X73971880Y-44832535D01*
X74166465Y-45027120D01*
X74395273Y-45180005D01*
X74466943Y-45209692D01*
X74453977Y-45214364D01*
X74338020Y-45276344D01*
X74271040Y-45516435D01*
X75057000Y-46302395D01*
X75842960Y-45516435D01*
X75775980Y-45276344D01*
X75640240Y-45212515D01*
X75718727Y-45180005D01*
X75947535Y-45027120D01*
X76142120Y-44832535D01*
X76295005Y-44603727D01*
X76327000Y-44526485D01*
X76358995Y-44603727D01*
X76511880Y-44832535D01*
X76706465Y-45027120D01*
X76935273Y-45180005D01*
X77006943Y-45209692D01*
X76993977Y-45214364D01*
X76878020Y-45276344D01*
X76811040Y-45516435D01*
X77597000Y-46302395D01*
X78382960Y-45516435D01*
X78315980Y-45276344D01*
X78180240Y-45212515D01*
X78258727Y-45180005D01*
X78487535Y-45027120D01*
X78682120Y-44832535D01*
X78835005Y-44603727D01*
X78867000Y-44526485D01*
X78898995Y-44603727D01*
X79051880Y-44832535D01*
X79246465Y-45027120D01*
X79475273Y-45180005D01*
X79546943Y-45209692D01*
X79533977Y-45214364D01*
X79418020Y-45276344D01*
X79351040Y-45516435D01*
X80137000Y-46302395D01*
X80922960Y-45516435D01*
X80855980Y-45276344D01*
X80720240Y-45212515D01*
X80798727Y-45180005D01*
X81027535Y-45027120D01*
X81222120Y-44832535D01*
X81375005Y-44603727D01*
X81407000Y-44526485D01*
X81438995Y-44603727D01*
X81591880Y-44832535D01*
X81786465Y-45027120D01*
X82015273Y-45180005D01*
X82086943Y-45209692D01*
X82073977Y-45214364D01*
X81958020Y-45276344D01*
X81891040Y-45516435D01*
X82677000Y-46302395D01*
X83462960Y-45516435D01*
X83395980Y-45276344D01*
X83260240Y-45212515D01*
X83338727Y-45180005D01*
X83567535Y-45027120D01*
X83762120Y-44832535D01*
X83915005Y-44603727D01*
X83947000Y-44526485D01*
X83978995Y-44603727D01*
X84131880Y-44832535D01*
X84326465Y-45027120D01*
X84555273Y-45180005D01*
X84626943Y-45209692D01*
X84613977Y-45214364D01*
X84498020Y-45276344D01*
X84431040Y-45516435D01*
X85217000Y-46302395D01*
X86002960Y-45516435D01*
X85935980Y-45276344D01*
X85800240Y-45212515D01*
X85878727Y-45180005D01*
X86107535Y-45027120D01*
X86302120Y-44832535D01*
X86455005Y-44603727D01*
X86487000Y-44526485D01*
X86518995Y-44603727D01*
X86671880Y-44832535D01*
X86866465Y-45027120D01*
X87095273Y-45180005D01*
X87166943Y-45209692D01*
X87153977Y-45214364D01*
X87038020Y-45276344D01*
X86971040Y-45516435D01*
X87757000Y-46302395D01*
X88542960Y-45516435D01*
X88475980Y-45276344D01*
X88340240Y-45212515D01*
X88418727Y-45180005D01*
X88647535Y-45027120D01*
X88842120Y-44832535D01*
X88995005Y-44603727D01*
X89027000Y-44526485D01*
X89058995Y-44603727D01*
X89211880Y-44832535D01*
X89406465Y-45027120D01*
X89635273Y-45180005D01*
X89706943Y-45209692D01*
X89693977Y-45214364D01*
X89578020Y-45276344D01*
X89511040Y-45516435D01*
X90297000Y-46302395D01*
X91082960Y-45516435D01*
X91015980Y-45276344D01*
X90880240Y-45212515D01*
X90958727Y-45180005D01*
X91187535Y-45027120D01*
X91382120Y-44832535D01*
X91535005Y-44603727D01*
X91567000Y-44526485D01*
X91598995Y-44603727D01*
X91751880Y-44832535D01*
X91946465Y-45027120D01*
X92175273Y-45180005D01*
X92246943Y-45209692D01*
X92233977Y-45214364D01*
X92118020Y-45276344D01*
X92051040Y-45516435D01*
X92837000Y-46302395D01*
X93622960Y-45516435D01*
X93555980Y-45276344D01*
X93420240Y-45212515D01*
X93498727Y-45180005D01*
X93727535Y-45027120D01*
X93922120Y-44832535D01*
X94075005Y-44603727D01*
X94180314Y-44349490D01*
X94234000Y-44079592D01*
X94234000Y-43804408D01*
X94180314Y-43534510D01*
X94075005Y-43280273D01*
X93922120Y-43051465D01*
X93727535Y-42856880D01*
X93498727Y-42703995D01*
X93244490Y-42598686D01*
X92974592Y-42545000D01*
X92699408Y-42545000D01*
X92545429Y-42575628D01*
X92327000Y-42357199D01*
X92327000Y-39908853D01*
X92429510Y-39951314D01*
X92699408Y-40005000D01*
X92974592Y-40005000D01*
X93244490Y-39951314D01*
X93498727Y-39846005D01*
X93727535Y-39693120D01*
X93922120Y-39498535D01*
X94075005Y-39269727D01*
X94180314Y-39015490D01*
X94234000Y-38745592D01*
X94234000Y-38470408D01*
X94180314Y-38200510D01*
X94075005Y-37946273D01*
X93922120Y-37717465D01*
X93727535Y-37522880D01*
X93639535Y-37464080D01*
X93723482Y-37455812D01*
X93843180Y-37419502D01*
X93953494Y-37360537D01*
X94050185Y-37281185D01*
X94129537Y-37184494D01*
X94188502Y-37074180D01*
X94224812Y-36954482D01*
X94237072Y-36830000D01*
X94237072Y-35306000D01*
X94224812Y-35181518D01*
X94188502Y-35061820D01*
X94129537Y-34951506D01*
X94050185Y-34854815D01*
X93953494Y-34775463D01*
X93843180Y-34716498D01*
X93723482Y-34680188D01*
X93599000Y-34667928D01*
X92075000Y-34667928D01*
X91950518Y-34680188D01*
X91830820Y-34716498D01*
X91720506Y-34775463D01*
X91623815Y-34854815D01*
X91544463Y-34951506D01*
X91485498Y-35061820D01*
X91449188Y-35181518D01*
X91440920Y-35265465D01*
X91382120Y-35177465D01*
X91187535Y-34982880D01*
X90958727Y-34829995D01*
X90704490Y-34724686D01*
X90434592Y-34671000D01*
X90159408Y-34671000D01*
X89889510Y-34724686D01*
X89635273Y-34829995D01*
X89406465Y-34982880D01*
X89211880Y-35177465D01*
X89058995Y-35406273D01*
X89027000Y-35483515D01*
X88995005Y-35406273D01*
X88842120Y-35177465D01*
X88647535Y-34982880D01*
X88418727Y-34829995D01*
X88164490Y-34724686D01*
X87894592Y-34671000D01*
X87619408Y-34671000D01*
X87349510Y-34724686D01*
X87095273Y-34829995D01*
X86866465Y-34982880D01*
X86671880Y-35177465D01*
X86518995Y-35406273D01*
X86487000Y-35483515D01*
X86455005Y-35406273D01*
X86302120Y-35177465D01*
X86107535Y-34982880D01*
X85878727Y-34829995D01*
X85624490Y-34724686D01*
X85354592Y-34671000D01*
X85079408Y-34671000D01*
X84809510Y-34724686D01*
X84555273Y-34829995D01*
X84326465Y-34982880D01*
X84131880Y-35177465D01*
X83978995Y-35406273D01*
X83947000Y-35483515D01*
X83915005Y-35406273D01*
X83762120Y-35177465D01*
X83567535Y-34982880D01*
X83338727Y-34829995D01*
X83084490Y-34724686D01*
X82814592Y-34671000D01*
X82539408Y-34671000D01*
X82269510Y-34724686D01*
X82015273Y-34829995D01*
X81786465Y-34982880D01*
X81591880Y-35177465D01*
X81438995Y-35406273D01*
X81407000Y-35483515D01*
X81375005Y-35406273D01*
X81222120Y-35177465D01*
X81027535Y-34982880D01*
X80798727Y-34829995D01*
X80544490Y-34724686D01*
X80274592Y-34671000D01*
X79999408Y-34671000D01*
X79729510Y-34724686D01*
X79475273Y-34829995D01*
X79246465Y-34982880D01*
X79051880Y-35177465D01*
X78898995Y-35406273D01*
X78867000Y-35483515D01*
X78835005Y-35406273D01*
X78682120Y-35177465D01*
X78487535Y-34982880D01*
X78258727Y-34829995D01*
X78004490Y-34724686D01*
X77734592Y-34671000D01*
X77459408Y-34671000D01*
X77189510Y-34724686D01*
X76935273Y-34829995D01*
X76706465Y-34982880D01*
X76511880Y-35177465D01*
X76358995Y-35406273D01*
X76327000Y-35483515D01*
X76295005Y-35406273D01*
X76142120Y-35177465D01*
X75947535Y-34982880D01*
X75718727Y-34829995D01*
X75464490Y-34724686D01*
X75194592Y-34671000D01*
X74919408Y-34671000D01*
X74649510Y-34724686D01*
X74395273Y-34829995D01*
X74166465Y-34982880D01*
X73971880Y-35177465D01*
X73818995Y-35406273D01*
X73787000Y-35483515D01*
X73755005Y-35406273D01*
X73602120Y-35177465D01*
X73407535Y-34982880D01*
X73178727Y-34829995D01*
X72924490Y-34724686D01*
X72654592Y-34671000D01*
X72379408Y-34671000D01*
X72109510Y-34724686D01*
X71855273Y-34829995D01*
X71626465Y-34982880D01*
X71431880Y-35177465D01*
X71278995Y-35406273D01*
X71247000Y-35483515D01*
X71215005Y-35406273D01*
X71062120Y-35177465D01*
X70867535Y-34982880D01*
X70638727Y-34829995D01*
X70384490Y-34724686D01*
X70114592Y-34671000D01*
X69839408Y-34671000D01*
X69569510Y-34724686D01*
X69315273Y-34829995D01*
X69086465Y-34982880D01*
X68891880Y-35177465D01*
X68738995Y-35406273D01*
X68707000Y-35483515D01*
X68675005Y-35406273D01*
X68522120Y-35177465D01*
X68327535Y-34982880D01*
X68098727Y-34829995D01*
X67844490Y-34724686D01*
X67574592Y-34671000D01*
X67299408Y-34671000D01*
X67029510Y-34724686D01*
X66775273Y-34829995D01*
X66546465Y-34982880D01*
X66351880Y-35177465D01*
X66198995Y-35406273D01*
X66167000Y-35483515D01*
X66135005Y-35406273D01*
X65982120Y-35177465D01*
X65787535Y-34982880D01*
X65558727Y-34829995D01*
X65304490Y-34724686D01*
X65034592Y-34671000D01*
X64759408Y-34671000D01*
X64489510Y-34724686D01*
X64235273Y-34829995D01*
X64006465Y-34982880D01*
X63811880Y-35177465D01*
X63658995Y-35406273D01*
X63627000Y-35483515D01*
X63595005Y-35406273D01*
X63442120Y-35177465D01*
X63247535Y-34982880D01*
X63018727Y-34829995D01*
X62764490Y-34724686D01*
X62494592Y-34671000D01*
X62219408Y-34671000D01*
X61949510Y-34724686D01*
X61695273Y-34829995D01*
X61466465Y-34982880D01*
X61271880Y-35177465D01*
X61118995Y-35406273D01*
X61087000Y-35483515D01*
X61055005Y-35406273D01*
X60902120Y-35177465D01*
X60707535Y-34982880D01*
X60478727Y-34829995D01*
X60224490Y-34724686D01*
X59954592Y-34671000D01*
X59679408Y-34671000D01*
X59409510Y-34724686D01*
X59155273Y-34829995D01*
X58926465Y-34982880D01*
X58731880Y-35177465D01*
X58578995Y-35406273D01*
X58547000Y-35483515D01*
X58515005Y-35406273D01*
X58362120Y-35177465D01*
X58167535Y-34982880D01*
X57938727Y-34829995D01*
X57684490Y-34724686D01*
X57414592Y-34671000D01*
X57139408Y-34671000D01*
X56869510Y-34724686D01*
X56615273Y-34829995D01*
X56386465Y-34982880D01*
X56191880Y-35177465D01*
X56038995Y-35406273D01*
X56007000Y-35483515D01*
X55975005Y-35406273D01*
X55822120Y-35177465D01*
X55627535Y-34982880D01*
X55398727Y-34829995D01*
X55144490Y-34724686D01*
X54874592Y-34671000D01*
X54599408Y-34671000D01*
X54329510Y-34724686D01*
X54075273Y-34829995D01*
X53846465Y-34982880D01*
X53651880Y-35177465D01*
X53498995Y-35406273D01*
X53467000Y-35483515D01*
X53435005Y-35406273D01*
X53282120Y-35177465D01*
X53087535Y-34982880D01*
X52858727Y-34829995D01*
X52604490Y-34724686D01*
X52334592Y-34671000D01*
X52059408Y-34671000D01*
X51789510Y-34724686D01*
X51535273Y-34829995D01*
X51306465Y-34982880D01*
X51111880Y-35177465D01*
X50958995Y-35406273D01*
X50853686Y-35660510D01*
X50800000Y-35930408D01*
X50800000Y-36205592D01*
X50853686Y-36475490D01*
X50958995Y-36729727D01*
X51111880Y-36958535D01*
X51306465Y-37153120D01*
X51535273Y-37306005D01*
X51612515Y-37338000D01*
X51535273Y-37369995D01*
X51306465Y-37522880D01*
X51111880Y-37717465D01*
X50958995Y-37946273D01*
X50853686Y-38200510D01*
X50800000Y-38470408D01*
X50800000Y-38745592D01*
X50853686Y-39015490D01*
X50958995Y-39269727D01*
X51111880Y-39498535D01*
X51306465Y-39693120D01*
X51535273Y-39846005D01*
X51789510Y-39951314D01*
X52059408Y-40005000D01*
X52334592Y-40005000D01*
X52604490Y-39951314D01*
X52858727Y-39846005D01*
X53087535Y-39693120D01*
X53282120Y-39498535D01*
X53435005Y-39269727D01*
X53467000Y-39192485D01*
X53498995Y-39269727D01*
X53651880Y-39498535D01*
X53846465Y-39693120D01*
X54075273Y-39846005D01*
X54329510Y-39951314D01*
X54599408Y-40005000D01*
X54874592Y-40005000D01*
X55144490Y-39951314D01*
X55398727Y-39846005D01*
X55627535Y-39693120D01*
X55822120Y-39498535D01*
X55975005Y-39269727D01*
X56007000Y-39192485D01*
X56038995Y-39269727D01*
X56191880Y-39498535D01*
X56386465Y-39693120D01*
X56615273Y-39846005D01*
X56869510Y-39951314D01*
X57139408Y-40005000D01*
X57414592Y-40005000D01*
X57684490Y-39951314D01*
X57868399Y-39875136D01*
X57868400Y-42674864D01*
X57684490Y-42598686D01*
X57414592Y-42545000D01*
X57139408Y-42545000D01*
X56869510Y-42598686D01*
X56615273Y-42703995D01*
X56386465Y-42856880D01*
X56191880Y-43051465D01*
X56038995Y-43280273D01*
X56007000Y-43357515D01*
X55975005Y-43280273D01*
X55822120Y-43051465D01*
X55627535Y-42856880D01*
X55398727Y-42703995D01*
X55144490Y-42598686D01*
X54874592Y-42545000D01*
X54599408Y-42545000D01*
X54329510Y-42598686D01*
X54075273Y-42703995D01*
X53846465Y-42856880D01*
X53651880Y-43051465D01*
X53498995Y-43280273D01*
X53467000Y-43357515D01*
X53435005Y-43280273D01*
X53282120Y-43051465D01*
X53087535Y-42856880D01*
X52858727Y-42703995D01*
X52604490Y-42598686D01*
X52334592Y-42545000D01*
X52059408Y-42545000D01*
X51789510Y-42598686D01*
X51535273Y-42703995D01*
X51306465Y-42856880D01*
X51111880Y-43051465D01*
X50958995Y-43280273D01*
X50853686Y-43534510D01*
X50800000Y-43804408D01*
X50800000Y-44079592D01*
X50853686Y-44349490D01*
X50958995Y-44603727D01*
X51111880Y-44832535D01*
X51306465Y-45027120D01*
X51394465Y-45085920D01*
X51310518Y-45094188D01*
X51190820Y-45130498D01*
X51080506Y-45189463D01*
X50983815Y-45268815D01*
X50904463Y-45365506D01*
X50845498Y-45475820D01*
X50809188Y-45595518D01*
X50796928Y-45720000D01*
X43902072Y-45720000D01*
X43902072Y-44845999D01*
X43885008Y-44672745D01*
X43834472Y-44506149D01*
X43752405Y-44352613D01*
X43641962Y-44218038D01*
X43507387Y-44107595D01*
X43398686Y-44049493D01*
X43554536Y-43896494D01*
X43721571Y-43651437D01*
X43837588Y-43378502D01*
X43855302Y-43286031D01*
X43734246Y-43053000D01*
X42291000Y-43053000D01*
X42291000Y-43073000D01*
X42037000Y-43073000D01*
X42037000Y-43053000D01*
X40593754Y-43053000D01*
X40472698Y-43286031D01*
X40490412Y-43378502D01*
X40606429Y-43651437D01*
X40773464Y-43896494D01*
X40929314Y-44049493D01*
X40820613Y-44107595D01*
X40686038Y-44218038D01*
X40575595Y-44352613D01*
X40493528Y-44506149D01*
X40442992Y-44672745D01*
X40425928Y-44845999D01*
X38760000Y-44845999D01*
X38760000Y-40746031D01*
X40472698Y-40746031D01*
X40490412Y-40838502D01*
X40606429Y-41111437D01*
X40773464Y-41356494D01*
X40985097Y-41564256D01*
X41125184Y-41656000D01*
X40985097Y-41747744D01*
X40773464Y-41955506D01*
X40606429Y-42200563D01*
X40490412Y-42473498D01*
X40472698Y-42565969D01*
X40593754Y-42799000D01*
X42037000Y-42799000D01*
X42037000Y-40513000D01*
X42291000Y-40513000D01*
X42291000Y-42799000D01*
X43734246Y-42799000D01*
X43855302Y-42565969D01*
X43837588Y-42473498D01*
X43721571Y-42200563D01*
X43554536Y-41955506D01*
X43342903Y-41747744D01*
X43202816Y-41656000D01*
X43342903Y-41564256D01*
X43554536Y-41356494D01*
X43721571Y-41111437D01*
X43837588Y-40838502D01*
X43855302Y-40746031D01*
X43734246Y-40513000D01*
X42291000Y-40513000D01*
X42037000Y-40513000D01*
X40593754Y-40513000D01*
X40472698Y-40746031D01*
X38760000Y-40746031D01*
X38760000Y-37846000D01*
X40421718Y-37846000D01*
X40450776Y-38141032D01*
X40536834Y-38424725D01*
X40676583Y-38686179D01*
X40864655Y-38915345D01*
X41093821Y-39103417D01*
X41121669Y-39118302D01*
X40985097Y-39207744D01*
X40773464Y-39415506D01*
X40606429Y-39660563D01*
X40490412Y-39933498D01*
X40472698Y-40025969D01*
X40593754Y-40259000D01*
X42037000Y-40259000D01*
X42037000Y-40239000D01*
X42291000Y-40239000D01*
X42291000Y-40259000D01*
X43734246Y-40259000D01*
X43855302Y-40025969D01*
X43837588Y-39933498D01*
X43721571Y-39660563D01*
X43554536Y-39415506D01*
X43342903Y-39207744D01*
X43206331Y-39118302D01*
X43234179Y-39103417D01*
X43463345Y-38915345D01*
X43651417Y-38686179D01*
X43791166Y-38424725D01*
X43877224Y-38141032D01*
X43906282Y-37846000D01*
X43877224Y-37550968D01*
X43791166Y-37267275D01*
X43651417Y-37005821D01*
X43463345Y-36776655D01*
X43234179Y-36588583D01*
X42972725Y-36448834D01*
X42689032Y-36362776D01*
X42467936Y-36341000D01*
X41860064Y-36341000D01*
X41638968Y-36362776D01*
X41355275Y-36448834D01*
X41093821Y-36588583D01*
X40864655Y-36776655D01*
X40676583Y-37005821D01*
X40536834Y-37267275D01*
X40450776Y-37550968D01*
X40421718Y-37846000D01*
X38760000Y-37846000D01*
X38760000Y-32918000D01*
X97892000Y-32918000D01*
X97892001Y-49124000D01*
G36*
X66198995Y-36729727D02*
G01*
X66351880Y-36958535D01*
X66546465Y-37153120D01*
X66775273Y-37306005D01*
X67029510Y-37411314D01*
X67299408Y-37465000D01*
X67574592Y-37465000D01*
X67844490Y-37411314D01*
X67946388Y-37369106D01*
X67947000Y-37375323D01*
X67947001Y-42634668D01*
X67946388Y-42640894D01*
X67844490Y-42598686D01*
X67574592Y-42545000D01*
X67299408Y-42545000D01*
X67029510Y-42598686D01*
X66775273Y-42703995D01*
X66546465Y-42856880D01*
X66351880Y-43051465D01*
X66198995Y-43280273D01*
X66167000Y-43357515D01*
X66135005Y-43280273D01*
X65982120Y-43051465D01*
X65787535Y-42856880D01*
X65558727Y-42703995D01*
X65304490Y-42598686D01*
X65034592Y-42545000D01*
X64759408Y-42545000D01*
X64605429Y-42575628D01*
X64387000Y-42357199D01*
X64387000Y-39908853D01*
X64489510Y-39951314D01*
X64759408Y-40005000D01*
X65034592Y-40005000D01*
X65304490Y-39951314D01*
X65558727Y-39846005D01*
X65787535Y-39693120D01*
X65982120Y-39498535D01*
X66135005Y-39269727D01*
X66240314Y-39015490D01*
X66294000Y-38745592D01*
X66294000Y-38470408D01*
X66240314Y-38200510D01*
X66135005Y-37946273D01*
X65982120Y-37717465D01*
X65787535Y-37522880D01*
X65558727Y-37369995D01*
X65481485Y-37338000D01*
X65558727Y-37306005D01*
X65787535Y-37153120D01*
X65982120Y-36958535D01*
X66135005Y-36729727D01*
X66167000Y-36652485D01*
X66198995Y-36729727D01*
G37*
X66198995Y-36729727D02*
X66351880Y-36958535D01*
X66546465Y-37153120D01*
X66775273Y-37306005D01*
X67029510Y-37411314D01*
X67299408Y-37465000D01*
X67574592Y-37465000D01*
X67844490Y-37411314D01*
X67946388Y-37369106D01*
X67947000Y-37375323D01*
X67947001Y-42634668D01*
X67946388Y-42640894D01*
X67844490Y-42598686D01*
X67574592Y-42545000D01*
X67299408Y-42545000D01*
X67029510Y-42598686D01*
X66775273Y-42703995D01*
X66546465Y-42856880D01*
X66351880Y-43051465D01*
X66198995Y-43280273D01*
X66167000Y-43357515D01*
X66135005Y-43280273D01*
X65982120Y-43051465D01*
X65787535Y-42856880D01*
X65558727Y-42703995D01*
X65304490Y-42598686D01*
X65034592Y-42545000D01*
X64759408Y-42545000D01*
X64605429Y-42575628D01*
X64387000Y-42357199D01*
X64387000Y-39908853D01*
X64489510Y-39951314D01*
X64759408Y-40005000D01*
X65034592Y-40005000D01*
X65304490Y-39951314D01*
X65558727Y-39846005D01*
X65787535Y-39693120D01*
X65982120Y-39498535D01*
X66135005Y-39269727D01*
X66240314Y-39015490D01*
X66294000Y-38745592D01*
X66294000Y-38470408D01*
X66240314Y-38200510D01*
X66135005Y-37946273D01*
X65982120Y-37717465D01*
X65787535Y-37522880D01*
X65558727Y-37369995D01*
X65481485Y-37338000D01*
X65558727Y-37306005D01*
X65787535Y-37153120D01*
X65982120Y-36958535D01*
X66135005Y-36729727D01*
X66167000Y-36652485D01*
X66198995Y-36729727D01*
G36*
X75567000Y-37375323D02*
G01*
X75567001Y-42634668D01*
X75566388Y-42640894D01*
X75464490Y-42598686D01*
X75194592Y-42545000D01*
X74919408Y-42545000D01*
X74765429Y-42575628D01*
X74547000Y-42357199D01*
X74547000Y-37652801D01*
X74765430Y-37434372D01*
X74919408Y-37465000D01*
X75194592Y-37465000D01*
X75464490Y-37411314D01*
X75566388Y-37369106D01*
X75567000Y-37375323D01*
G37*
X75567000Y-37375323D02*
X75567001Y-42634668D01*
X75566388Y-42640894D01*
X75464490Y-42598686D01*
X75194592Y-42545000D01*
X74919408Y-42545000D01*
X74765429Y-42575628D01*
X74547000Y-42357199D01*
X74547000Y-37652801D01*
X74765430Y-37434372D01*
X74919408Y-37465000D01*
X75194592Y-37465000D01*
X75464490Y-37411314D01*
X75566388Y-37369106D01*
X75567000Y-37375323D01*
G36*
X83187000Y-37375323D02*
G01*
X83187001Y-42634668D01*
X83186388Y-42640894D01*
X83084490Y-42598686D01*
X82814592Y-42545000D01*
X82539408Y-42545000D01*
X82385429Y-42575628D01*
X82167000Y-42357199D01*
X82167000Y-37652801D01*
X82385430Y-37434372D01*
X82539408Y-37465000D01*
X82814592Y-37465000D01*
X83084490Y-37411314D01*
X83186388Y-37369106D01*
X83187000Y-37375323D01*
G37*
X83187000Y-37375323D02*
X83187001Y-42634668D01*
X83186388Y-42640894D01*
X83084490Y-42598686D01*
X82814592Y-42545000D01*
X82539408Y-42545000D01*
X82385429Y-42575628D01*
X82167000Y-42357199D01*
X82167000Y-37652801D01*
X82385430Y-37434372D01*
X82539408Y-37465000D01*
X82814592Y-37465000D01*
X83084490Y-37411314D01*
X83186388Y-37369106D01*
X83187000Y-37375323D01*
G36*
X73027000Y-37375323D02*
G01*
X73027001Y-42634668D01*
X73026388Y-42640894D01*
X72924490Y-42598686D01*
X72654592Y-42545000D01*
X72379408Y-42545000D01*
X72225429Y-42575628D01*
X72007000Y-42357199D01*
X72007000Y-37652801D01*
X72225430Y-37434372D01*
X72379408Y-37465000D01*
X72654592Y-37465000D01*
X72924490Y-37411314D01*
X73026388Y-37369106D01*
X73027000Y-37375323D01*
G37*
X73027000Y-37375323D02*
X73027001Y-42634668D01*
X73026388Y-42640894D01*
X72924490Y-42598686D01*
X72654592Y-42545000D01*
X72379408Y-42545000D01*
X72225429Y-42575628D01*
X72007000Y-42357199D01*
X72007000Y-37652801D01*
X72225430Y-37434372D01*
X72379408Y-37465000D01*
X72654592Y-37465000D01*
X72924490Y-37411314D01*
X73026388Y-37369106D01*
X73027000Y-37375323D01*
G36*
X80647000Y-37375323D02*
G01*
X80647001Y-42634668D01*
X80646388Y-42640894D01*
X80544490Y-42598686D01*
X80274592Y-42545000D01*
X79999408Y-42545000D01*
X79845429Y-42575628D01*
X79627000Y-42357199D01*
X79627000Y-37652801D01*
X79845430Y-37434372D01*
X79999408Y-37465000D01*
X80274592Y-37465000D01*
X80544490Y-37411314D01*
X80646388Y-37369106D01*
X80647000Y-37375323D01*
G37*
X80647000Y-37375323D02*
X80647001Y-42634668D01*
X80646388Y-42640894D01*
X80544490Y-42598686D01*
X80274592Y-42545000D01*
X79999408Y-42545000D01*
X79845429Y-42575628D01*
X79627000Y-42357199D01*
X79627000Y-37652801D01*
X79845430Y-37434372D01*
X79999408Y-37465000D01*
X80274592Y-37465000D01*
X80544490Y-37411314D01*
X80646388Y-37369106D01*
X80647000Y-37375323D01*
G36*
X78107000Y-37375323D02*
G01*
X78107001Y-42634668D01*
X78106388Y-42640894D01*
X78004490Y-42598686D01*
X77734592Y-42545000D01*
X77459408Y-42545000D01*
X77305429Y-42575628D01*
X77087000Y-42357199D01*
X77087000Y-37652801D01*
X77305430Y-37434372D01*
X77459408Y-37465000D01*
X77734592Y-37465000D01*
X78004490Y-37411314D01*
X78106388Y-37369106D01*
X78107000Y-37375323D01*
G37*
X78107000Y-37375323D02*
X78107001Y-42634668D01*
X78106388Y-42640894D01*
X78004490Y-42598686D01*
X77734592Y-42545000D01*
X77459408Y-42545000D01*
X77305429Y-42575628D01*
X77087000Y-42357199D01*
X77087000Y-37652801D01*
X77305430Y-37434372D01*
X77459408Y-37465000D01*
X77734592Y-37465000D01*
X78004490Y-37411314D01*
X78106388Y-37369106D01*
X78107000Y-37375323D01*
G36*
X70487000Y-37375323D02*
G01*
X70487001Y-42634668D01*
X70486388Y-42640894D01*
X70384490Y-42598686D01*
X70114592Y-42545000D01*
X69839408Y-42545000D01*
X69685429Y-42575628D01*
X69467000Y-42357199D01*
X69467000Y-37652801D01*
X69685430Y-37434372D01*
X69839408Y-37465000D01*
X70114592Y-37465000D01*
X70384490Y-37411314D01*
X70486388Y-37369106D01*
X70487000Y-37375323D01*
G37*
X70487000Y-37375323D02*
X70487001Y-42634668D01*
X70486388Y-42640894D01*
X70384490Y-42598686D01*
X70114592Y-42545000D01*
X69839408Y-42545000D01*
X69685429Y-42575628D01*
X69467000Y-42357199D01*
X69467000Y-37652801D01*
X69685430Y-37434372D01*
X69839408Y-37465000D01*
X70114592Y-37465000D01*
X70384490Y-37411314D01*
X70486388Y-37369106D01*
X70487000Y-37375323D01*
G36*
X85727000Y-37375323D02*
G01*
X85727001Y-42634668D01*
X85726388Y-42640894D01*
X85624490Y-42598686D01*
X85354592Y-42545000D01*
X85079408Y-42545000D01*
X84925429Y-42575628D01*
X84707000Y-42357199D01*
X84707000Y-37652801D01*
X84925430Y-37434372D01*
X85079408Y-37465000D01*
X85354592Y-37465000D01*
X85624490Y-37411314D01*
X85726388Y-37369106D01*
X85727000Y-37375323D01*
G37*
X85727000Y-37375323D02*
X85727001Y-42634668D01*
X85726388Y-42640894D01*
X85624490Y-42598686D01*
X85354592Y-42545000D01*
X85079408Y-42545000D01*
X84925429Y-42575628D01*
X84707000Y-42357199D01*
X84707000Y-37652801D01*
X84925430Y-37434372D01*
X85079408Y-37465000D01*
X85354592Y-37465000D01*
X85624490Y-37411314D01*
X85726388Y-37369106D01*
X85727000Y-37375323D01*
M02*
