%FSLAX45Y45*%
G04 Gerber Fmt 4.5, Leading zero omitted, Abs format (unit mm)*
G04 Created by KiCad (PCBNEW (5.1.5-0-10_14)) date 2020-02-19 17:33:14*
%MOMM*%
%LPD*%
G04 APERTURE LIST*
%TA.AperFunction,Profile*%
%ADD10C,0.050000*%
%TD*%
%ADD11C,0.200000*%
%ADD12C,0.300000*%
G04 APERTURE END LIST*
D10*
X3810000Y-3225800D02*
X9855200Y-3225800D01*
X3810000Y-4978400D02*
X3810000Y-3225800D01*
X9855200Y-4978400D02*
X3810000Y-4978400D01*
X9855200Y-3225800D02*
X9855200Y-4978400D01*
D11*
D12*
X4093928Y-5446614D02*
X4093928Y-5146614D01*
X4165357Y-5146614D01*
X4208214Y-5160900D01*
X4236786Y-5189472D01*
X4251071Y-5218043D01*
X4265357Y-5275186D01*
X4265357Y-5318043D01*
X4251071Y-5375186D01*
X4236786Y-5403757D01*
X4208214Y-5432329D01*
X4165357Y-5446614D01*
X4093928Y-5446614D01*
X4393928Y-5446614D02*
X4393928Y-5246614D01*
X4393928Y-5303757D02*
X4408214Y-5275186D01*
X4422500Y-5260900D01*
X4451071Y-5246614D01*
X4479643Y-5246614D01*
X4579643Y-5446614D02*
X4579643Y-5246614D01*
X4579643Y-5146614D02*
X4565357Y-5160900D01*
X4579643Y-5175186D01*
X4593928Y-5160900D01*
X4579643Y-5146614D01*
X4579643Y-5175186D01*
X4765357Y-5446614D02*
X4736786Y-5432329D01*
X4722500Y-5403757D01*
X4722500Y-5146614D01*
X4922500Y-5446614D02*
X4893928Y-5432329D01*
X4879643Y-5403757D01*
X4879643Y-5146614D01*
X5265357Y-5446614D02*
X5265357Y-5146614D01*
X5365357Y-5360900D01*
X5465357Y-5146614D01*
X5465357Y-5446614D01*
X5736786Y-5446614D02*
X5736786Y-5289472D01*
X5722500Y-5260900D01*
X5693928Y-5246614D01*
X5636786Y-5246614D01*
X5608214Y-5260900D01*
X5736786Y-5432329D02*
X5708214Y-5446614D01*
X5636786Y-5446614D01*
X5608214Y-5432329D01*
X5593928Y-5403757D01*
X5593928Y-5375186D01*
X5608214Y-5346614D01*
X5636786Y-5332329D01*
X5708214Y-5332329D01*
X5736786Y-5318043D01*
X5879643Y-5246614D02*
X5879643Y-5546614D01*
X5879643Y-5260900D02*
X5908214Y-5246614D01*
X5965357Y-5246614D01*
X5993928Y-5260900D01*
X6008214Y-5275186D01*
X6022500Y-5303757D01*
X6022500Y-5389472D01*
X6008214Y-5418043D01*
X5993928Y-5432329D01*
X5965357Y-5446614D01*
X5908214Y-5446614D01*
X5879643Y-5432329D01*
X6151071Y-5418043D02*
X6165357Y-5432329D01*
X6151071Y-5446614D01*
X6136786Y-5432329D01*
X6151071Y-5418043D01*
X6151071Y-5446614D01*
X6151071Y-5260900D02*
X6165357Y-5275186D01*
X6151071Y-5289472D01*
X6136786Y-5275186D01*
X6151071Y-5260900D01*
X6151071Y-5289472D01*
M02*
