%FSLAX45Y45*%
G04 Gerber Fmt 4.5, Leading zero omitted, Abs format (unit mm)*
G04 Created by KiCad (PCBNEW (5.1.5-0-10_14)) date 2020-02-19 17:33:14*
%MOMM*%
%LPD*%
G04 APERTURE LIST*
%TA.AperFunction,Profile*%
%ADD10C,0.050000*%
%TD*%
%ADD11C,0.200000*%
%ADD12C,0.300000*%
G04 APERTURE END LIST*
D10*
X3810000Y-3225800D02*
X9855200Y-3225800D01*
X3810000Y-4978400D02*
X3810000Y-3225800D01*
X9855200Y-4978400D02*
X3810000Y-4978400D01*
X9855200Y-3225800D02*
X9855200Y-4978400D01*
D11*
X5171450Y-3558550D02*
X5267950Y-3655050D01*
X5267950Y-3558550D02*
X5171450Y-3655050D01*
X5171450Y-3812550D02*
X5267950Y-3909050D01*
X5267950Y-3812550D02*
X5171450Y-3909050D01*
X5425450Y-3558550D02*
X5521950Y-3655050D01*
X5521950Y-3558550D02*
X5425450Y-3655050D01*
X5425450Y-3812550D02*
X5521950Y-3909050D01*
X5521950Y-3812550D02*
X5425450Y-3909050D01*
X5679450Y-3558550D02*
X5775950Y-3655050D01*
X5775950Y-3558550D02*
X5679450Y-3655050D01*
X5679450Y-3812550D02*
X5775950Y-3909050D01*
X5775950Y-3812550D02*
X5679450Y-3909050D01*
X5933450Y-3558550D02*
X6029950Y-3655050D01*
X6029950Y-3558550D02*
X5933450Y-3655050D01*
X5933450Y-3812550D02*
X6029950Y-3909050D01*
X6029950Y-3812550D02*
X5933450Y-3909050D01*
X6187450Y-3558550D02*
X6283950Y-3655050D01*
X6283950Y-3558550D02*
X6187450Y-3655050D01*
X6187450Y-3812550D02*
X6283950Y-3909050D01*
X6283950Y-3812550D02*
X6187450Y-3909050D01*
X6441450Y-3558550D02*
X6537950Y-3655050D01*
X6537950Y-3558550D02*
X6441450Y-3655050D01*
X6441450Y-3812550D02*
X6537950Y-3909050D01*
X6537950Y-3812550D02*
X6441450Y-3909050D01*
X6695450Y-3558550D02*
X6791950Y-3655050D01*
X6791950Y-3558550D02*
X6695450Y-3655050D01*
X6695450Y-3812550D02*
X6791950Y-3909050D01*
X6791950Y-3812550D02*
X6695450Y-3909050D01*
X6949450Y-3558550D02*
X7045950Y-3655050D01*
X7045950Y-3558550D02*
X6949450Y-3655050D01*
X6949450Y-3812550D02*
X7045950Y-3909050D01*
X7045950Y-3812550D02*
X6949450Y-3909050D01*
X7203450Y-3558550D02*
X7299950Y-3655050D01*
X7299950Y-3558550D02*
X7203450Y-3655050D01*
X7203450Y-3812550D02*
X7299950Y-3909050D01*
X7299950Y-3812550D02*
X7203450Y-3909050D01*
X7457450Y-3558550D02*
X7553950Y-3655050D01*
X7553950Y-3558550D02*
X7457450Y-3655050D01*
X7457450Y-3812550D02*
X7553950Y-3909050D01*
X7553950Y-3812550D02*
X7457450Y-3909050D01*
X7711450Y-3558550D02*
X7807950Y-3655050D01*
X7807950Y-3558550D02*
X7711450Y-3655050D01*
X7711450Y-3812550D02*
X7807950Y-3909050D01*
X7807950Y-3812550D02*
X7711450Y-3909050D01*
X7965450Y-3558550D02*
X8061950Y-3655050D01*
X8061950Y-3558550D02*
X7965450Y-3655050D01*
X7965450Y-3812550D02*
X8061950Y-3909050D01*
X8061950Y-3812550D02*
X7965450Y-3909050D01*
X8219450Y-3558550D02*
X8315950Y-3655050D01*
X8315950Y-3558550D02*
X8219450Y-3655050D01*
X8219450Y-3812550D02*
X8315950Y-3909050D01*
X8315950Y-3812550D02*
X8219450Y-3909050D01*
X8473450Y-3558550D02*
X8569950Y-3655050D01*
X8569950Y-3558550D02*
X8473450Y-3655050D01*
X8473450Y-3812550D02*
X8569950Y-3909050D01*
X8569950Y-3812550D02*
X8473450Y-3909050D01*
X8727450Y-3558550D02*
X8823950Y-3655050D01*
X8823950Y-3558550D02*
X8727450Y-3655050D01*
X8727450Y-3812550D02*
X8823950Y-3909050D01*
X8823950Y-3812550D02*
X8727450Y-3909050D01*
X8981450Y-3558550D02*
X9077950Y-3655050D01*
X9077950Y-3558550D02*
X8981450Y-3655050D01*
X8981450Y-3812550D02*
X9077950Y-3909050D01*
X9077950Y-3812550D02*
X8981450Y-3909050D01*
X9235450Y-3558550D02*
X9331950Y-3655050D01*
X9331950Y-3558550D02*
X9235450Y-3655050D01*
X9235450Y-3812550D02*
X9331950Y-3909050D01*
X9331950Y-3812550D02*
X9235450Y-3909050D01*
X5171450Y-4345950D02*
X5267950Y-4442450D01*
X5267950Y-4345950D02*
X5171450Y-4442450D01*
X5171450Y-4599950D02*
X5267950Y-4696450D01*
X5267950Y-4599950D02*
X5171450Y-4696450D01*
X5425450Y-4345950D02*
X5521950Y-4442450D01*
X5521950Y-4345950D02*
X5425450Y-4442450D01*
X5425450Y-4599950D02*
X5521950Y-4696450D01*
X5521950Y-4599950D02*
X5425450Y-4696450D01*
X5679450Y-4345950D02*
X5775950Y-4442450D01*
X5775950Y-4345950D02*
X5679450Y-4442450D01*
X5679450Y-4599950D02*
X5775950Y-4696450D01*
X5775950Y-4599950D02*
X5679450Y-4696450D01*
X5933450Y-4345950D02*
X6029950Y-4442450D01*
X6029950Y-4345950D02*
X5933450Y-4442450D01*
X5933450Y-4599950D02*
X6029950Y-4696450D01*
X6029950Y-4599950D02*
X5933450Y-4696450D01*
X6187450Y-4345950D02*
X6283950Y-4442450D01*
X6283950Y-4345950D02*
X6187450Y-4442450D01*
X6187450Y-4599950D02*
X6283950Y-4696450D01*
X6283950Y-4599950D02*
X6187450Y-4696450D01*
X6441450Y-4345950D02*
X6537950Y-4442450D01*
X6537950Y-4345950D02*
X6441450Y-4442450D01*
X6441450Y-4599950D02*
X6537950Y-4696450D01*
X6537950Y-4599950D02*
X6441450Y-4696450D01*
X6695450Y-4345950D02*
X6791950Y-4442450D01*
X6791950Y-4345950D02*
X6695450Y-4442450D01*
X6695450Y-4599950D02*
X6791950Y-4696450D01*
X6791950Y-4599950D02*
X6695450Y-4696450D01*
X6949450Y-4345950D02*
X7045950Y-4442450D01*
X7045950Y-4345950D02*
X6949450Y-4442450D01*
X6949450Y-4599950D02*
X7045950Y-4696450D01*
X7045950Y-4599950D02*
X6949450Y-4696450D01*
X7203450Y-4345950D02*
X7299950Y-4442450D01*
X7299950Y-4345950D02*
X7203450Y-4442450D01*
X7203450Y-4599950D02*
X7299950Y-4696450D01*
X7299950Y-4599950D02*
X7203450Y-4696450D01*
X7457450Y-4345950D02*
X7553950Y-4442450D01*
X7553950Y-4345950D02*
X7457450Y-4442450D01*
X7457450Y-4599950D02*
X7553950Y-4696450D01*
X7553950Y-4599950D02*
X7457450Y-4696450D01*
X7711450Y-4345950D02*
X7807950Y-4442450D01*
X7807950Y-4345950D02*
X7711450Y-4442450D01*
X7711450Y-4599950D02*
X7807950Y-4696450D01*
X7807950Y-4599950D02*
X7711450Y-4696450D01*
X7965450Y-4345950D02*
X8061950Y-4442450D01*
X8061950Y-4345950D02*
X7965450Y-4442450D01*
X7965450Y-4599950D02*
X8061950Y-4696450D01*
X8061950Y-4599950D02*
X7965450Y-4696450D01*
X8219450Y-4345950D02*
X8315950Y-4442450D01*
X8315950Y-4345950D02*
X8219450Y-4442450D01*
X8219450Y-4599950D02*
X8315950Y-4696450D01*
X8315950Y-4599950D02*
X8219450Y-4696450D01*
X8473450Y-4345950D02*
X8569950Y-4442450D01*
X8569950Y-4345950D02*
X8473450Y-4442450D01*
X8473450Y-4599950D02*
X8569950Y-4696450D01*
X8569950Y-4599950D02*
X8473450Y-4696450D01*
X8727450Y-4345950D02*
X8823950Y-4442450D01*
X8823950Y-4345950D02*
X8727450Y-4442450D01*
X8727450Y-4599950D02*
X8823950Y-4696450D01*
X8823950Y-4599950D02*
X8727450Y-4696450D01*
X8981450Y-4345950D02*
X9077950Y-4442450D01*
X9077950Y-4345950D02*
X8981450Y-4442450D01*
X8981450Y-4599950D02*
X9077950Y-4696450D01*
X9077950Y-4599950D02*
X8981450Y-4696450D01*
X9235450Y-4345950D02*
X9331950Y-4442450D01*
X9331950Y-4345950D02*
X9235450Y-4442450D01*
X9235450Y-4599950D02*
X9331950Y-4696450D01*
X9331950Y-4599950D02*
X9235450Y-4696450D01*
X4276400Y-3784600D02*
G75*
G03X4276400Y-3784600I-60000J0D01*
G01*
X4276400Y-4038600D02*
G75*
G03X4276400Y-4038600I-60000J0D01*
G01*
X4276400Y-4292600D02*
G75*
G03X4276400Y-4292600I-60000J0D01*
G01*
X4276400Y-4546600D02*
G75*
G03X4276400Y-4546600I-60000J0D01*
G01*
D12*
X4093928Y-5446614D02*
X4093928Y-5146614D01*
X4165357Y-5146614D01*
X4208214Y-5160900D01*
X4236786Y-5189472D01*
X4251071Y-5218043D01*
X4265357Y-5275186D01*
X4265357Y-5318043D01*
X4251071Y-5375186D01*
X4236786Y-5403757D01*
X4208214Y-5432329D01*
X4165357Y-5446614D01*
X4093928Y-5446614D01*
X4393928Y-5446614D02*
X4393928Y-5246614D01*
X4393928Y-5303757D02*
X4408214Y-5275186D01*
X4422500Y-5260900D01*
X4451071Y-5246614D01*
X4479643Y-5246614D01*
X4579643Y-5446614D02*
X4579643Y-5246614D01*
X4579643Y-5146614D02*
X4565357Y-5160900D01*
X4579643Y-5175186D01*
X4593928Y-5160900D01*
X4579643Y-5146614D01*
X4579643Y-5175186D01*
X4765357Y-5446614D02*
X4736786Y-5432329D01*
X4722500Y-5403757D01*
X4722500Y-5146614D01*
X4922500Y-5446614D02*
X4893928Y-5432329D01*
X4879643Y-5403757D01*
X4879643Y-5146614D01*
X5265357Y-5446614D02*
X5265357Y-5146614D01*
X5365357Y-5360900D01*
X5465357Y-5146614D01*
X5465357Y-5446614D01*
X5736786Y-5446614D02*
X5736786Y-5289472D01*
X5722500Y-5260900D01*
X5693928Y-5246614D01*
X5636786Y-5246614D01*
X5608214Y-5260900D01*
X5736786Y-5432329D02*
X5708214Y-5446614D01*
X5636786Y-5446614D01*
X5608214Y-5432329D01*
X5593928Y-5403757D01*
X5593928Y-5375186D01*
X5608214Y-5346614D01*
X5636786Y-5332329D01*
X5708214Y-5332329D01*
X5736786Y-5318043D01*
X5879643Y-5246614D02*
X5879643Y-5546614D01*
X5879643Y-5260900D02*
X5908214Y-5246614D01*
X5965357Y-5246614D01*
X5993928Y-5260900D01*
X6008214Y-5275186D01*
X6022500Y-5303757D01*
X6022500Y-5389472D01*
X6008214Y-5418043D01*
X5993928Y-5432329D01*
X5965357Y-5446614D01*
X5908214Y-5446614D01*
X5879643Y-5432329D01*
X6151071Y-5418043D02*
X6165357Y-5432329D01*
X6151071Y-5446614D01*
X6136786Y-5432329D01*
X6151071Y-5418043D01*
X6151071Y-5446614D01*
X6151071Y-5260900D02*
X6165357Y-5275186D01*
X6151071Y-5289472D01*
X6136786Y-5275186D01*
X6151071Y-5260900D01*
X6151071Y-5289472D01*
X3711000Y-5892650D02*
X3807500Y-5989150D01*
X3807500Y-5892650D02*
X3711000Y-5989150D01*
X4151071Y-5776614D02*
X4179643Y-5776614D01*
X4208214Y-5790900D01*
X4222500Y-5805186D01*
X4236786Y-5833757D01*
X4251071Y-5890900D01*
X4251071Y-5962329D01*
X4236786Y-6019471D01*
X4222500Y-6048043D01*
X4208214Y-6062329D01*
X4179643Y-6076614D01*
X4151071Y-6076614D01*
X4122500Y-6062329D01*
X4108214Y-6048043D01*
X4093928Y-6019471D01*
X4079643Y-5962329D01*
X4079643Y-5890900D01*
X4093928Y-5833757D01*
X4108214Y-5805186D01*
X4122500Y-5790900D01*
X4151071Y-5776614D01*
X4379643Y-6048043D02*
X4393928Y-6062329D01*
X4379643Y-6076614D01*
X4365357Y-6062329D01*
X4379643Y-6048043D01*
X4379643Y-6076614D01*
X4536786Y-6076614D02*
X4593928Y-6076614D01*
X4622500Y-6062329D01*
X4636786Y-6048043D01*
X4665357Y-6005186D01*
X4679643Y-5948043D01*
X4679643Y-5833757D01*
X4665357Y-5805186D01*
X4651071Y-5790900D01*
X4622500Y-5776614D01*
X4565357Y-5776614D01*
X4536786Y-5790900D01*
X4522500Y-5805186D01*
X4508214Y-5833757D01*
X4508214Y-5905186D01*
X4522500Y-5933757D01*
X4536786Y-5948043D01*
X4565357Y-5962329D01*
X4622500Y-5962329D01*
X4651071Y-5948043D01*
X4665357Y-5933757D01*
X4679643Y-5905186D01*
X4936786Y-5776614D02*
X4879643Y-5776614D01*
X4851071Y-5790900D01*
X4836786Y-5805186D01*
X4808214Y-5848043D01*
X4793928Y-5905186D01*
X4793928Y-6019471D01*
X4808214Y-6048043D01*
X4822500Y-6062329D01*
X4851071Y-6076614D01*
X4908214Y-6076614D01*
X4936786Y-6062329D01*
X4951071Y-6048043D01*
X4965357Y-6019471D01*
X4965357Y-5948043D01*
X4951071Y-5919471D01*
X4936786Y-5905186D01*
X4908214Y-5890900D01*
X4851071Y-5890900D01*
X4822500Y-5905186D01*
X4808214Y-5919471D01*
X4793928Y-5948043D01*
X5093928Y-6076614D02*
X5093928Y-5876614D01*
X5093928Y-5905186D02*
X5108214Y-5890900D01*
X5136786Y-5876614D01*
X5179643Y-5876614D01*
X5208214Y-5890900D01*
X5222500Y-5919471D01*
X5222500Y-6076614D01*
X5222500Y-5919471D02*
X5236786Y-5890900D01*
X5265357Y-5876614D01*
X5308214Y-5876614D01*
X5336786Y-5890900D01*
X5351071Y-5919471D01*
X5351071Y-6076614D01*
X5493928Y-6076614D02*
X5493928Y-5876614D01*
X5493928Y-5905186D02*
X5508214Y-5890900D01*
X5536786Y-5876614D01*
X5579643Y-5876614D01*
X5608214Y-5890900D01*
X5622500Y-5919471D01*
X5622500Y-6076614D01*
X5622500Y-5919471D02*
X5636786Y-5890900D01*
X5665357Y-5876614D01*
X5708214Y-5876614D01*
X5736786Y-5890900D01*
X5751071Y-5919471D01*
X5751071Y-6076614D01*
X6336786Y-5762329D02*
X6079643Y-6148043D01*
X6722500Y-5776614D02*
X6751071Y-5776614D01*
X6779643Y-5790900D01*
X6793928Y-5805186D01*
X6808214Y-5833757D01*
X6822500Y-5890900D01*
X6822500Y-5962329D01*
X6808214Y-6019471D01*
X6793928Y-6048043D01*
X6779643Y-6062329D01*
X6751071Y-6076614D01*
X6722500Y-6076614D01*
X6693928Y-6062329D01*
X6679643Y-6048043D01*
X6665357Y-6019471D01*
X6651071Y-5962329D01*
X6651071Y-5890900D01*
X6665357Y-5833757D01*
X6679643Y-5805186D01*
X6693928Y-5790900D01*
X6722500Y-5776614D01*
X6951071Y-6048043D02*
X6965357Y-6062329D01*
X6951071Y-6076614D01*
X6936786Y-6062329D01*
X6951071Y-6048043D01*
X6951071Y-6076614D01*
X7151071Y-5776614D02*
X7179643Y-5776614D01*
X7208214Y-5790900D01*
X7222500Y-5805186D01*
X7236786Y-5833757D01*
X7251071Y-5890900D01*
X7251071Y-5962329D01*
X7236786Y-6019471D01*
X7222500Y-6048043D01*
X7208214Y-6062329D01*
X7179643Y-6076614D01*
X7151071Y-6076614D01*
X7122500Y-6062329D01*
X7108214Y-6048043D01*
X7093928Y-6019471D01*
X7079643Y-5962329D01*
X7079643Y-5890900D01*
X7093928Y-5833757D01*
X7108214Y-5805186D01*
X7122500Y-5790900D01*
X7151071Y-5776614D01*
X7351071Y-5776614D02*
X7536786Y-5776614D01*
X7436786Y-5890900D01*
X7479643Y-5890900D01*
X7508214Y-5905186D01*
X7522500Y-5919471D01*
X7536786Y-5948043D01*
X7536786Y-6019471D01*
X7522500Y-6048043D01*
X7508214Y-6062329D01*
X7479643Y-6076614D01*
X7393928Y-6076614D01*
X7365357Y-6062329D01*
X7351071Y-6048043D01*
X7708214Y-5905186D02*
X7679643Y-5890900D01*
X7665357Y-5876614D01*
X7651071Y-5848043D01*
X7651071Y-5833757D01*
X7665357Y-5805186D01*
X7679643Y-5790900D01*
X7708214Y-5776614D01*
X7765357Y-5776614D01*
X7793928Y-5790900D01*
X7808214Y-5805186D01*
X7822500Y-5833757D01*
X7822500Y-5848043D01*
X7808214Y-5876614D01*
X7793928Y-5890900D01*
X7765357Y-5905186D01*
X7708214Y-5905186D01*
X7679643Y-5919471D01*
X7665357Y-5933757D01*
X7651071Y-5962329D01*
X7651071Y-6019471D01*
X7665357Y-6048043D01*
X7679643Y-6062329D01*
X7708214Y-6076614D01*
X7765357Y-6076614D01*
X7793928Y-6062329D01*
X7808214Y-6048043D01*
X7822500Y-6019471D01*
X7822500Y-5962329D01*
X7808214Y-5933757D01*
X7793928Y-5919471D01*
X7765357Y-5905186D01*
X7936786Y-5776614D02*
X7936786Y-5833757D01*
X8051071Y-5776614D02*
X8051071Y-5833757D01*
X8493928Y-6190900D02*
X8479643Y-6176614D01*
X8451071Y-6133757D01*
X8436786Y-6105186D01*
X8422500Y-6062329D01*
X8408214Y-5990900D01*
X8408214Y-5933757D01*
X8422500Y-5862329D01*
X8436786Y-5819471D01*
X8451071Y-5790900D01*
X8479643Y-5748043D01*
X8493928Y-5733757D01*
X8736786Y-5776614D02*
X8679643Y-5776614D01*
X8651071Y-5790900D01*
X8636786Y-5805186D01*
X8608214Y-5848043D01*
X8593928Y-5905186D01*
X8593928Y-6019471D01*
X8608214Y-6048043D01*
X8622500Y-6062329D01*
X8651071Y-6076614D01*
X8708214Y-6076614D01*
X8736786Y-6062329D01*
X8751071Y-6048043D01*
X8765357Y-6019471D01*
X8765357Y-5948043D01*
X8751071Y-5919471D01*
X8736786Y-5905186D01*
X8708214Y-5890900D01*
X8651071Y-5890900D01*
X8622500Y-5905186D01*
X8608214Y-5919471D01*
X8593928Y-5948043D01*
X8936786Y-5905186D02*
X8908214Y-5890900D01*
X8893928Y-5876614D01*
X8879643Y-5848043D01*
X8879643Y-5833757D01*
X8893928Y-5805186D01*
X8908214Y-5790900D01*
X8936786Y-5776614D01*
X8993928Y-5776614D01*
X9022500Y-5790900D01*
X9036786Y-5805186D01*
X9051071Y-5833757D01*
X9051071Y-5848043D01*
X9036786Y-5876614D01*
X9022500Y-5890900D01*
X8993928Y-5905186D01*
X8936786Y-5905186D01*
X8908214Y-5919471D01*
X8893928Y-5933757D01*
X8879643Y-5962329D01*
X8879643Y-6019471D01*
X8893928Y-6048043D01*
X8908214Y-6062329D01*
X8936786Y-6076614D01*
X8993928Y-6076614D01*
X9022500Y-6062329D01*
X9036786Y-6048043D01*
X9051071Y-6019471D01*
X9051071Y-5962329D01*
X9036786Y-5933757D01*
X9022500Y-5919471D01*
X8993928Y-5905186D01*
X9408214Y-6076614D02*
X9408214Y-5776614D01*
X9536786Y-6076614D02*
X9536786Y-5919471D01*
X9522500Y-5890900D01*
X9493928Y-5876614D01*
X9451071Y-5876614D01*
X9422500Y-5890900D01*
X9408214Y-5905186D01*
X9722500Y-6076614D02*
X9693928Y-6062329D01*
X9679643Y-6048043D01*
X9665357Y-6019471D01*
X9665357Y-5933757D01*
X9679643Y-5905186D01*
X9693928Y-5890900D01*
X9722500Y-5876614D01*
X9765357Y-5876614D01*
X9793928Y-5890900D01*
X9808214Y-5905186D01*
X9822500Y-5933757D01*
X9822500Y-6019471D01*
X9808214Y-6048043D01*
X9793928Y-6062329D01*
X9765357Y-6076614D01*
X9722500Y-6076614D01*
X9993928Y-6076614D02*
X9965357Y-6062329D01*
X9951071Y-6033757D01*
X9951071Y-5776614D01*
X10222500Y-6062329D02*
X10193928Y-6076614D01*
X10136786Y-6076614D01*
X10108214Y-6062329D01*
X10093928Y-6033757D01*
X10093928Y-5919471D01*
X10108214Y-5890900D01*
X10136786Y-5876614D01*
X10193928Y-5876614D01*
X10222500Y-5890900D01*
X10236786Y-5919471D01*
X10236786Y-5948043D01*
X10093928Y-5976614D01*
X10351071Y-6062329D02*
X10379643Y-6076614D01*
X10436786Y-6076614D01*
X10465357Y-6062329D01*
X10479643Y-6033757D01*
X10479643Y-6019471D01*
X10465357Y-5990900D01*
X10436786Y-5976614D01*
X10393928Y-5976614D01*
X10365357Y-5962329D01*
X10351071Y-5933757D01*
X10351071Y-5919471D01*
X10365357Y-5890900D01*
X10393928Y-5876614D01*
X10436786Y-5876614D01*
X10465357Y-5890900D01*
X10579643Y-6190900D02*
X10593928Y-6176614D01*
X10622500Y-6133757D01*
X10636786Y-6105186D01*
X10651071Y-6062329D01*
X10665357Y-5990900D01*
X10665357Y-5933757D01*
X10651071Y-5862329D01*
X10636786Y-5819471D01*
X10622500Y-5790900D01*
X10593928Y-5748043D01*
X10579643Y-5733757D01*
X3807500Y-6336900D02*
G75*
G03X3807500Y-6336900I-60000J0D01*
G01*
X4251071Y-6472614D02*
X4079643Y-6472614D01*
X4165357Y-6472614D02*
X4165357Y-6172614D01*
X4136786Y-6215471D01*
X4108214Y-6244043D01*
X4079643Y-6258329D01*
X4379643Y-6444043D02*
X4393928Y-6458329D01*
X4379643Y-6472614D01*
X4365357Y-6458329D01*
X4379643Y-6444043D01*
X4379643Y-6472614D01*
X4508214Y-6201186D02*
X4522500Y-6186900D01*
X4551071Y-6172614D01*
X4622500Y-6172614D01*
X4651071Y-6186900D01*
X4665357Y-6201186D01*
X4679643Y-6229757D01*
X4679643Y-6258329D01*
X4665357Y-6301186D01*
X4493928Y-6472614D01*
X4679643Y-6472614D01*
X4865357Y-6172614D02*
X4893928Y-6172614D01*
X4922500Y-6186900D01*
X4936786Y-6201186D01*
X4951071Y-6229757D01*
X4965357Y-6286900D01*
X4965357Y-6358329D01*
X4951071Y-6415471D01*
X4936786Y-6444043D01*
X4922500Y-6458329D01*
X4893928Y-6472614D01*
X4865357Y-6472614D01*
X4836786Y-6458329D01*
X4822500Y-6444043D01*
X4808214Y-6415471D01*
X4793928Y-6358329D01*
X4793928Y-6286900D01*
X4808214Y-6229757D01*
X4822500Y-6201186D01*
X4836786Y-6186900D01*
X4865357Y-6172614D01*
X5093928Y-6472614D02*
X5093928Y-6272614D01*
X5093928Y-6301186D02*
X5108214Y-6286900D01*
X5136786Y-6272614D01*
X5179643Y-6272614D01*
X5208214Y-6286900D01*
X5222500Y-6315471D01*
X5222500Y-6472614D01*
X5222500Y-6315471D02*
X5236786Y-6286900D01*
X5265357Y-6272614D01*
X5308214Y-6272614D01*
X5336786Y-6286900D01*
X5351071Y-6315471D01*
X5351071Y-6472614D01*
X5493928Y-6472614D02*
X5493928Y-6272614D01*
X5493928Y-6301186D02*
X5508214Y-6286900D01*
X5536786Y-6272614D01*
X5579643Y-6272614D01*
X5608214Y-6286900D01*
X5622500Y-6315471D01*
X5622500Y-6472614D01*
X5622500Y-6315471D02*
X5636786Y-6286900D01*
X5665357Y-6272614D01*
X5708214Y-6272614D01*
X5736786Y-6286900D01*
X5751071Y-6315471D01*
X5751071Y-6472614D01*
X6336786Y-6158329D02*
X6079643Y-6544043D01*
X6722500Y-6172614D02*
X6751071Y-6172614D01*
X6779643Y-6186900D01*
X6793928Y-6201186D01*
X6808214Y-6229757D01*
X6822500Y-6286900D01*
X6822500Y-6358329D01*
X6808214Y-6415471D01*
X6793928Y-6444043D01*
X6779643Y-6458329D01*
X6751071Y-6472614D01*
X6722500Y-6472614D01*
X6693928Y-6458329D01*
X6679643Y-6444043D01*
X6665357Y-6415471D01*
X6651071Y-6358329D01*
X6651071Y-6286900D01*
X6665357Y-6229757D01*
X6679643Y-6201186D01*
X6693928Y-6186900D01*
X6722500Y-6172614D01*
X6951071Y-6444043D02*
X6965357Y-6458329D01*
X6951071Y-6472614D01*
X6936786Y-6458329D01*
X6951071Y-6444043D01*
X6951071Y-6472614D01*
X7151071Y-6172614D02*
X7179643Y-6172614D01*
X7208214Y-6186900D01*
X7222500Y-6201186D01*
X7236786Y-6229757D01*
X7251071Y-6286900D01*
X7251071Y-6358329D01*
X7236786Y-6415471D01*
X7222500Y-6444043D01*
X7208214Y-6458329D01*
X7179643Y-6472614D01*
X7151071Y-6472614D01*
X7122500Y-6458329D01*
X7108214Y-6444043D01*
X7093928Y-6415471D01*
X7079643Y-6358329D01*
X7079643Y-6286900D01*
X7093928Y-6229757D01*
X7108214Y-6201186D01*
X7122500Y-6186900D01*
X7151071Y-6172614D01*
X7508214Y-6272614D02*
X7508214Y-6472614D01*
X7436786Y-6158329D02*
X7365357Y-6372614D01*
X7551071Y-6372614D01*
X7636786Y-6172614D02*
X7836786Y-6172614D01*
X7708214Y-6472614D01*
X7936786Y-6172614D02*
X7936786Y-6229757D01*
X8051071Y-6172614D02*
X8051071Y-6229757D01*
X8493928Y-6586900D02*
X8479643Y-6572614D01*
X8451071Y-6529757D01*
X8436786Y-6501186D01*
X8422500Y-6458329D01*
X8408214Y-6386900D01*
X8408214Y-6329757D01*
X8422500Y-6258329D01*
X8436786Y-6215471D01*
X8451071Y-6186900D01*
X8479643Y-6144043D01*
X8493928Y-6129757D01*
X8736786Y-6272614D02*
X8736786Y-6472614D01*
X8665357Y-6158329D02*
X8593928Y-6372614D01*
X8779643Y-6372614D01*
X9122500Y-6472614D02*
X9122500Y-6172614D01*
X9251071Y-6472614D02*
X9251071Y-6315471D01*
X9236786Y-6286900D01*
X9208214Y-6272614D01*
X9165357Y-6272614D01*
X9136786Y-6286900D01*
X9122500Y-6301186D01*
X9436786Y-6472614D02*
X9408214Y-6458329D01*
X9393928Y-6444043D01*
X9379643Y-6415471D01*
X9379643Y-6329757D01*
X9393928Y-6301186D01*
X9408214Y-6286900D01*
X9436786Y-6272614D01*
X9479643Y-6272614D01*
X9508214Y-6286900D01*
X9522500Y-6301186D01*
X9536786Y-6329757D01*
X9536786Y-6415471D01*
X9522500Y-6444043D01*
X9508214Y-6458329D01*
X9479643Y-6472614D01*
X9436786Y-6472614D01*
X9708214Y-6472614D02*
X9679643Y-6458329D01*
X9665357Y-6429757D01*
X9665357Y-6172614D01*
X9936786Y-6458329D02*
X9908214Y-6472614D01*
X9851071Y-6472614D01*
X9822500Y-6458329D01*
X9808214Y-6429757D01*
X9808214Y-6315471D01*
X9822500Y-6286900D01*
X9851071Y-6272614D01*
X9908214Y-6272614D01*
X9936786Y-6286900D01*
X9951071Y-6315471D01*
X9951071Y-6344043D01*
X9808214Y-6372614D01*
X10065357Y-6458329D02*
X10093928Y-6472614D01*
X10151071Y-6472614D01*
X10179643Y-6458329D01*
X10193928Y-6429757D01*
X10193928Y-6415471D01*
X10179643Y-6386900D01*
X10151071Y-6372614D01*
X10108214Y-6372614D01*
X10079643Y-6358329D01*
X10065357Y-6329757D01*
X10065357Y-6315471D01*
X10079643Y-6286900D01*
X10108214Y-6272614D01*
X10151071Y-6272614D01*
X10179643Y-6286900D01*
X10293928Y-6586900D02*
X10308214Y-6572614D01*
X10336786Y-6529757D01*
X10351071Y-6501186D01*
X10365357Y-6458329D01*
X10379643Y-6386900D01*
X10379643Y-6329757D01*
X10365357Y-6258329D01*
X10351071Y-6215471D01*
X10336786Y-6186900D01*
X10308214Y-6144043D01*
X10293928Y-6129757D01*
M02*
