G04 #@! TF.GenerationSoftware,KiCad,Pcbnew,(5.1.5-0-10_14)*
G04 #@! TF.CreationDate,2020-02-19T17:33:04+11:00*
G04 #@! TF.ProjectId,HX Internal FDD Adapter,48582049-6e74-4657-926e-616c20464444,rev?*
G04 #@! TF.SameCoordinates,Original*
G04 #@! TF.FileFunction,Soldermask,Bot*
G04 #@! TF.FilePolarity,Negative*
%FSLAX46Y46*%
G04 Gerber Fmt 4.6, Leading zero omitted, Abs format (unit mm)*
G04 Created by KiCad (PCBNEW (5.1.5-0-10_14)) date 2020-02-19 17:33:04*
%MOMM*%
%LPD*%
G04 APERTURE LIST*
%ADD10C,0.100000*%
G04 APERTURE END LIST*
D10*
G36*
X93074142Y-45700242D02*
G01*
X93222101Y-45761529D01*
X93355255Y-45850499D01*
X93468501Y-45963745D01*
X93557471Y-46096899D01*
X93618758Y-46244858D01*
X93650000Y-46401925D01*
X93650000Y-46562075D01*
X93618758Y-46719142D01*
X93557471Y-46867101D01*
X93468501Y-47000255D01*
X93355255Y-47113501D01*
X93222101Y-47202471D01*
X93074142Y-47263758D01*
X92917075Y-47295000D01*
X92756925Y-47295000D01*
X92599858Y-47263758D01*
X92451899Y-47202471D01*
X92318745Y-47113501D01*
X92205499Y-47000255D01*
X92116529Y-46867101D01*
X92055242Y-46719142D01*
X92024000Y-46562075D01*
X92024000Y-46401925D01*
X92055242Y-46244858D01*
X92116529Y-46096899D01*
X92205499Y-45963745D01*
X92318745Y-45850499D01*
X92451899Y-45761529D01*
X92599858Y-45700242D01*
X92756925Y-45669000D01*
X92917075Y-45669000D01*
X93074142Y-45700242D01*
G37*
G36*
X90534142Y-45700242D02*
G01*
X90682101Y-45761529D01*
X90815255Y-45850499D01*
X90928501Y-45963745D01*
X91017471Y-46096899D01*
X91078758Y-46244858D01*
X91110000Y-46401925D01*
X91110000Y-46562075D01*
X91078758Y-46719142D01*
X91017471Y-46867101D01*
X90928501Y-47000255D01*
X90815255Y-47113501D01*
X90682101Y-47202471D01*
X90534142Y-47263758D01*
X90377075Y-47295000D01*
X90216925Y-47295000D01*
X90059858Y-47263758D01*
X89911899Y-47202471D01*
X89778745Y-47113501D01*
X89665499Y-47000255D01*
X89576529Y-46867101D01*
X89515242Y-46719142D01*
X89484000Y-46562075D01*
X89484000Y-46401925D01*
X89515242Y-46244858D01*
X89576529Y-46096899D01*
X89665499Y-45963745D01*
X89778745Y-45850499D01*
X89911899Y-45761529D01*
X90059858Y-45700242D01*
X90216925Y-45669000D01*
X90377075Y-45669000D01*
X90534142Y-45700242D01*
G37*
G36*
X87994142Y-45700242D02*
G01*
X88142101Y-45761529D01*
X88275255Y-45850499D01*
X88388501Y-45963745D01*
X88477471Y-46096899D01*
X88538758Y-46244858D01*
X88570000Y-46401925D01*
X88570000Y-46562075D01*
X88538758Y-46719142D01*
X88477471Y-46867101D01*
X88388501Y-47000255D01*
X88275255Y-47113501D01*
X88142101Y-47202471D01*
X87994142Y-47263758D01*
X87837075Y-47295000D01*
X87676925Y-47295000D01*
X87519858Y-47263758D01*
X87371899Y-47202471D01*
X87238745Y-47113501D01*
X87125499Y-47000255D01*
X87036529Y-46867101D01*
X86975242Y-46719142D01*
X86944000Y-46562075D01*
X86944000Y-46401925D01*
X86975242Y-46244858D01*
X87036529Y-46096899D01*
X87125499Y-45963745D01*
X87238745Y-45850499D01*
X87371899Y-45761529D01*
X87519858Y-45700242D01*
X87676925Y-45669000D01*
X87837075Y-45669000D01*
X87994142Y-45700242D01*
G37*
G36*
X85454142Y-45700242D02*
G01*
X85602101Y-45761529D01*
X85735255Y-45850499D01*
X85848501Y-45963745D01*
X85937471Y-46096899D01*
X85998758Y-46244858D01*
X86030000Y-46401925D01*
X86030000Y-46562075D01*
X85998758Y-46719142D01*
X85937471Y-46867101D01*
X85848501Y-47000255D01*
X85735255Y-47113501D01*
X85602101Y-47202471D01*
X85454142Y-47263758D01*
X85297075Y-47295000D01*
X85136925Y-47295000D01*
X84979858Y-47263758D01*
X84831899Y-47202471D01*
X84698745Y-47113501D01*
X84585499Y-47000255D01*
X84496529Y-46867101D01*
X84435242Y-46719142D01*
X84404000Y-46562075D01*
X84404000Y-46401925D01*
X84435242Y-46244858D01*
X84496529Y-46096899D01*
X84585499Y-45963745D01*
X84698745Y-45850499D01*
X84831899Y-45761529D01*
X84979858Y-45700242D01*
X85136925Y-45669000D01*
X85297075Y-45669000D01*
X85454142Y-45700242D01*
G37*
G36*
X82914142Y-45700242D02*
G01*
X83062101Y-45761529D01*
X83195255Y-45850499D01*
X83308501Y-45963745D01*
X83397471Y-46096899D01*
X83458758Y-46244858D01*
X83490000Y-46401925D01*
X83490000Y-46562075D01*
X83458758Y-46719142D01*
X83397471Y-46867101D01*
X83308501Y-47000255D01*
X83195255Y-47113501D01*
X83062101Y-47202471D01*
X82914142Y-47263758D01*
X82757075Y-47295000D01*
X82596925Y-47295000D01*
X82439858Y-47263758D01*
X82291899Y-47202471D01*
X82158745Y-47113501D01*
X82045499Y-47000255D01*
X81956529Y-46867101D01*
X81895242Y-46719142D01*
X81864000Y-46562075D01*
X81864000Y-46401925D01*
X81895242Y-46244858D01*
X81956529Y-46096899D01*
X82045499Y-45963745D01*
X82158745Y-45850499D01*
X82291899Y-45761529D01*
X82439858Y-45700242D01*
X82596925Y-45669000D01*
X82757075Y-45669000D01*
X82914142Y-45700242D01*
G37*
G36*
X80374142Y-45700242D02*
G01*
X80522101Y-45761529D01*
X80655255Y-45850499D01*
X80768501Y-45963745D01*
X80857471Y-46096899D01*
X80918758Y-46244858D01*
X80950000Y-46401925D01*
X80950000Y-46562075D01*
X80918758Y-46719142D01*
X80857471Y-46867101D01*
X80768501Y-47000255D01*
X80655255Y-47113501D01*
X80522101Y-47202471D01*
X80374142Y-47263758D01*
X80217075Y-47295000D01*
X80056925Y-47295000D01*
X79899858Y-47263758D01*
X79751899Y-47202471D01*
X79618745Y-47113501D01*
X79505499Y-47000255D01*
X79416529Y-46867101D01*
X79355242Y-46719142D01*
X79324000Y-46562075D01*
X79324000Y-46401925D01*
X79355242Y-46244858D01*
X79416529Y-46096899D01*
X79505499Y-45963745D01*
X79618745Y-45850499D01*
X79751899Y-45761529D01*
X79899858Y-45700242D01*
X80056925Y-45669000D01*
X80217075Y-45669000D01*
X80374142Y-45700242D01*
G37*
G36*
X77834142Y-45700242D02*
G01*
X77982101Y-45761529D01*
X78115255Y-45850499D01*
X78228501Y-45963745D01*
X78317471Y-46096899D01*
X78378758Y-46244858D01*
X78410000Y-46401925D01*
X78410000Y-46562075D01*
X78378758Y-46719142D01*
X78317471Y-46867101D01*
X78228501Y-47000255D01*
X78115255Y-47113501D01*
X77982101Y-47202471D01*
X77834142Y-47263758D01*
X77677075Y-47295000D01*
X77516925Y-47295000D01*
X77359858Y-47263758D01*
X77211899Y-47202471D01*
X77078745Y-47113501D01*
X76965499Y-47000255D01*
X76876529Y-46867101D01*
X76815242Y-46719142D01*
X76784000Y-46562075D01*
X76784000Y-46401925D01*
X76815242Y-46244858D01*
X76876529Y-46096899D01*
X76965499Y-45963745D01*
X77078745Y-45850499D01*
X77211899Y-45761529D01*
X77359858Y-45700242D01*
X77516925Y-45669000D01*
X77677075Y-45669000D01*
X77834142Y-45700242D01*
G37*
G36*
X75294142Y-45700242D02*
G01*
X75442101Y-45761529D01*
X75575255Y-45850499D01*
X75688501Y-45963745D01*
X75777471Y-46096899D01*
X75838758Y-46244858D01*
X75870000Y-46401925D01*
X75870000Y-46562075D01*
X75838758Y-46719142D01*
X75777471Y-46867101D01*
X75688501Y-47000255D01*
X75575255Y-47113501D01*
X75442101Y-47202471D01*
X75294142Y-47263758D01*
X75137075Y-47295000D01*
X74976925Y-47295000D01*
X74819858Y-47263758D01*
X74671899Y-47202471D01*
X74538745Y-47113501D01*
X74425499Y-47000255D01*
X74336529Y-46867101D01*
X74275242Y-46719142D01*
X74244000Y-46562075D01*
X74244000Y-46401925D01*
X74275242Y-46244858D01*
X74336529Y-46096899D01*
X74425499Y-45963745D01*
X74538745Y-45850499D01*
X74671899Y-45761529D01*
X74819858Y-45700242D01*
X74976925Y-45669000D01*
X75137075Y-45669000D01*
X75294142Y-45700242D01*
G37*
G36*
X72754142Y-45700242D02*
G01*
X72902101Y-45761529D01*
X73035255Y-45850499D01*
X73148501Y-45963745D01*
X73237471Y-46096899D01*
X73298758Y-46244858D01*
X73330000Y-46401925D01*
X73330000Y-46562075D01*
X73298758Y-46719142D01*
X73237471Y-46867101D01*
X73148501Y-47000255D01*
X73035255Y-47113501D01*
X72902101Y-47202471D01*
X72754142Y-47263758D01*
X72597075Y-47295000D01*
X72436925Y-47295000D01*
X72279858Y-47263758D01*
X72131899Y-47202471D01*
X71998745Y-47113501D01*
X71885499Y-47000255D01*
X71796529Y-46867101D01*
X71735242Y-46719142D01*
X71704000Y-46562075D01*
X71704000Y-46401925D01*
X71735242Y-46244858D01*
X71796529Y-46096899D01*
X71885499Y-45963745D01*
X71998745Y-45850499D01*
X72131899Y-45761529D01*
X72279858Y-45700242D01*
X72436925Y-45669000D01*
X72597075Y-45669000D01*
X72754142Y-45700242D01*
G37*
G36*
X70214142Y-45700242D02*
G01*
X70362101Y-45761529D01*
X70495255Y-45850499D01*
X70608501Y-45963745D01*
X70697471Y-46096899D01*
X70758758Y-46244858D01*
X70790000Y-46401925D01*
X70790000Y-46562075D01*
X70758758Y-46719142D01*
X70697471Y-46867101D01*
X70608501Y-47000255D01*
X70495255Y-47113501D01*
X70362101Y-47202471D01*
X70214142Y-47263758D01*
X70057075Y-47295000D01*
X69896925Y-47295000D01*
X69739858Y-47263758D01*
X69591899Y-47202471D01*
X69458745Y-47113501D01*
X69345499Y-47000255D01*
X69256529Y-46867101D01*
X69195242Y-46719142D01*
X69164000Y-46562075D01*
X69164000Y-46401925D01*
X69195242Y-46244858D01*
X69256529Y-46096899D01*
X69345499Y-45963745D01*
X69458745Y-45850499D01*
X69591899Y-45761529D01*
X69739858Y-45700242D01*
X69896925Y-45669000D01*
X70057075Y-45669000D01*
X70214142Y-45700242D01*
G37*
G36*
X67674142Y-45700242D02*
G01*
X67822101Y-45761529D01*
X67955255Y-45850499D01*
X68068501Y-45963745D01*
X68157471Y-46096899D01*
X68218758Y-46244858D01*
X68250000Y-46401925D01*
X68250000Y-46562075D01*
X68218758Y-46719142D01*
X68157471Y-46867101D01*
X68068501Y-47000255D01*
X67955255Y-47113501D01*
X67822101Y-47202471D01*
X67674142Y-47263758D01*
X67517075Y-47295000D01*
X67356925Y-47295000D01*
X67199858Y-47263758D01*
X67051899Y-47202471D01*
X66918745Y-47113501D01*
X66805499Y-47000255D01*
X66716529Y-46867101D01*
X66655242Y-46719142D01*
X66624000Y-46562075D01*
X66624000Y-46401925D01*
X66655242Y-46244858D01*
X66716529Y-46096899D01*
X66805499Y-45963745D01*
X66918745Y-45850499D01*
X67051899Y-45761529D01*
X67199858Y-45700242D01*
X67356925Y-45669000D01*
X67517075Y-45669000D01*
X67674142Y-45700242D01*
G37*
G36*
X65134142Y-45700242D02*
G01*
X65282101Y-45761529D01*
X65415255Y-45850499D01*
X65528501Y-45963745D01*
X65617471Y-46096899D01*
X65678758Y-46244858D01*
X65710000Y-46401925D01*
X65710000Y-46562075D01*
X65678758Y-46719142D01*
X65617471Y-46867101D01*
X65528501Y-47000255D01*
X65415255Y-47113501D01*
X65282101Y-47202471D01*
X65134142Y-47263758D01*
X64977075Y-47295000D01*
X64816925Y-47295000D01*
X64659858Y-47263758D01*
X64511899Y-47202471D01*
X64378745Y-47113501D01*
X64265499Y-47000255D01*
X64176529Y-46867101D01*
X64115242Y-46719142D01*
X64084000Y-46562075D01*
X64084000Y-46401925D01*
X64115242Y-46244858D01*
X64176529Y-46096899D01*
X64265499Y-45963745D01*
X64378745Y-45850499D01*
X64511899Y-45761529D01*
X64659858Y-45700242D01*
X64816925Y-45669000D01*
X64977075Y-45669000D01*
X65134142Y-45700242D01*
G37*
G36*
X62594142Y-45700242D02*
G01*
X62742101Y-45761529D01*
X62875255Y-45850499D01*
X62988501Y-45963745D01*
X63077471Y-46096899D01*
X63138758Y-46244858D01*
X63170000Y-46401925D01*
X63170000Y-46562075D01*
X63138758Y-46719142D01*
X63077471Y-46867101D01*
X62988501Y-47000255D01*
X62875255Y-47113501D01*
X62742101Y-47202471D01*
X62594142Y-47263758D01*
X62437075Y-47295000D01*
X62276925Y-47295000D01*
X62119858Y-47263758D01*
X61971899Y-47202471D01*
X61838745Y-47113501D01*
X61725499Y-47000255D01*
X61636529Y-46867101D01*
X61575242Y-46719142D01*
X61544000Y-46562075D01*
X61544000Y-46401925D01*
X61575242Y-46244858D01*
X61636529Y-46096899D01*
X61725499Y-45963745D01*
X61838745Y-45850499D01*
X61971899Y-45761529D01*
X62119858Y-45700242D01*
X62276925Y-45669000D01*
X62437075Y-45669000D01*
X62594142Y-45700242D01*
G37*
G36*
X60054142Y-45700242D02*
G01*
X60202101Y-45761529D01*
X60335255Y-45850499D01*
X60448501Y-45963745D01*
X60537471Y-46096899D01*
X60598758Y-46244858D01*
X60630000Y-46401925D01*
X60630000Y-46562075D01*
X60598758Y-46719142D01*
X60537471Y-46867101D01*
X60448501Y-47000255D01*
X60335255Y-47113501D01*
X60202101Y-47202471D01*
X60054142Y-47263758D01*
X59897075Y-47295000D01*
X59736925Y-47295000D01*
X59579858Y-47263758D01*
X59431899Y-47202471D01*
X59298745Y-47113501D01*
X59185499Y-47000255D01*
X59096529Y-46867101D01*
X59035242Y-46719142D01*
X59004000Y-46562075D01*
X59004000Y-46401925D01*
X59035242Y-46244858D01*
X59096529Y-46096899D01*
X59185499Y-45963745D01*
X59298745Y-45850499D01*
X59431899Y-45761529D01*
X59579858Y-45700242D01*
X59736925Y-45669000D01*
X59897075Y-45669000D01*
X60054142Y-45700242D01*
G37*
G36*
X57514142Y-45700242D02*
G01*
X57662101Y-45761529D01*
X57795255Y-45850499D01*
X57908501Y-45963745D01*
X57997471Y-46096899D01*
X58058758Y-46244858D01*
X58090000Y-46401925D01*
X58090000Y-46562075D01*
X58058758Y-46719142D01*
X57997471Y-46867101D01*
X57908501Y-47000255D01*
X57795255Y-47113501D01*
X57662101Y-47202471D01*
X57514142Y-47263758D01*
X57357075Y-47295000D01*
X57196925Y-47295000D01*
X57039858Y-47263758D01*
X56891899Y-47202471D01*
X56758745Y-47113501D01*
X56645499Y-47000255D01*
X56556529Y-46867101D01*
X56495242Y-46719142D01*
X56464000Y-46562075D01*
X56464000Y-46401925D01*
X56495242Y-46244858D01*
X56556529Y-46096899D01*
X56645499Y-45963745D01*
X56758745Y-45850499D01*
X56891899Y-45761529D01*
X57039858Y-45700242D01*
X57196925Y-45669000D01*
X57357075Y-45669000D01*
X57514142Y-45700242D01*
G37*
G36*
X54974142Y-45700242D02*
G01*
X55122101Y-45761529D01*
X55255255Y-45850499D01*
X55368501Y-45963745D01*
X55457471Y-46096899D01*
X55518758Y-46244858D01*
X55550000Y-46401925D01*
X55550000Y-46562075D01*
X55518758Y-46719142D01*
X55457471Y-46867101D01*
X55368501Y-47000255D01*
X55255255Y-47113501D01*
X55122101Y-47202471D01*
X54974142Y-47263758D01*
X54817075Y-47295000D01*
X54656925Y-47295000D01*
X54499858Y-47263758D01*
X54351899Y-47202471D01*
X54218745Y-47113501D01*
X54105499Y-47000255D01*
X54016529Y-46867101D01*
X53955242Y-46719142D01*
X53924000Y-46562075D01*
X53924000Y-46401925D01*
X53955242Y-46244858D01*
X54016529Y-46096899D01*
X54105499Y-45963745D01*
X54218745Y-45850499D01*
X54351899Y-45761529D01*
X54499858Y-45700242D01*
X54656925Y-45669000D01*
X54817075Y-45669000D01*
X54974142Y-45700242D01*
G37*
G36*
X53010000Y-47295000D02*
G01*
X51384000Y-47295000D01*
X51384000Y-45669000D01*
X53010000Y-45669000D01*
X53010000Y-47295000D01*
G37*
G36*
X43173561Y-44548966D02*
G01*
X43206383Y-44558923D01*
X43236632Y-44575092D01*
X43263148Y-44596852D01*
X43284908Y-44623368D01*
X43301077Y-44653617D01*
X43311034Y-44686439D01*
X43315000Y-44726713D01*
X43315000Y-46205287D01*
X43311034Y-46245561D01*
X43301077Y-46278383D01*
X43284908Y-46308632D01*
X43263148Y-46335148D01*
X43236632Y-46356908D01*
X43206383Y-46373077D01*
X43173561Y-46383034D01*
X43133287Y-46387000D01*
X41194713Y-46387000D01*
X41154439Y-46383034D01*
X41121617Y-46373077D01*
X41091368Y-46356908D01*
X41064852Y-46335148D01*
X41043092Y-46308632D01*
X41026923Y-46278383D01*
X41016966Y-46245561D01*
X41013000Y-46205287D01*
X41013000Y-44726713D01*
X41016966Y-44686439D01*
X41026923Y-44653617D01*
X41043092Y-44623368D01*
X41064852Y-44596852D01*
X41091368Y-44575092D01*
X41121617Y-44558923D01*
X41154439Y-44548966D01*
X41194713Y-44545000D01*
X43133287Y-44545000D01*
X43173561Y-44548966D01*
G37*
G36*
X62594142Y-43160242D02*
G01*
X62742101Y-43221529D01*
X62875255Y-43310499D01*
X62988501Y-43423745D01*
X63077471Y-43556899D01*
X63138758Y-43704858D01*
X63170000Y-43861925D01*
X63170000Y-44022075D01*
X63138758Y-44179142D01*
X63077471Y-44327101D01*
X62988501Y-44460255D01*
X62875255Y-44573501D01*
X62742101Y-44662471D01*
X62594142Y-44723758D01*
X62437075Y-44755000D01*
X62276925Y-44755000D01*
X62119858Y-44723758D01*
X61971899Y-44662471D01*
X61838745Y-44573501D01*
X61725499Y-44460255D01*
X61636529Y-44327101D01*
X61575242Y-44179142D01*
X61544000Y-44022075D01*
X61544000Y-43861925D01*
X61575242Y-43704858D01*
X61636529Y-43556899D01*
X61725499Y-43423745D01*
X61838745Y-43310499D01*
X61971899Y-43221529D01*
X62119858Y-43160242D01*
X62276925Y-43129000D01*
X62437075Y-43129000D01*
X62594142Y-43160242D01*
G37*
G36*
X70214142Y-43160242D02*
G01*
X70362101Y-43221529D01*
X70495255Y-43310499D01*
X70608501Y-43423745D01*
X70697471Y-43556899D01*
X70758758Y-43704858D01*
X70790000Y-43861925D01*
X70790000Y-44022075D01*
X70758758Y-44179142D01*
X70697471Y-44327101D01*
X70608501Y-44460255D01*
X70495255Y-44573501D01*
X70362101Y-44662471D01*
X70214142Y-44723758D01*
X70057075Y-44755000D01*
X69896925Y-44755000D01*
X69739858Y-44723758D01*
X69591899Y-44662471D01*
X69458745Y-44573501D01*
X69345499Y-44460255D01*
X69256529Y-44327101D01*
X69195242Y-44179142D01*
X69164000Y-44022075D01*
X69164000Y-43861925D01*
X69195242Y-43704858D01*
X69256529Y-43556899D01*
X69345499Y-43423745D01*
X69458745Y-43310499D01*
X69591899Y-43221529D01*
X69739858Y-43160242D01*
X69896925Y-43129000D01*
X70057075Y-43129000D01*
X70214142Y-43160242D01*
G37*
G36*
X52434142Y-43160242D02*
G01*
X52582101Y-43221529D01*
X52715255Y-43310499D01*
X52828501Y-43423745D01*
X52917471Y-43556899D01*
X52978758Y-43704858D01*
X53010000Y-43861925D01*
X53010000Y-44022075D01*
X52978758Y-44179142D01*
X52917471Y-44327101D01*
X52828501Y-44460255D01*
X52715255Y-44573501D01*
X52582101Y-44662471D01*
X52434142Y-44723758D01*
X52277075Y-44755000D01*
X52116925Y-44755000D01*
X51959858Y-44723758D01*
X51811899Y-44662471D01*
X51678745Y-44573501D01*
X51565499Y-44460255D01*
X51476529Y-44327101D01*
X51415242Y-44179142D01*
X51384000Y-44022075D01*
X51384000Y-43861925D01*
X51415242Y-43704858D01*
X51476529Y-43556899D01*
X51565499Y-43423745D01*
X51678745Y-43310499D01*
X51811899Y-43221529D01*
X51959858Y-43160242D01*
X52116925Y-43129000D01*
X52277075Y-43129000D01*
X52434142Y-43160242D01*
G37*
G36*
X72754142Y-43160242D02*
G01*
X72902101Y-43221529D01*
X73035255Y-43310499D01*
X73148501Y-43423745D01*
X73237471Y-43556899D01*
X73298758Y-43704858D01*
X73330000Y-43861925D01*
X73330000Y-44022075D01*
X73298758Y-44179142D01*
X73237471Y-44327101D01*
X73148501Y-44460255D01*
X73035255Y-44573501D01*
X72902101Y-44662471D01*
X72754142Y-44723758D01*
X72597075Y-44755000D01*
X72436925Y-44755000D01*
X72279858Y-44723758D01*
X72131899Y-44662471D01*
X71998745Y-44573501D01*
X71885499Y-44460255D01*
X71796529Y-44327101D01*
X71735242Y-44179142D01*
X71704000Y-44022075D01*
X71704000Y-43861925D01*
X71735242Y-43704858D01*
X71796529Y-43556899D01*
X71885499Y-43423745D01*
X71998745Y-43310499D01*
X72131899Y-43221529D01*
X72279858Y-43160242D01*
X72436925Y-43129000D01*
X72597075Y-43129000D01*
X72754142Y-43160242D01*
G37*
G36*
X54974142Y-43160242D02*
G01*
X55122101Y-43221529D01*
X55255255Y-43310499D01*
X55368501Y-43423745D01*
X55457471Y-43556899D01*
X55518758Y-43704858D01*
X55550000Y-43861925D01*
X55550000Y-44022075D01*
X55518758Y-44179142D01*
X55457471Y-44327101D01*
X55368501Y-44460255D01*
X55255255Y-44573501D01*
X55122101Y-44662471D01*
X54974142Y-44723758D01*
X54817075Y-44755000D01*
X54656925Y-44755000D01*
X54499858Y-44723758D01*
X54351899Y-44662471D01*
X54218745Y-44573501D01*
X54105499Y-44460255D01*
X54016529Y-44327101D01*
X53955242Y-44179142D01*
X53924000Y-44022075D01*
X53924000Y-43861925D01*
X53955242Y-43704858D01*
X54016529Y-43556899D01*
X54105499Y-43423745D01*
X54218745Y-43310499D01*
X54351899Y-43221529D01*
X54499858Y-43160242D01*
X54656925Y-43129000D01*
X54817075Y-43129000D01*
X54974142Y-43160242D01*
G37*
G36*
X93074142Y-43160242D02*
G01*
X93222101Y-43221529D01*
X93355255Y-43310499D01*
X93468501Y-43423745D01*
X93557471Y-43556899D01*
X93618758Y-43704858D01*
X93650000Y-43861925D01*
X93650000Y-44022075D01*
X93618758Y-44179142D01*
X93557471Y-44327101D01*
X93468501Y-44460255D01*
X93355255Y-44573501D01*
X93222101Y-44662471D01*
X93074142Y-44723758D01*
X92917075Y-44755000D01*
X92756925Y-44755000D01*
X92599858Y-44723758D01*
X92451899Y-44662471D01*
X92318745Y-44573501D01*
X92205499Y-44460255D01*
X92116529Y-44327101D01*
X92055242Y-44179142D01*
X92024000Y-44022075D01*
X92024000Y-43861925D01*
X92055242Y-43704858D01*
X92116529Y-43556899D01*
X92205499Y-43423745D01*
X92318745Y-43310499D01*
X92451899Y-43221529D01*
X92599858Y-43160242D01*
X92756925Y-43129000D01*
X92917075Y-43129000D01*
X93074142Y-43160242D01*
G37*
G36*
X57514142Y-43160242D02*
G01*
X57662101Y-43221529D01*
X57795255Y-43310499D01*
X57908501Y-43423745D01*
X57997471Y-43556899D01*
X58058758Y-43704858D01*
X58090000Y-43861925D01*
X58090000Y-44022075D01*
X58058758Y-44179142D01*
X57997471Y-44327101D01*
X57908501Y-44460255D01*
X57795255Y-44573501D01*
X57662101Y-44662471D01*
X57514142Y-44723758D01*
X57357075Y-44755000D01*
X57196925Y-44755000D01*
X57039858Y-44723758D01*
X56891899Y-44662471D01*
X56758745Y-44573501D01*
X56645499Y-44460255D01*
X56556529Y-44327101D01*
X56495242Y-44179142D01*
X56464000Y-44022075D01*
X56464000Y-43861925D01*
X56495242Y-43704858D01*
X56556529Y-43556899D01*
X56645499Y-43423745D01*
X56758745Y-43310499D01*
X56891899Y-43221529D01*
X57039858Y-43160242D01*
X57196925Y-43129000D01*
X57357075Y-43129000D01*
X57514142Y-43160242D01*
G37*
G36*
X90534142Y-43160242D02*
G01*
X90682101Y-43221529D01*
X90815255Y-43310499D01*
X90928501Y-43423745D01*
X91017471Y-43556899D01*
X91078758Y-43704858D01*
X91110000Y-43861925D01*
X91110000Y-44022075D01*
X91078758Y-44179142D01*
X91017471Y-44327101D01*
X90928501Y-44460255D01*
X90815255Y-44573501D01*
X90682101Y-44662471D01*
X90534142Y-44723758D01*
X90377075Y-44755000D01*
X90216925Y-44755000D01*
X90059858Y-44723758D01*
X89911899Y-44662471D01*
X89778745Y-44573501D01*
X89665499Y-44460255D01*
X89576529Y-44327101D01*
X89515242Y-44179142D01*
X89484000Y-44022075D01*
X89484000Y-43861925D01*
X89515242Y-43704858D01*
X89576529Y-43556899D01*
X89665499Y-43423745D01*
X89778745Y-43310499D01*
X89911899Y-43221529D01*
X90059858Y-43160242D01*
X90216925Y-43129000D01*
X90377075Y-43129000D01*
X90534142Y-43160242D01*
G37*
G36*
X60054142Y-43160242D02*
G01*
X60202101Y-43221529D01*
X60335255Y-43310499D01*
X60448501Y-43423745D01*
X60537471Y-43556899D01*
X60598758Y-43704858D01*
X60630000Y-43861925D01*
X60630000Y-44022075D01*
X60598758Y-44179142D01*
X60537471Y-44327101D01*
X60448501Y-44460255D01*
X60335255Y-44573501D01*
X60202101Y-44662471D01*
X60054142Y-44723758D01*
X59897075Y-44755000D01*
X59736925Y-44755000D01*
X59579858Y-44723758D01*
X59431899Y-44662471D01*
X59298745Y-44573501D01*
X59185499Y-44460255D01*
X59096529Y-44327101D01*
X59035242Y-44179142D01*
X59004000Y-44022075D01*
X59004000Y-43861925D01*
X59035242Y-43704858D01*
X59096529Y-43556899D01*
X59185499Y-43423745D01*
X59298745Y-43310499D01*
X59431899Y-43221529D01*
X59579858Y-43160242D01*
X59736925Y-43129000D01*
X59897075Y-43129000D01*
X60054142Y-43160242D01*
G37*
G36*
X87994142Y-43160242D02*
G01*
X88142101Y-43221529D01*
X88275255Y-43310499D01*
X88388501Y-43423745D01*
X88477471Y-43556899D01*
X88538758Y-43704858D01*
X88570000Y-43861925D01*
X88570000Y-44022075D01*
X88538758Y-44179142D01*
X88477471Y-44327101D01*
X88388501Y-44460255D01*
X88275255Y-44573501D01*
X88142101Y-44662471D01*
X87994142Y-44723758D01*
X87837075Y-44755000D01*
X87676925Y-44755000D01*
X87519858Y-44723758D01*
X87371899Y-44662471D01*
X87238745Y-44573501D01*
X87125499Y-44460255D01*
X87036529Y-44327101D01*
X86975242Y-44179142D01*
X86944000Y-44022075D01*
X86944000Y-43861925D01*
X86975242Y-43704858D01*
X87036529Y-43556899D01*
X87125499Y-43423745D01*
X87238745Y-43310499D01*
X87371899Y-43221529D01*
X87519858Y-43160242D01*
X87676925Y-43129000D01*
X87837075Y-43129000D01*
X87994142Y-43160242D01*
G37*
G36*
X65134142Y-43160242D02*
G01*
X65282101Y-43221529D01*
X65415255Y-43310499D01*
X65528501Y-43423745D01*
X65617471Y-43556899D01*
X65678758Y-43704858D01*
X65710000Y-43861925D01*
X65710000Y-44022075D01*
X65678758Y-44179142D01*
X65617471Y-44327101D01*
X65528501Y-44460255D01*
X65415255Y-44573501D01*
X65282101Y-44662471D01*
X65134142Y-44723758D01*
X64977075Y-44755000D01*
X64816925Y-44755000D01*
X64659858Y-44723758D01*
X64511899Y-44662471D01*
X64378745Y-44573501D01*
X64265499Y-44460255D01*
X64176529Y-44327101D01*
X64115242Y-44179142D01*
X64084000Y-44022075D01*
X64084000Y-43861925D01*
X64115242Y-43704858D01*
X64176529Y-43556899D01*
X64265499Y-43423745D01*
X64378745Y-43310499D01*
X64511899Y-43221529D01*
X64659858Y-43160242D01*
X64816925Y-43129000D01*
X64977075Y-43129000D01*
X65134142Y-43160242D01*
G37*
G36*
X85454142Y-43160242D02*
G01*
X85602101Y-43221529D01*
X85735255Y-43310499D01*
X85848501Y-43423745D01*
X85937471Y-43556899D01*
X85998758Y-43704858D01*
X86030000Y-43861925D01*
X86030000Y-44022075D01*
X85998758Y-44179142D01*
X85937471Y-44327101D01*
X85848501Y-44460255D01*
X85735255Y-44573501D01*
X85602101Y-44662471D01*
X85454142Y-44723758D01*
X85297075Y-44755000D01*
X85136925Y-44755000D01*
X84979858Y-44723758D01*
X84831899Y-44662471D01*
X84698745Y-44573501D01*
X84585499Y-44460255D01*
X84496529Y-44327101D01*
X84435242Y-44179142D01*
X84404000Y-44022075D01*
X84404000Y-43861925D01*
X84435242Y-43704858D01*
X84496529Y-43556899D01*
X84585499Y-43423745D01*
X84698745Y-43310499D01*
X84831899Y-43221529D01*
X84979858Y-43160242D01*
X85136925Y-43129000D01*
X85297075Y-43129000D01*
X85454142Y-43160242D01*
G37*
G36*
X67674142Y-43160242D02*
G01*
X67822101Y-43221529D01*
X67955255Y-43310499D01*
X68068501Y-43423745D01*
X68157471Y-43556899D01*
X68218758Y-43704858D01*
X68250000Y-43861925D01*
X68250000Y-44022075D01*
X68218758Y-44179142D01*
X68157471Y-44327101D01*
X68068501Y-44460255D01*
X67955255Y-44573501D01*
X67822101Y-44662471D01*
X67674142Y-44723758D01*
X67517075Y-44755000D01*
X67356925Y-44755000D01*
X67199858Y-44723758D01*
X67051899Y-44662471D01*
X66918745Y-44573501D01*
X66805499Y-44460255D01*
X66716529Y-44327101D01*
X66655242Y-44179142D01*
X66624000Y-44022075D01*
X66624000Y-43861925D01*
X66655242Y-43704858D01*
X66716529Y-43556899D01*
X66805499Y-43423745D01*
X66918745Y-43310499D01*
X67051899Y-43221529D01*
X67199858Y-43160242D01*
X67356925Y-43129000D01*
X67517075Y-43129000D01*
X67674142Y-43160242D01*
G37*
G36*
X82914142Y-43160242D02*
G01*
X83062101Y-43221529D01*
X83195255Y-43310499D01*
X83308501Y-43423745D01*
X83397471Y-43556899D01*
X83458758Y-43704858D01*
X83490000Y-43861925D01*
X83490000Y-44022075D01*
X83458758Y-44179142D01*
X83397471Y-44327101D01*
X83308501Y-44460255D01*
X83195255Y-44573501D01*
X83062101Y-44662471D01*
X82914142Y-44723758D01*
X82757075Y-44755000D01*
X82596925Y-44755000D01*
X82439858Y-44723758D01*
X82291899Y-44662471D01*
X82158745Y-44573501D01*
X82045499Y-44460255D01*
X81956529Y-44327101D01*
X81895242Y-44179142D01*
X81864000Y-44022075D01*
X81864000Y-43861925D01*
X81895242Y-43704858D01*
X81956529Y-43556899D01*
X82045499Y-43423745D01*
X82158745Y-43310499D01*
X82291899Y-43221529D01*
X82439858Y-43160242D01*
X82596925Y-43129000D01*
X82757075Y-43129000D01*
X82914142Y-43160242D01*
G37*
G36*
X80374142Y-43160242D02*
G01*
X80522101Y-43221529D01*
X80655255Y-43310499D01*
X80768501Y-43423745D01*
X80857471Y-43556899D01*
X80918758Y-43704858D01*
X80950000Y-43861925D01*
X80950000Y-44022075D01*
X80918758Y-44179142D01*
X80857471Y-44327101D01*
X80768501Y-44460255D01*
X80655255Y-44573501D01*
X80522101Y-44662471D01*
X80374142Y-44723758D01*
X80217075Y-44755000D01*
X80056925Y-44755000D01*
X79899858Y-44723758D01*
X79751899Y-44662471D01*
X79618745Y-44573501D01*
X79505499Y-44460255D01*
X79416529Y-44327101D01*
X79355242Y-44179142D01*
X79324000Y-44022075D01*
X79324000Y-43861925D01*
X79355242Y-43704858D01*
X79416529Y-43556899D01*
X79505499Y-43423745D01*
X79618745Y-43310499D01*
X79751899Y-43221529D01*
X79899858Y-43160242D01*
X80056925Y-43129000D01*
X80217075Y-43129000D01*
X80374142Y-43160242D01*
G37*
G36*
X77834142Y-43160242D02*
G01*
X77982101Y-43221529D01*
X78115255Y-43310499D01*
X78228501Y-43423745D01*
X78317471Y-43556899D01*
X78378758Y-43704858D01*
X78410000Y-43861925D01*
X78410000Y-44022075D01*
X78378758Y-44179142D01*
X78317471Y-44327101D01*
X78228501Y-44460255D01*
X78115255Y-44573501D01*
X77982101Y-44662471D01*
X77834142Y-44723758D01*
X77677075Y-44755000D01*
X77516925Y-44755000D01*
X77359858Y-44723758D01*
X77211899Y-44662471D01*
X77078745Y-44573501D01*
X76965499Y-44460255D01*
X76876529Y-44327101D01*
X76815242Y-44179142D01*
X76784000Y-44022075D01*
X76784000Y-43861925D01*
X76815242Y-43704858D01*
X76876529Y-43556899D01*
X76965499Y-43423745D01*
X77078745Y-43310499D01*
X77211899Y-43221529D01*
X77359858Y-43160242D01*
X77516925Y-43129000D01*
X77677075Y-43129000D01*
X77834142Y-43160242D01*
G37*
G36*
X75294142Y-43160242D02*
G01*
X75442101Y-43221529D01*
X75575255Y-43310499D01*
X75688501Y-43423745D01*
X75777471Y-43556899D01*
X75838758Y-43704858D01*
X75870000Y-43861925D01*
X75870000Y-44022075D01*
X75838758Y-44179142D01*
X75777471Y-44327101D01*
X75688501Y-44460255D01*
X75575255Y-44573501D01*
X75442101Y-44662471D01*
X75294142Y-44723758D01*
X75137075Y-44755000D01*
X74976925Y-44755000D01*
X74819858Y-44723758D01*
X74671899Y-44662471D01*
X74538745Y-44573501D01*
X74425499Y-44460255D01*
X74336529Y-44327101D01*
X74275242Y-44179142D01*
X74244000Y-44022075D01*
X74244000Y-43861925D01*
X74275242Y-43704858D01*
X74336529Y-43556899D01*
X74425499Y-43423745D01*
X74538745Y-43310499D01*
X74671899Y-43221529D01*
X74819858Y-43160242D01*
X74976925Y-43129000D01*
X75137075Y-43129000D01*
X75294142Y-43160242D01*
G37*
G36*
X42484345Y-42009442D02*
G01*
X42574548Y-42018326D01*
X42748157Y-42070990D01*
X42908156Y-42156511D01*
X42951729Y-42192271D01*
X43048397Y-42271603D01*
X43127729Y-42368271D01*
X43163489Y-42411844D01*
X43249010Y-42571843D01*
X43301674Y-42745452D01*
X43319456Y-42926000D01*
X43301674Y-43106548D01*
X43249010Y-43280157D01*
X43163489Y-43440156D01*
X43127729Y-43483729D01*
X43048397Y-43580397D01*
X42951729Y-43659729D01*
X42908156Y-43695489D01*
X42748157Y-43781010D01*
X42574548Y-43833674D01*
X42484345Y-43842558D01*
X42439245Y-43847000D01*
X41888755Y-43847000D01*
X41843655Y-43842558D01*
X41753452Y-43833674D01*
X41579843Y-43781010D01*
X41419844Y-43695489D01*
X41376271Y-43659729D01*
X41279603Y-43580397D01*
X41200271Y-43483729D01*
X41164511Y-43440156D01*
X41078990Y-43280157D01*
X41026326Y-43106548D01*
X41008544Y-42926000D01*
X41026326Y-42745452D01*
X41078990Y-42571843D01*
X41164511Y-42411844D01*
X41200271Y-42368271D01*
X41279603Y-42271603D01*
X41376271Y-42192271D01*
X41419844Y-42156511D01*
X41579843Y-42070990D01*
X41753452Y-42018326D01*
X41843655Y-42009442D01*
X41888755Y-42005000D01*
X42439245Y-42005000D01*
X42484345Y-42009442D01*
G37*
G36*
X42484345Y-39469442D02*
G01*
X42574548Y-39478326D01*
X42748157Y-39530990D01*
X42908156Y-39616511D01*
X42951729Y-39652271D01*
X43048397Y-39731603D01*
X43127729Y-39828271D01*
X43163489Y-39871844D01*
X43249010Y-40031843D01*
X43301674Y-40205452D01*
X43319456Y-40386000D01*
X43301674Y-40566548D01*
X43249010Y-40740157D01*
X43163489Y-40900156D01*
X43127729Y-40943729D01*
X43048397Y-41040397D01*
X42951729Y-41119729D01*
X42908156Y-41155489D01*
X42748157Y-41241010D01*
X42574548Y-41293674D01*
X42484345Y-41302558D01*
X42439245Y-41307000D01*
X41888755Y-41307000D01*
X41843655Y-41302558D01*
X41753452Y-41293674D01*
X41579843Y-41241010D01*
X41419844Y-41155489D01*
X41376271Y-41119729D01*
X41279603Y-41040397D01*
X41200271Y-40943729D01*
X41164511Y-40900156D01*
X41078990Y-40740157D01*
X41026326Y-40566548D01*
X41008544Y-40386000D01*
X41026326Y-40205452D01*
X41078990Y-40031843D01*
X41164511Y-39871844D01*
X41200271Y-39828271D01*
X41279603Y-39731603D01*
X41376271Y-39652271D01*
X41419844Y-39616511D01*
X41579843Y-39530990D01*
X41753452Y-39478326D01*
X41843655Y-39469442D01*
X41888755Y-39465000D01*
X42439245Y-39465000D01*
X42484345Y-39469442D01*
G37*
G36*
X54974142Y-37826242D02*
G01*
X55122101Y-37887529D01*
X55255255Y-37976499D01*
X55368501Y-38089745D01*
X55457471Y-38222899D01*
X55518758Y-38370858D01*
X55550000Y-38527925D01*
X55550000Y-38688075D01*
X55518758Y-38845142D01*
X55457471Y-38993101D01*
X55368501Y-39126255D01*
X55255255Y-39239501D01*
X55122101Y-39328471D01*
X54974142Y-39389758D01*
X54817075Y-39421000D01*
X54656925Y-39421000D01*
X54499858Y-39389758D01*
X54351899Y-39328471D01*
X54218745Y-39239501D01*
X54105499Y-39126255D01*
X54016529Y-38993101D01*
X53955242Y-38845142D01*
X53924000Y-38688075D01*
X53924000Y-38527925D01*
X53955242Y-38370858D01*
X54016529Y-38222899D01*
X54105499Y-38089745D01*
X54218745Y-37976499D01*
X54351899Y-37887529D01*
X54499858Y-37826242D01*
X54656925Y-37795000D01*
X54817075Y-37795000D01*
X54974142Y-37826242D01*
G37*
G36*
X93074142Y-37826242D02*
G01*
X93222101Y-37887529D01*
X93355255Y-37976499D01*
X93468501Y-38089745D01*
X93557471Y-38222899D01*
X93618758Y-38370858D01*
X93650000Y-38527925D01*
X93650000Y-38688075D01*
X93618758Y-38845142D01*
X93557471Y-38993101D01*
X93468501Y-39126255D01*
X93355255Y-39239501D01*
X93222101Y-39328471D01*
X93074142Y-39389758D01*
X92917075Y-39421000D01*
X92756925Y-39421000D01*
X92599858Y-39389758D01*
X92451899Y-39328471D01*
X92318745Y-39239501D01*
X92205499Y-39126255D01*
X92116529Y-38993101D01*
X92055242Y-38845142D01*
X92024000Y-38688075D01*
X92024000Y-38527925D01*
X92055242Y-38370858D01*
X92116529Y-38222899D01*
X92205499Y-38089745D01*
X92318745Y-37976499D01*
X92451899Y-37887529D01*
X92599858Y-37826242D01*
X92756925Y-37795000D01*
X92917075Y-37795000D01*
X93074142Y-37826242D01*
G37*
G36*
X57514142Y-37826242D02*
G01*
X57662101Y-37887529D01*
X57795255Y-37976499D01*
X57908501Y-38089745D01*
X57997471Y-38222899D01*
X58058758Y-38370858D01*
X58090000Y-38527925D01*
X58090000Y-38688075D01*
X58058758Y-38845142D01*
X57997471Y-38993101D01*
X57908501Y-39126255D01*
X57795255Y-39239501D01*
X57662101Y-39328471D01*
X57514142Y-39389758D01*
X57357075Y-39421000D01*
X57196925Y-39421000D01*
X57039858Y-39389758D01*
X56891899Y-39328471D01*
X56758745Y-39239501D01*
X56645499Y-39126255D01*
X56556529Y-38993101D01*
X56495242Y-38845142D01*
X56464000Y-38688075D01*
X56464000Y-38527925D01*
X56495242Y-38370858D01*
X56556529Y-38222899D01*
X56645499Y-38089745D01*
X56758745Y-37976499D01*
X56891899Y-37887529D01*
X57039858Y-37826242D01*
X57196925Y-37795000D01*
X57357075Y-37795000D01*
X57514142Y-37826242D01*
G37*
G36*
X90534142Y-37826242D02*
G01*
X90682101Y-37887529D01*
X90815255Y-37976499D01*
X90928501Y-38089745D01*
X91017471Y-38222899D01*
X91078758Y-38370858D01*
X91110000Y-38527925D01*
X91110000Y-38688075D01*
X91078758Y-38845142D01*
X91017471Y-38993101D01*
X90928501Y-39126255D01*
X90815255Y-39239501D01*
X90682101Y-39328471D01*
X90534142Y-39389758D01*
X90377075Y-39421000D01*
X90216925Y-39421000D01*
X90059858Y-39389758D01*
X89911899Y-39328471D01*
X89778745Y-39239501D01*
X89665499Y-39126255D01*
X89576529Y-38993101D01*
X89515242Y-38845142D01*
X89484000Y-38688075D01*
X89484000Y-38527925D01*
X89515242Y-38370858D01*
X89576529Y-38222899D01*
X89665499Y-38089745D01*
X89778745Y-37976499D01*
X89911899Y-37887529D01*
X90059858Y-37826242D01*
X90216925Y-37795000D01*
X90377075Y-37795000D01*
X90534142Y-37826242D01*
G37*
G36*
X60054142Y-37826242D02*
G01*
X60202101Y-37887529D01*
X60335255Y-37976499D01*
X60448501Y-38089745D01*
X60537471Y-38222899D01*
X60598758Y-38370858D01*
X60630000Y-38527925D01*
X60630000Y-38688075D01*
X60598758Y-38845142D01*
X60537471Y-38993101D01*
X60448501Y-39126255D01*
X60335255Y-39239501D01*
X60202101Y-39328471D01*
X60054142Y-39389758D01*
X59897075Y-39421000D01*
X59736925Y-39421000D01*
X59579858Y-39389758D01*
X59431899Y-39328471D01*
X59298745Y-39239501D01*
X59185499Y-39126255D01*
X59096529Y-38993101D01*
X59035242Y-38845142D01*
X59004000Y-38688075D01*
X59004000Y-38527925D01*
X59035242Y-38370858D01*
X59096529Y-38222899D01*
X59185499Y-38089745D01*
X59298745Y-37976499D01*
X59431899Y-37887529D01*
X59579858Y-37826242D01*
X59736925Y-37795000D01*
X59897075Y-37795000D01*
X60054142Y-37826242D01*
G37*
G36*
X52434142Y-37826242D02*
G01*
X52582101Y-37887529D01*
X52715255Y-37976499D01*
X52828501Y-38089745D01*
X52917471Y-38222899D01*
X52978758Y-38370858D01*
X53010000Y-38527925D01*
X53010000Y-38688075D01*
X52978758Y-38845142D01*
X52917471Y-38993101D01*
X52828501Y-39126255D01*
X52715255Y-39239501D01*
X52582101Y-39328471D01*
X52434142Y-39389758D01*
X52277075Y-39421000D01*
X52116925Y-39421000D01*
X51959858Y-39389758D01*
X51811899Y-39328471D01*
X51678745Y-39239501D01*
X51565499Y-39126255D01*
X51476529Y-38993101D01*
X51415242Y-38845142D01*
X51384000Y-38688075D01*
X51384000Y-38527925D01*
X51415242Y-38370858D01*
X51476529Y-38222899D01*
X51565499Y-38089745D01*
X51678745Y-37976499D01*
X51811899Y-37887529D01*
X51959858Y-37826242D01*
X52116925Y-37795000D01*
X52277075Y-37795000D01*
X52434142Y-37826242D01*
G37*
G36*
X65134142Y-37826242D02*
G01*
X65282101Y-37887529D01*
X65415255Y-37976499D01*
X65528501Y-38089745D01*
X65617471Y-38222899D01*
X65678758Y-38370858D01*
X65710000Y-38527925D01*
X65710000Y-38688075D01*
X65678758Y-38845142D01*
X65617471Y-38993101D01*
X65528501Y-39126255D01*
X65415255Y-39239501D01*
X65282101Y-39328471D01*
X65134142Y-39389758D01*
X64977075Y-39421000D01*
X64816925Y-39421000D01*
X64659858Y-39389758D01*
X64511899Y-39328471D01*
X64378745Y-39239501D01*
X64265499Y-39126255D01*
X64176529Y-38993101D01*
X64115242Y-38845142D01*
X64084000Y-38688075D01*
X64084000Y-38527925D01*
X64115242Y-38370858D01*
X64176529Y-38222899D01*
X64265499Y-38089745D01*
X64378745Y-37976499D01*
X64511899Y-37887529D01*
X64659858Y-37826242D01*
X64816925Y-37795000D01*
X64977075Y-37795000D01*
X65134142Y-37826242D01*
G37*
G36*
X87994142Y-37826242D02*
G01*
X88142101Y-37887529D01*
X88275255Y-37976499D01*
X88388501Y-38089745D01*
X88477471Y-38222899D01*
X88538758Y-38370858D01*
X88570000Y-38527925D01*
X88570000Y-38688075D01*
X88538758Y-38845142D01*
X88477471Y-38993101D01*
X88388501Y-39126255D01*
X88275255Y-39239501D01*
X88142101Y-39328471D01*
X87994142Y-39389758D01*
X87837075Y-39421000D01*
X87676925Y-39421000D01*
X87519858Y-39389758D01*
X87371899Y-39328471D01*
X87238745Y-39239501D01*
X87125499Y-39126255D01*
X87036529Y-38993101D01*
X86975242Y-38845142D01*
X86944000Y-38688075D01*
X86944000Y-38527925D01*
X86975242Y-38370858D01*
X87036529Y-38222899D01*
X87125499Y-38089745D01*
X87238745Y-37976499D01*
X87371899Y-37887529D01*
X87519858Y-37826242D01*
X87676925Y-37795000D01*
X87837075Y-37795000D01*
X87994142Y-37826242D01*
G37*
G36*
X67674142Y-37826242D02*
G01*
X67822101Y-37887529D01*
X67955255Y-37976499D01*
X68068501Y-38089745D01*
X68157471Y-38222899D01*
X68218758Y-38370858D01*
X68250000Y-38527925D01*
X68250000Y-38688075D01*
X68218758Y-38845142D01*
X68157471Y-38993101D01*
X68068501Y-39126255D01*
X67955255Y-39239501D01*
X67822101Y-39328471D01*
X67674142Y-39389758D01*
X67517075Y-39421000D01*
X67356925Y-39421000D01*
X67199858Y-39389758D01*
X67051899Y-39328471D01*
X66918745Y-39239501D01*
X66805499Y-39126255D01*
X66716529Y-38993101D01*
X66655242Y-38845142D01*
X66624000Y-38688075D01*
X66624000Y-38527925D01*
X66655242Y-38370858D01*
X66716529Y-38222899D01*
X66805499Y-38089745D01*
X66918745Y-37976499D01*
X67051899Y-37887529D01*
X67199858Y-37826242D01*
X67356925Y-37795000D01*
X67517075Y-37795000D01*
X67674142Y-37826242D01*
G37*
G36*
X85454142Y-37826242D02*
G01*
X85602101Y-37887529D01*
X85735255Y-37976499D01*
X85848501Y-38089745D01*
X85937471Y-38222899D01*
X85998758Y-38370858D01*
X86030000Y-38527925D01*
X86030000Y-38688075D01*
X85998758Y-38845142D01*
X85937471Y-38993101D01*
X85848501Y-39126255D01*
X85735255Y-39239501D01*
X85602101Y-39328471D01*
X85454142Y-39389758D01*
X85297075Y-39421000D01*
X85136925Y-39421000D01*
X84979858Y-39389758D01*
X84831899Y-39328471D01*
X84698745Y-39239501D01*
X84585499Y-39126255D01*
X84496529Y-38993101D01*
X84435242Y-38845142D01*
X84404000Y-38688075D01*
X84404000Y-38527925D01*
X84435242Y-38370858D01*
X84496529Y-38222899D01*
X84585499Y-38089745D01*
X84698745Y-37976499D01*
X84831899Y-37887529D01*
X84979858Y-37826242D01*
X85136925Y-37795000D01*
X85297075Y-37795000D01*
X85454142Y-37826242D01*
G37*
G36*
X82914142Y-37826242D02*
G01*
X83062101Y-37887529D01*
X83195255Y-37976499D01*
X83308501Y-38089745D01*
X83397471Y-38222899D01*
X83458758Y-38370858D01*
X83490000Y-38527925D01*
X83490000Y-38688075D01*
X83458758Y-38845142D01*
X83397471Y-38993101D01*
X83308501Y-39126255D01*
X83195255Y-39239501D01*
X83062101Y-39328471D01*
X82914142Y-39389758D01*
X82757075Y-39421000D01*
X82596925Y-39421000D01*
X82439858Y-39389758D01*
X82291899Y-39328471D01*
X82158745Y-39239501D01*
X82045499Y-39126255D01*
X81956529Y-38993101D01*
X81895242Y-38845142D01*
X81864000Y-38688075D01*
X81864000Y-38527925D01*
X81895242Y-38370858D01*
X81956529Y-38222899D01*
X82045499Y-38089745D01*
X82158745Y-37976499D01*
X82291899Y-37887529D01*
X82439858Y-37826242D01*
X82596925Y-37795000D01*
X82757075Y-37795000D01*
X82914142Y-37826242D01*
G37*
G36*
X80374142Y-37826242D02*
G01*
X80522101Y-37887529D01*
X80655255Y-37976499D01*
X80768501Y-38089745D01*
X80857471Y-38222899D01*
X80918758Y-38370858D01*
X80950000Y-38527925D01*
X80950000Y-38688075D01*
X80918758Y-38845142D01*
X80857471Y-38993101D01*
X80768501Y-39126255D01*
X80655255Y-39239501D01*
X80522101Y-39328471D01*
X80374142Y-39389758D01*
X80217075Y-39421000D01*
X80056925Y-39421000D01*
X79899858Y-39389758D01*
X79751899Y-39328471D01*
X79618745Y-39239501D01*
X79505499Y-39126255D01*
X79416529Y-38993101D01*
X79355242Y-38845142D01*
X79324000Y-38688075D01*
X79324000Y-38527925D01*
X79355242Y-38370858D01*
X79416529Y-38222899D01*
X79505499Y-38089745D01*
X79618745Y-37976499D01*
X79751899Y-37887529D01*
X79899858Y-37826242D01*
X80056925Y-37795000D01*
X80217075Y-37795000D01*
X80374142Y-37826242D01*
G37*
G36*
X77834142Y-37826242D02*
G01*
X77982101Y-37887529D01*
X78115255Y-37976499D01*
X78228501Y-38089745D01*
X78317471Y-38222899D01*
X78378758Y-38370858D01*
X78410000Y-38527925D01*
X78410000Y-38688075D01*
X78378758Y-38845142D01*
X78317471Y-38993101D01*
X78228501Y-39126255D01*
X78115255Y-39239501D01*
X77982101Y-39328471D01*
X77834142Y-39389758D01*
X77677075Y-39421000D01*
X77516925Y-39421000D01*
X77359858Y-39389758D01*
X77211899Y-39328471D01*
X77078745Y-39239501D01*
X76965499Y-39126255D01*
X76876529Y-38993101D01*
X76815242Y-38845142D01*
X76784000Y-38688075D01*
X76784000Y-38527925D01*
X76815242Y-38370858D01*
X76876529Y-38222899D01*
X76965499Y-38089745D01*
X77078745Y-37976499D01*
X77211899Y-37887529D01*
X77359858Y-37826242D01*
X77516925Y-37795000D01*
X77677075Y-37795000D01*
X77834142Y-37826242D01*
G37*
G36*
X75294142Y-37826242D02*
G01*
X75442101Y-37887529D01*
X75575255Y-37976499D01*
X75688501Y-38089745D01*
X75777471Y-38222899D01*
X75838758Y-38370858D01*
X75870000Y-38527925D01*
X75870000Y-38688075D01*
X75838758Y-38845142D01*
X75777471Y-38993101D01*
X75688501Y-39126255D01*
X75575255Y-39239501D01*
X75442101Y-39328471D01*
X75294142Y-39389758D01*
X75137075Y-39421000D01*
X74976925Y-39421000D01*
X74819858Y-39389758D01*
X74671899Y-39328471D01*
X74538745Y-39239501D01*
X74425499Y-39126255D01*
X74336529Y-38993101D01*
X74275242Y-38845142D01*
X74244000Y-38688075D01*
X74244000Y-38527925D01*
X74275242Y-38370858D01*
X74336529Y-38222899D01*
X74425499Y-38089745D01*
X74538745Y-37976499D01*
X74671899Y-37887529D01*
X74819858Y-37826242D01*
X74976925Y-37795000D01*
X75137075Y-37795000D01*
X75294142Y-37826242D01*
G37*
G36*
X72754142Y-37826242D02*
G01*
X72902101Y-37887529D01*
X73035255Y-37976499D01*
X73148501Y-38089745D01*
X73237471Y-38222899D01*
X73298758Y-38370858D01*
X73330000Y-38527925D01*
X73330000Y-38688075D01*
X73298758Y-38845142D01*
X73237471Y-38993101D01*
X73148501Y-39126255D01*
X73035255Y-39239501D01*
X72902101Y-39328471D01*
X72754142Y-39389758D01*
X72597075Y-39421000D01*
X72436925Y-39421000D01*
X72279858Y-39389758D01*
X72131899Y-39328471D01*
X71998745Y-39239501D01*
X71885499Y-39126255D01*
X71796529Y-38993101D01*
X71735242Y-38845142D01*
X71704000Y-38688075D01*
X71704000Y-38527925D01*
X71735242Y-38370858D01*
X71796529Y-38222899D01*
X71885499Y-38089745D01*
X71998745Y-37976499D01*
X72131899Y-37887529D01*
X72279858Y-37826242D01*
X72436925Y-37795000D01*
X72597075Y-37795000D01*
X72754142Y-37826242D01*
G37*
G36*
X70214142Y-37826242D02*
G01*
X70362101Y-37887529D01*
X70495255Y-37976499D01*
X70608501Y-38089745D01*
X70697471Y-38222899D01*
X70758758Y-38370858D01*
X70790000Y-38527925D01*
X70790000Y-38688075D01*
X70758758Y-38845142D01*
X70697471Y-38993101D01*
X70608501Y-39126255D01*
X70495255Y-39239501D01*
X70362101Y-39328471D01*
X70214142Y-39389758D01*
X70057075Y-39421000D01*
X69896925Y-39421000D01*
X69739858Y-39389758D01*
X69591899Y-39328471D01*
X69458745Y-39239501D01*
X69345499Y-39126255D01*
X69256529Y-38993101D01*
X69195242Y-38845142D01*
X69164000Y-38688075D01*
X69164000Y-38527925D01*
X69195242Y-38370858D01*
X69256529Y-38222899D01*
X69345499Y-38089745D01*
X69458745Y-37976499D01*
X69591899Y-37887529D01*
X69739858Y-37826242D01*
X69896925Y-37795000D01*
X70057075Y-37795000D01*
X70214142Y-37826242D01*
G37*
G36*
X62594142Y-37826242D02*
G01*
X62742101Y-37887529D01*
X62875255Y-37976499D01*
X62988501Y-38089745D01*
X63077471Y-38222899D01*
X63138758Y-38370858D01*
X63170000Y-38527925D01*
X63170000Y-38688075D01*
X63138758Y-38845142D01*
X63077471Y-38993101D01*
X62988501Y-39126255D01*
X62875255Y-39239501D01*
X62742101Y-39328471D01*
X62594142Y-39389758D01*
X62437075Y-39421000D01*
X62276925Y-39421000D01*
X62119858Y-39389758D01*
X61971899Y-39328471D01*
X61838745Y-39239501D01*
X61725499Y-39126255D01*
X61636529Y-38993101D01*
X61575242Y-38845142D01*
X61544000Y-38688075D01*
X61544000Y-38527925D01*
X61575242Y-38370858D01*
X61636529Y-38222899D01*
X61725499Y-38089745D01*
X61838745Y-37976499D01*
X61971899Y-37887529D01*
X62119858Y-37826242D01*
X62276925Y-37795000D01*
X62437075Y-37795000D01*
X62594142Y-37826242D01*
G37*
G36*
X42484345Y-36929442D02*
G01*
X42574548Y-36938326D01*
X42748157Y-36990990D01*
X42908156Y-37076511D01*
X42951729Y-37112271D01*
X43048397Y-37191603D01*
X43127729Y-37288271D01*
X43163489Y-37331844D01*
X43249010Y-37491843D01*
X43301674Y-37665452D01*
X43319456Y-37846000D01*
X43301674Y-38026548D01*
X43249010Y-38200157D01*
X43163489Y-38360156D01*
X43127729Y-38403729D01*
X43048397Y-38500397D01*
X42951729Y-38579729D01*
X42908156Y-38615489D01*
X42748157Y-38701010D01*
X42574548Y-38753674D01*
X42484345Y-38762558D01*
X42439245Y-38767000D01*
X41888755Y-38767000D01*
X41843655Y-38762558D01*
X41753452Y-38753674D01*
X41579843Y-38701010D01*
X41419844Y-38615489D01*
X41376271Y-38579729D01*
X41279603Y-38500397D01*
X41200271Y-38403729D01*
X41164511Y-38360156D01*
X41078990Y-38200157D01*
X41026326Y-38026548D01*
X41008544Y-37846000D01*
X41026326Y-37665452D01*
X41078990Y-37491843D01*
X41164511Y-37331844D01*
X41200271Y-37288271D01*
X41279603Y-37191603D01*
X41376271Y-37112271D01*
X41419844Y-37076511D01*
X41579843Y-36990990D01*
X41753452Y-36938326D01*
X41843655Y-36929442D01*
X41888755Y-36925000D01*
X42439245Y-36925000D01*
X42484345Y-36929442D01*
G37*
G36*
X60054142Y-35286242D02*
G01*
X60202101Y-35347529D01*
X60335255Y-35436499D01*
X60448501Y-35549745D01*
X60537471Y-35682899D01*
X60598758Y-35830858D01*
X60630000Y-35987925D01*
X60630000Y-36148075D01*
X60598758Y-36305142D01*
X60537471Y-36453101D01*
X60448501Y-36586255D01*
X60335255Y-36699501D01*
X60202101Y-36788471D01*
X60054142Y-36849758D01*
X59897075Y-36881000D01*
X59736925Y-36881000D01*
X59579858Y-36849758D01*
X59431899Y-36788471D01*
X59298745Y-36699501D01*
X59185499Y-36586255D01*
X59096529Y-36453101D01*
X59035242Y-36305142D01*
X59004000Y-36148075D01*
X59004000Y-35987925D01*
X59035242Y-35830858D01*
X59096529Y-35682899D01*
X59185499Y-35549745D01*
X59298745Y-35436499D01*
X59431899Y-35347529D01*
X59579858Y-35286242D01*
X59736925Y-35255000D01*
X59897075Y-35255000D01*
X60054142Y-35286242D01*
G37*
G36*
X62594142Y-35286242D02*
G01*
X62742101Y-35347529D01*
X62875255Y-35436499D01*
X62988501Y-35549745D01*
X63077471Y-35682899D01*
X63138758Y-35830858D01*
X63170000Y-35987925D01*
X63170000Y-36148075D01*
X63138758Y-36305142D01*
X63077471Y-36453101D01*
X62988501Y-36586255D01*
X62875255Y-36699501D01*
X62742101Y-36788471D01*
X62594142Y-36849758D01*
X62437075Y-36881000D01*
X62276925Y-36881000D01*
X62119858Y-36849758D01*
X61971899Y-36788471D01*
X61838745Y-36699501D01*
X61725499Y-36586255D01*
X61636529Y-36453101D01*
X61575242Y-36305142D01*
X61544000Y-36148075D01*
X61544000Y-35987925D01*
X61575242Y-35830858D01*
X61636529Y-35682899D01*
X61725499Y-35549745D01*
X61838745Y-35436499D01*
X61971899Y-35347529D01*
X62119858Y-35286242D01*
X62276925Y-35255000D01*
X62437075Y-35255000D01*
X62594142Y-35286242D01*
G37*
G36*
X65134142Y-35286242D02*
G01*
X65282101Y-35347529D01*
X65415255Y-35436499D01*
X65528501Y-35549745D01*
X65617471Y-35682899D01*
X65678758Y-35830858D01*
X65710000Y-35987925D01*
X65710000Y-36148075D01*
X65678758Y-36305142D01*
X65617471Y-36453101D01*
X65528501Y-36586255D01*
X65415255Y-36699501D01*
X65282101Y-36788471D01*
X65134142Y-36849758D01*
X64977075Y-36881000D01*
X64816925Y-36881000D01*
X64659858Y-36849758D01*
X64511899Y-36788471D01*
X64378745Y-36699501D01*
X64265499Y-36586255D01*
X64176529Y-36453101D01*
X64115242Y-36305142D01*
X64084000Y-36148075D01*
X64084000Y-35987925D01*
X64115242Y-35830858D01*
X64176529Y-35682899D01*
X64265499Y-35549745D01*
X64378745Y-35436499D01*
X64511899Y-35347529D01*
X64659858Y-35286242D01*
X64816925Y-35255000D01*
X64977075Y-35255000D01*
X65134142Y-35286242D01*
G37*
G36*
X67674142Y-35286242D02*
G01*
X67822101Y-35347529D01*
X67955255Y-35436499D01*
X68068501Y-35549745D01*
X68157471Y-35682899D01*
X68218758Y-35830858D01*
X68250000Y-35987925D01*
X68250000Y-36148075D01*
X68218758Y-36305142D01*
X68157471Y-36453101D01*
X68068501Y-36586255D01*
X67955255Y-36699501D01*
X67822101Y-36788471D01*
X67674142Y-36849758D01*
X67517075Y-36881000D01*
X67356925Y-36881000D01*
X67199858Y-36849758D01*
X67051899Y-36788471D01*
X66918745Y-36699501D01*
X66805499Y-36586255D01*
X66716529Y-36453101D01*
X66655242Y-36305142D01*
X66624000Y-36148075D01*
X66624000Y-35987925D01*
X66655242Y-35830858D01*
X66716529Y-35682899D01*
X66805499Y-35549745D01*
X66918745Y-35436499D01*
X67051899Y-35347529D01*
X67199858Y-35286242D01*
X67356925Y-35255000D01*
X67517075Y-35255000D01*
X67674142Y-35286242D01*
G37*
G36*
X70214142Y-35286242D02*
G01*
X70362101Y-35347529D01*
X70495255Y-35436499D01*
X70608501Y-35549745D01*
X70697471Y-35682899D01*
X70758758Y-35830858D01*
X70790000Y-35987925D01*
X70790000Y-36148075D01*
X70758758Y-36305142D01*
X70697471Y-36453101D01*
X70608501Y-36586255D01*
X70495255Y-36699501D01*
X70362101Y-36788471D01*
X70214142Y-36849758D01*
X70057075Y-36881000D01*
X69896925Y-36881000D01*
X69739858Y-36849758D01*
X69591899Y-36788471D01*
X69458745Y-36699501D01*
X69345499Y-36586255D01*
X69256529Y-36453101D01*
X69195242Y-36305142D01*
X69164000Y-36148075D01*
X69164000Y-35987925D01*
X69195242Y-35830858D01*
X69256529Y-35682899D01*
X69345499Y-35549745D01*
X69458745Y-35436499D01*
X69591899Y-35347529D01*
X69739858Y-35286242D01*
X69896925Y-35255000D01*
X70057075Y-35255000D01*
X70214142Y-35286242D01*
G37*
G36*
X72754142Y-35286242D02*
G01*
X72902101Y-35347529D01*
X73035255Y-35436499D01*
X73148501Y-35549745D01*
X73237471Y-35682899D01*
X73298758Y-35830858D01*
X73330000Y-35987925D01*
X73330000Y-36148075D01*
X73298758Y-36305142D01*
X73237471Y-36453101D01*
X73148501Y-36586255D01*
X73035255Y-36699501D01*
X72902101Y-36788471D01*
X72754142Y-36849758D01*
X72597075Y-36881000D01*
X72436925Y-36881000D01*
X72279858Y-36849758D01*
X72131899Y-36788471D01*
X71998745Y-36699501D01*
X71885499Y-36586255D01*
X71796529Y-36453101D01*
X71735242Y-36305142D01*
X71704000Y-36148075D01*
X71704000Y-35987925D01*
X71735242Y-35830858D01*
X71796529Y-35682899D01*
X71885499Y-35549745D01*
X71998745Y-35436499D01*
X72131899Y-35347529D01*
X72279858Y-35286242D01*
X72436925Y-35255000D01*
X72597075Y-35255000D01*
X72754142Y-35286242D01*
G37*
G36*
X75294142Y-35286242D02*
G01*
X75442101Y-35347529D01*
X75575255Y-35436499D01*
X75688501Y-35549745D01*
X75777471Y-35682899D01*
X75838758Y-35830858D01*
X75870000Y-35987925D01*
X75870000Y-36148075D01*
X75838758Y-36305142D01*
X75777471Y-36453101D01*
X75688501Y-36586255D01*
X75575255Y-36699501D01*
X75442101Y-36788471D01*
X75294142Y-36849758D01*
X75137075Y-36881000D01*
X74976925Y-36881000D01*
X74819858Y-36849758D01*
X74671899Y-36788471D01*
X74538745Y-36699501D01*
X74425499Y-36586255D01*
X74336529Y-36453101D01*
X74275242Y-36305142D01*
X74244000Y-36148075D01*
X74244000Y-35987925D01*
X74275242Y-35830858D01*
X74336529Y-35682899D01*
X74425499Y-35549745D01*
X74538745Y-35436499D01*
X74671899Y-35347529D01*
X74819858Y-35286242D01*
X74976925Y-35255000D01*
X75137075Y-35255000D01*
X75294142Y-35286242D01*
G37*
G36*
X77834142Y-35286242D02*
G01*
X77982101Y-35347529D01*
X78115255Y-35436499D01*
X78228501Y-35549745D01*
X78317471Y-35682899D01*
X78378758Y-35830858D01*
X78410000Y-35987925D01*
X78410000Y-36148075D01*
X78378758Y-36305142D01*
X78317471Y-36453101D01*
X78228501Y-36586255D01*
X78115255Y-36699501D01*
X77982101Y-36788471D01*
X77834142Y-36849758D01*
X77677075Y-36881000D01*
X77516925Y-36881000D01*
X77359858Y-36849758D01*
X77211899Y-36788471D01*
X77078745Y-36699501D01*
X76965499Y-36586255D01*
X76876529Y-36453101D01*
X76815242Y-36305142D01*
X76784000Y-36148075D01*
X76784000Y-35987925D01*
X76815242Y-35830858D01*
X76876529Y-35682899D01*
X76965499Y-35549745D01*
X77078745Y-35436499D01*
X77211899Y-35347529D01*
X77359858Y-35286242D01*
X77516925Y-35255000D01*
X77677075Y-35255000D01*
X77834142Y-35286242D01*
G37*
G36*
X80374142Y-35286242D02*
G01*
X80522101Y-35347529D01*
X80655255Y-35436499D01*
X80768501Y-35549745D01*
X80857471Y-35682899D01*
X80918758Y-35830858D01*
X80950000Y-35987925D01*
X80950000Y-36148075D01*
X80918758Y-36305142D01*
X80857471Y-36453101D01*
X80768501Y-36586255D01*
X80655255Y-36699501D01*
X80522101Y-36788471D01*
X80374142Y-36849758D01*
X80217075Y-36881000D01*
X80056925Y-36881000D01*
X79899858Y-36849758D01*
X79751899Y-36788471D01*
X79618745Y-36699501D01*
X79505499Y-36586255D01*
X79416529Y-36453101D01*
X79355242Y-36305142D01*
X79324000Y-36148075D01*
X79324000Y-35987925D01*
X79355242Y-35830858D01*
X79416529Y-35682899D01*
X79505499Y-35549745D01*
X79618745Y-35436499D01*
X79751899Y-35347529D01*
X79899858Y-35286242D01*
X80056925Y-35255000D01*
X80217075Y-35255000D01*
X80374142Y-35286242D01*
G37*
G36*
X82914142Y-35286242D02*
G01*
X83062101Y-35347529D01*
X83195255Y-35436499D01*
X83308501Y-35549745D01*
X83397471Y-35682899D01*
X83458758Y-35830858D01*
X83490000Y-35987925D01*
X83490000Y-36148075D01*
X83458758Y-36305142D01*
X83397471Y-36453101D01*
X83308501Y-36586255D01*
X83195255Y-36699501D01*
X83062101Y-36788471D01*
X82914142Y-36849758D01*
X82757075Y-36881000D01*
X82596925Y-36881000D01*
X82439858Y-36849758D01*
X82291899Y-36788471D01*
X82158745Y-36699501D01*
X82045499Y-36586255D01*
X81956529Y-36453101D01*
X81895242Y-36305142D01*
X81864000Y-36148075D01*
X81864000Y-35987925D01*
X81895242Y-35830858D01*
X81956529Y-35682899D01*
X82045499Y-35549745D01*
X82158745Y-35436499D01*
X82291899Y-35347529D01*
X82439858Y-35286242D01*
X82596925Y-35255000D01*
X82757075Y-35255000D01*
X82914142Y-35286242D01*
G37*
G36*
X85454142Y-35286242D02*
G01*
X85602101Y-35347529D01*
X85735255Y-35436499D01*
X85848501Y-35549745D01*
X85937471Y-35682899D01*
X85998758Y-35830858D01*
X86030000Y-35987925D01*
X86030000Y-36148075D01*
X85998758Y-36305142D01*
X85937471Y-36453101D01*
X85848501Y-36586255D01*
X85735255Y-36699501D01*
X85602101Y-36788471D01*
X85454142Y-36849758D01*
X85297075Y-36881000D01*
X85136925Y-36881000D01*
X84979858Y-36849758D01*
X84831899Y-36788471D01*
X84698745Y-36699501D01*
X84585499Y-36586255D01*
X84496529Y-36453101D01*
X84435242Y-36305142D01*
X84404000Y-36148075D01*
X84404000Y-35987925D01*
X84435242Y-35830858D01*
X84496529Y-35682899D01*
X84585499Y-35549745D01*
X84698745Y-35436499D01*
X84831899Y-35347529D01*
X84979858Y-35286242D01*
X85136925Y-35255000D01*
X85297075Y-35255000D01*
X85454142Y-35286242D01*
G37*
G36*
X87994142Y-35286242D02*
G01*
X88142101Y-35347529D01*
X88275255Y-35436499D01*
X88388501Y-35549745D01*
X88477471Y-35682899D01*
X88538758Y-35830858D01*
X88570000Y-35987925D01*
X88570000Y-36148075D01*
X88538758Y-36305142D01*
X88477471Y-36453101D01*
X88388501Y-36586255D01*
X88275255Y-36699501D01*
X88142101Y-36788471D01*
X87994142Y-36849758D01*
X87837075Y-36881000D01*
X87676925Y-36881000D01*
X87519858Y-36849758D01*
X87371899Y-36788471D01*
X87238745Y-36699501D01*
X87125499Y-36586255D01*
X87036529Y-36453101D01*
X86975242Y-36305142D01*
X86944000Y-36148075D01*
X86944000Y-35987925D01*
X86975242Y-35830858D01*
X87036529Y-35682899D01*
X87125499Y-35549745D01*
X87238745Y-35436499D01*
X87371899Y-35347529D01*
X87519858Y-35286242D01*
X87676925Y-35255000D01*
X87837075Y-35255000D01*
X87994142Y-35286242D01*
G37*
G36*
X90534142Y-35286242D02*
G01*
X90682101Y-35347529D01*
X90815255Y-35436499D01*
X90928501Y-35549745D01*
X91017471Y-35682899D01*
X91078758Y-35830858D01*
X91110000Y-35987925D01*
X91110000Y-36148075D01*
X91078758Y-36305142D01*
X91017471Y-36453101D01*
X90928501Y-36586255D01*
X90815255Y-36699501D01*
X90682101Y-36788471D01*
X90534142Y-36849758D01*
X90377075Y-36881000D01*
X90216925Y-36881000D01*
X90059858Y-36849758D01*
X89911899Y-36788471D01*
X89778745Y-36699501D01*
X89665499Y-36586255D01*
X89576529Y-36453101D01*
X89515242Y-36305142D01*
X89484000Y-36148075D01*
X89484000Y-35987925D01*
X89515242Y-35830858D01*
X89576529Y-35682899D01*
X89665499Y-35549745D01*
X89778745Y-35436499D01*
X89911899Y-35347529D01*
X90059858Y-35286242D01*
X90216925Y-35255000D01*
X90377075Y-35255000D01*
X90534142Y-35286242D01*
G37*
G36*
X93650000Y-36881000D02*
G01*
X92024000Y-36881000D01*
X92024000Y-35255000D01*
X93650000Y-35255000D01*
X93650000Y-36881000D01*
G37*
G36*
X57514142Y-35286242D02*
G01*
X57662101Y-35347529D01*
X57795255Y-35436499D01*
X57908501Y-35549745D01*
X57997471Y-35682899D01*
X58058758Y-35830858D01*
X58090000Y-35987925D01*
X58090000Y-36148075D01*
X58058758Y-36305142D01*
X57997471Y-36453101D01*
X57908501Y-36586255D01*
X57795255Y-36699501D01*
X57662101Y-36788471D01*
X57514142Y-36849758D01*
X57357075Y-36881000D01*
X57196925Y-36881000D01*
X57039858Y-36849758D01*
X56891899Y-36788471D01*
X56758745Y-36699501D01*
X56645499Y-36586255D01*
X56556529Y-36453101D01*
X56495242Y-36305142D01*
X56464000Y-36148075D01*
X56464000Y-35987925D01*
X56495242Y-35830858D01*
X56556529Y-35682899D01*
X56645499Y-35549745D01*
X56758745Y-35436499D01*
X56891899Y-35347529D01*
X57039858Y-35286242D01*
X57196925Y-35255000D01*
X57357075Y-35255000D01*
X57514142Y-35286242D01*
G37*
G36*
X54974142Y-35286242D02*
G01*
X55122101Y-35347529D01*
X55255255Y-35436499D01*
X55368501Y-35549745D01*
X55457471Y-35682899D01*
X55518758Y-35830858D01*
X55550000Y-35987925D01*
X55550000Y-36148075D01*
X55518758Y-36305142D01*
X55457471Y-36453101D01*
X55368501Y-36586255D01*
X55255255Y-36699501D01*
X55122101Y-36788471D01*
X54974142Y-36849758D01*
X54817075Y-36881000D01*
X54656925Y-36881000D01*
X54499858Y-36849758D01*
X54351899Y-36788471D01*
X54218745Y-36699501D01*
X54105499Y-36586255D01*
X54016529Y-36453101D01*
X53955242Y-36305142D01*
X53924000Y-36148075D01*
X53924000Y-35987925D01*
X53955242Y-35830858D01*
X54016529Y-35682899D01*
X54105499Y-35549745D01*
X54218745Y-35436499D01*
X54351899Y-35347529D01*
X54499858Y-35286242D01*
X54656925Y-35255000D01*
X54817075Y-35255000D01*
X54974142Y-35286242D01*
G37*
G36*
X52434142Y-35286242D02*
G01*
X52582101Y-35347529D01*
X52715255Y-35436499D01*
X52828501Y-35549745D01*
X52917471Y-35682899D01*
X52978758Y-35830858D01*
X53010000Y-35987925D01*
X53010000Y-36148075D01*
X52978758Y-36305142D01*
X52917471Y-36453101D01*
X52828501Y-36586255D01*
X52715255Y-36699501D01*
X52582101Y-36788471D01*
X52434142Y-36849758D01*
X52277075Y-36881000D01*
X52116925Y-36881000D01*
X51959858Y-36849758D01*
X51811899Y-36788471D01*
X51678745Y-36699501D01*
X51565499Y-36586255D01*
X51476529Y-36453101D01*
X51415242Y-36305142D01*
X51384000Y-36148075D01*
X51384000Y-35987925D01*
X51415242Y-35830858D01*
X51476529Y-35682899D01*
X51565499Y-35549745D01*
X51678745Y-35436499D01*
X51811899Y-35347529D01*
X51959858Y-35286242D01*
X52116925Y-35255000D01*
X52277075Y-35255000D01*
X52434142Y-35286242D01*
G37*
M02*
