G04 #@! TF.GenerationSoftware,KiCad,Pcbnew,(5.1.5-0-10_14)*
G04 #@! TF.CreationDate,2020-02-19T17:33:04+11:00*
G04 #@! TF.ProjectId,HX Internal FDD Adapter,48582049-6e74-4657-926e-616c20464444,rev?*
G04 #@! TF.SameCoordinates,Original*
G04 #@! TF.FileFunction,Legend,Top*
G04 #@! TF.FilePolarity,Positive*
%FSLAX46Y46*%
G04 Gerber Fmt 4.6, Leading zero omitted, Abs format (unit mm)*
G04 Created by KiCad (PCBNEW (5.1.5-0-10_14)) date 2020-02-19 17:33:04*
%MOMM*%
%LPD*%
G04 APERTURE LIST*
%ADD10C,0.150000*%
%ADD11C,0.250000*%
%ADD12C,0.120000*%
G04 APERTURE END LIST*
D10*
X38705666Y-47966380D02*
X39277095Y-47966380D01*
X38991380Y-48966380D02*
X38991380Y-47966380D01*
X40039000Y-48966380D02*
X40039000Y-48442571D01*
X39991380Y-48347333D01*
X39896142Y-48299714D01*
X39705666Y-48299714D01*
X39610428Y-48347333D01*
X40039000Y-48918761D02*
X39943761Y-48966380D01*
X39705666Y-48966380D01*
X39610428Y-48918761D01*
X39562809Y-48823523D01*
X39562809Y-48728285D01*
X39610428Y-48633047D01*
X39705666Y-48585428D01*
X39943761Y-48585428D01*
X40039000Y-48537809D01*
X40515190Y-48299714D02*
X40515190Y-48966380D01*
X40515190Y-48394952D02*
X40562809Y-48347333D01*
X40658047Y-48299714D01*
X40800904Y-48299714D01*
X40896142Y-48347333D01*
X40943761Y-48442571D01*
X40943761Y-48966380D01*
X41848523Y-48966380D02*
X41848523Y-47966380D01*
X41848523Y-48918761D02*
X41753285Y-48966380D01*
X41562809Y-48966380D01*
X41467571Y-48918761D01*
X41419952Y-48871142D01*
X41372333Y-48775904D01*
X41372333Y-48490190D01*
X41419952Y-48394952D01*
X41467571Y-48347333D01*
X41562809Y-48299714D01*
X41753285Y-48299714D01*
X41848523Y-48347333D01*
X42229476Y-48299714D02*
X42467571Y-48966380D01*
X42705666Y-48299714D02*
X42467571Y-48966380D01*
X42372333Y-49204476D01*
X42324714Y-49252095D01*
X42229476Y-49299714D01*
X44372333Y-48966380D02*
X43800904Y-48966380D01*
X44086619Y-48966380D02*
X44086619Y-47966380D01*
X43991380Y-48109238D01*
X43896142Y-48204476D01*
X43800904Y-48252095D01*
X44991380Y-47966380D02*
X45086619Y-47966380D01*
X45181857Y-48014000D01*
X45229476Y-48061619D01*
X45277095Y-48156857D01*
X45324714Y-48347333D01*
X45324714Y-48585428D01*
X45277095Y-48775904D01*
X45229476Y-48871142D01*
X45181857Y-48918761D01*
X45086619Y-48966380D01*
X44991380Y-48966380D01*
X44896142Y-48918761D01*
X44848523Y-48871142D01*
X44800904Y-48775904D01*
X44753285Y-48585428D01*
X44753285Y-48347333D01*
X44800904Y-48156857D01*
X44848523Y-48061619D01*
X44896142Y-48014000D01*
X44991380Y-47966380D01*
X45943761Y-47966380D02*
X46039000Y-47966380D01*
X46134238Y-48014000D01*
X46181857Y-48061619D01*
X46229476Y-48156857D01*
X46277095Y-48347333D01*
X46277095Y-48585428D01*
X46229476Y-48775904D01*
X46181857Y-48871142D01*
X46134238Y-48918761D01*
X46039000Y-48966380D01*
X45943761Y-48966380D01*
X45848523Y-48918761D01*
X45800904Y-48871142D01*
X45753285Y-48775904D01*
X45705666Y-48585428D01*
X45705666Y-48347333D01*
X45753285Y-48156857D01*
X45800904Y-48061619D01*
X45848523Y-48014000D01*
X45943761Y-47966380D01*
X46896142Y-47966380D02*
X46991380Y-47966380D01*
X47086619Y-48014000D01*
X47134238Y-48061619D01*
X47181857Y-48156857D01*
X47229476Y-48347333D01*
X47229476Y-48585428D01*
X47181857Y-48775904D01*
X47134238Y-48871142D01*
X47086619Y-48918761D01*
X46991380Y-48966380D01*
X46896142Y-48966380D01*
X46800904Y-48918761D01*
X46753285Y-48871142D01*
X46705666Y-48775904D01*
X46658047Y-48585428D01*
X46658047Y-48347333D01*
X46705666Y-48156857D01*
X46753285Y-48061619D01*
X46800904Y-48014000D01*
X46896142Y-47966380D01*
X48419952Y-48966380D02*
X48419952Y-47966380D01*
X48419952Y-48442571D02*
X48991380Y-48442571D01*
X48991380Y-48966380D02*
X48991380Y-47966380D01*
X49372333Y-47966380D02*
X50039000Y-48966380D01*
X50039000Y-47966380D02*
X49372333Y-48966380D01*
X51181857Y-48966380D02*
X51181857Y-47966380D01*
X51658047Y-48299714D02*
X51658047Y-48966380D01*
X51658047Y-48394952D02*
X51705666Y-48347333D01*
X51800904Y-48299714D01*
X51943761Y-48299714D01*
X52039000Y-48347333D01*
X52086619Y-48442571D01*
X52086619Y-48966380D01*
X52419952Y-48299714D02*
X52800904Y-48299714D01*
X52562809Y-47966380D02*
X52562809Y-48823523D01*
X52610428Y-48918761D01*
X52705666Y-48966380D01*
X52800904Y-48966380D01*
X53515190Y-48918761D02*
X53419952Y-48966380D01*
X53229476Y-48966380D01*
X53134238Y-48918761D01*
X53086619Y-48823523D01*
X53086619Y-48442571D01*
X53134238Y-48347333D01*
X53229476Y-48299714D01*
X53419952Y-48299714D01*
X53515190Y-48347333D01*
X53562809Y-48442571D01*
X53562809Y-48537809D01*
X53086619Y-48633047D01*
X53991380Y-48966380D02*
X53991380Y-48299714D01*
X53991380Y-48490190D02*
X54039000Y-48394952D01*
X54086619Y-48347333D01*
X54181857Y-48299714D01*
X54277095Y-48299714D01*
X54610428Y-48299714D02*
X54610428Y-48966380D01*
X54610428Y-48394952D02*
X54658047Y-48347333D01*
X54753285Y-48299714D01*
X54896142Y-48299714D01*
X54991380Y-48347333D01*
X55039000Y-48442571D01*
X55039000Y-48966380D01*
X55943761Y-48966380D02*
X55943761Y-48442571D01*
X55896142Y-48347333D01*
X55800904Y-48299714D01*
X55610428Y-48299714D01*
X55515190Y-48347333D01*
X55943761Y-48918761D02*
X55848523Y-48966380D01*
X55610428Y-48966380D01*
X55515190Y-48918761D01*
X55467571Y-48823523D01*
X55467571Y-48728285D01*
X55515190Y-48633047D01*
X55610428Y-48585428D01*
X55848523Y-48585428D01*
X55943761Y-48537809D01*
X56562809Y-48966380D02*
X56467571Y-48918761D01*
X56419952Y-48823523D01*
X56419952Y-47966380D01*
X58039000Y-48442571D02*
X57705666Y-48442571D01*
X57705666Y-48966380D02*
X57705666Y-47966380D01*
X58181857Y-47966380D01*
X58562809Y-48966380D02*
X58562809Y-47966380D01*
X58800904Y-47966380D01*
X58943761Y-48014000D01*
X59039000Y-48109238D01*
X59086619Y-48204476D01*
X59134238Y-48394952D01*
X59134238Y-48537809D01*
X59086619Y-48728285D01*
X59039000Y-48823523D01*
X58943761Y-48918761D01*
X58800904Y-48966380D01*
X58562809Y-48966380D01*
X59562809Y-48966380D02*
X59562809Y-47966380D01*
X59800904Y-47966380D01*
X59943761Y-48014000D01*
X60039000Y-48109238D01*
X60086619Y-48204476D01*
X60134238Y-48394952D01*
X60134238Y-48537809D01*
X60086619Y-48728285D01*
X60039000Y-48823523D01*
X59943761Y-48918761D01*
X59800904Y-48966380D01*
X59562809Y-48966380D01*
X61277095Y-48680666D02*
X61753285Y-48680666D01*
X61181857Y-48966380D02*
X61515190Y-47966380D01*
X61848523Y-48966380D01*
X62610428Y-48966380D02*
X62610428Y-47966380D01*
X62610428Y-48918761D02*
X62515190Y-48966380D01*
X62324714Y-48966380D01*
X62229476Y-48918761D01*
X62181857Y-48871142D01*
X62134238Y-48775904D01*
X62134238Y-48490190D01*
X62181857Y-48394952D01*
X62229476Y-48347333D01*
X62324714Y-48299714D01*
X62515190Y-48299714D01*
X62610428Y-48347333D01*
X63515190Y-48966380D02*
X63515190Y-48442571D01*
X63467571Y-48347333D01*
X63372333Y-48299714D01*
X63181857Y-48299714D01*
X63086619Y-48347333D01*
X63515190Y-48918761D02*
X63419952Y-48966380D01*
X63181857Y-48966380D01*
X63086619Y-48918761D01*
X63039000Y-48823523D01*
X63039000Y-48728285D01*
X63086619Y-48633047D01*
X63181857Y-48585428D01*
X63419952Y-48585428D01*
X63515190Y-48537809D01*
X63991380Y-48299714D02*
X63991380Y-49299714D01*
X63991380Y-48347333D02*
X64086619Y-48299714D01*
X64277095Y-48299714D01*
X64372333Y-48347333D01*
X64419952Y-48394952D01*
X64467571Y-48490190D01*
X64467571Y-48775904D01*
X64419952Y-48871142D01*
X64372333Y-48918761D01*
X64277095Y-48966380D01*
X64086619Y-48966380D01*
X63991380Y-48918761D01*
X64753285Y-48299714D02*
X65134238Y-48299714D01*
X64896142Y-47966380D02*
X64896142Y-48823523D01*
X64943761Y-48918761D01*
X65039000Y-48966380D01*
X65134238Y-48966380D01*
X65848523Y-48918761D02*
X65753285Y-48966380D01*
X65562809Y-48966380D01*
X65467571Y-48918761D01*
X65419952Y-48823523D01*
X65419952Y-48442571D01*
X65467571Y-48347333D01*
X65562809Y-48299714D01*
X65753285Y-48299714D01*
X65848523Y-48347333D01*
X65896142Y-48442571D01*
X65896142Y-48537809D01*
X65419952Y-48633047D01*
X66324714Y-48966380D02*
X66324714Y-48299714D01*
X66324714Y-48490190D02*
X66372333Y-48394952D01*
X66419952Y-48347333D01*
X66515190Y-48299714D01*
X66610428Y-48299714D01*
X67610428Y-48299714D02*
X67848523Y-48966380D01*
X68086619Y-48299714D01*
X68991380Y-48966380D02*
X68419952Y-48966380D01*
X68705666Y-48966380D02*
X68705666Y-47966380D01*
X68610428Y-48109238D01*
X68515190Y-48204476D01*
X68419952Y-48252095D01*
X69419952Y-48871142D02*
X69467571Y-48918761D01*
X69419952Y-48966380D01*
X69372333Y-48918761D01*
X69419952Y-48871142D01*
X69419952Y-48966380D01*
X70419952Y-48966380D02*
X69848523Y-48966380D01*
X70134238Y-48966380D02*
X70134238Y-47966380D01*
X70039000Y-48109238D01*
X69943761Y-48204476D01*
X69848523Y-48252095D01*
X71610428Y-48966380D02*
X71610428Y-47966380D01*
X71610428Y-48347333D02*
X71705666Y-48299714D01*
X71896142Y-48299714D01*
X71991380Y-48347333D01*
X72039000Y-48394952D01*
X72086619Y-48490190D01*
X72086619Y-48775904D01*
X72039000Y-48871142D01*
X71991380Y-48918761D01*
X71896142Y-48966380D01*
X71705666Y-48966380D01*
X71610428Y-48918761D01*
X72419952Y-48299714D02*
X72658047Y-48966380D01*
X72896142Y-48299714D02*
X72658047Y-48966380D01*
X72562809Y-49204476D01*
X72515190Y-49252095D01*
X72419952Y-49299714D01*
X74467571Y-48966380D02*
X74467571Y-47966380D01*
X74467571Y-48918761D02*
X74372333Y-48966380D01*
X74181857Y-48966380D01*
X74086619Y-48918761D01*
X74039000Y-48871142D01*
X73991380Y-48775904D01*
X73991380Y-48490190D01*
X74039000Y-48394952D01*
X74086619Y-48347333D01*
X74181857Y-48299714D01*
X74372333Y-48299714D01*
X74467571Y-48347333D01*
X75229476Y-47966380D02*
X75229476Y-48680666D01*
X75181857Y-48823523D01*
X75086619Y-48918761D01*
X74943761Y-48966380D01*
X74848523Y-48966380D01*
X75896142Y-47966380D02*
X76086619Y-47966380D01*
X76181857Y-48014000D01*
X76277095Y-48109238D01*
X76324714Y-48299714D01*
X76324714Y-48633047D01*
X76277095Y-48823523D01*
X76181857Y-48918761D01*
X76086619Y-48966380D01*
X75896142Y-48966380D01*
X75800904Y-48918761D01*
X75705666Y-48823523D01*
X75658047Y-48633047D01*
X75658047Y-48299714D01*
X75705666Y-48109238D01*
X75800904Y-48014000D01*
X75896142Y-47966380D01*
X76705666Y-48918761D02*
X76848523Y-48966380D01*
X77086619Y-48966380D01*
X77181857Y-48918761D01*
X77229476Y-48871142D01*
X77277095Y-48775904D01*
X77277095Y-48680666D01*
X77229476Y-48585428D01*
X77181857Y-48537809D01*
X77086619Y-48490190D01*
X76896142Y-48442571D01*
X76800904Y-48394952D01*
X76753285Y-48347333D01*
X76705666Y-48252095D01*
X76705666Y-48156857D01*
X76753285Y-48061619D01*
X76800904Y-48014000D01*
X76896142Y-47966380D01*
X77134238Y-47966380D01*
X77277095Y-48014000D01*
D11*
X97307000Y-36067000D02*
X97917000Y-36067000D01*
X97307000Y-38609000D02*
X97307000Y-36067000D01*
X97307000Y-38609000D02*
X97917000Y-38609000D01*
X47117000Y-36067000D02*
X47777000Y-36067000D01*
X47777000Y-38609000D02*
X47777000Y-36067000D01*
X47117000Y-38609000D02*
X47777000Y-38609000D01*
X74549000Y-32893000D02*
X97917000Y-32893000D01*
X47117000Y-32893000D02*
X70485000Y-32893000D01*
X47117000Y-41783000D02*
X47117000Y-32893000D01*
X47117000Y-41783000D02*
X97917000Y-41783000D01*
X97917000Y-41783000D02*
X97917000Y-32893000D01*
X74549000Y-33658000D02*
X74549000Y-32893000D01*
X70485000Y-33658000D02*
X74549000Y-33658000D01*
X70485000Y-33658000D02*
X70485000Y-32893000D01*
D12*
X39734000Y-37046000D02*
X39134000Y-37046000D01*
X39734000Y-38646000D02*
X39734000Y-37046000D01*
X39134000Y-38646000D02*
X39734000Y-38646000D01*
X39734000Y-39586000D02*
X39134000Y-39586000D01*
X39734000Y-41186000D02*
X39734000Y-39586000D01*
X39134000Y-41186000D02*
X39734000Y-41186000D01*
X39734000Y-42126000D02*
X39134000Y-42126000D01*
X39734000Y-43726000D02*
X39734000Y-42126000D01*
X39134000Y-43726000D02*
X39734000Y-43726000D01*
X39734000Y-44666000D02*
X39134000Y-44666000D01*
X39734000Y-46266000D02*
X39734000Y-44666000D01*
X39134000Y-46266000D02*
X39734000Y-46266000D01*
X45154000Y-38096000D02*
X44154000Y-38096000D01*
X45154000Y-45216000D02*
X44154000Y-45216000D01*
X43624000Y-38096000D02*
X44154000Y-37846000D01*
X43624000Y-45216000D02*
X43624000Y-38096000D01*
X44154000Y-45466000D02*
X43624000Y-45216000D01*
X44154000Y-37846000D02*
X45154000Y-37846000D01*
X44154000Y-45466000D02*
X44154000Y-37846000D01*
X45154000Y-45466000D02*
X44154000Y-45466000D01*
X40164000Y-47136000D02*
X44164000Y-47136000D01*
X39134000Y-36466000D02*
X39134000Y-46846000D01*
X45154000Y-36466000D02*
X39134000Y-36466000D01*
X45154000Y-46846000D02*
X45154000Y-36466000D01*
X39134000Y-46846000D02*
X45154000Y-46846000D01*
M02*
